<svg width="216" height="80" viewBox="0 0 216 80" fill="none" xmlns="http://www.w3.org/2000/svg">
<rect width="216" height="80" rx="7" fill="#343642" fill-opacity="0.6"/>
<path d="M103.816 31.7996C102.978 31.7734 102.298 32.4276 102.272 33.2387L102.272 40.7745C98.6872 37.8962 93.4279 38.4719 90.5496 42.0566C89.3722 43.5481 88.718 45.3797 88.718 47.2898C88.6395 51.895 92.3028 55.689 96.908 55.7675C101.513 55.846 105.307 52.1828 105.386 47.5776L105.386 33.3434C105.386 32.9247 105.229 32.5322 104.941 32.2444C104.627 31.9566 104.234 31.7996 103.816 31.7996ZM101.853 49.3046C101.33 50.5605 100.336 51.5548 99.0797 52.1043C97.7714 52.6538 96.3061 52.6538 94.9978 52.1043C93.7419 51.581 92.7737 50.5605 92.2504 49.3307C91.7009 48.0486 91.7009 46.5833 92.2504 45.275C92.7737 44.0191 93.768 43.0248 94.9978 42.5014C96.3061 41.9519 97.7714 41.9519 99.0797 42.5014C100.336 43.0509 101.33 44.0452 101.853 45.3012C102.403 46.5572 102.403 48.0224 101.853 49.3046ZM121.216 41.4025C117.971 38.1579 112.686 38.1579 109.441 41.4025C107.871 42.9724 107.008 45.0919 107.008 47.2898C106.929 51.895 110.593 55.689 115.198 55.7675C119.803 55.846 123.597 52.1828 123.676 47.5776L123.676 47.2898C123.676 46.1908 123.466 45.118 123.048 44.0976C122.629 43.0771 122.001 42.1613 121.216 41.4025ZM120.143 49.2784C119.882 49.9064 119.489 50.4559 119.018 50.9269C118.547 51.3978 117.971 51.7903 117.37 52.052C116.061 52.6015 114.596 52.6015 113.288 52.052C112.032 51.5287 111.038 50.5082 110.514 49.2784C109.965 47.9963 109.965 46.531 110.514 45.2227C111.038 43.9667 112.032 42.9986 113.288 42.4491C114.596 41.8996 116.061 41.8996 117.37 42.4491C117.998 42.7108 118.547 43.1033 119.018 43.5742C119.489 44.0452 119.882 44.6209 120.143 45.2227C120.693 46.5571 120.693 48.0224 120.143 49.2784ZM155.677 40.4867C155.677 40.2773 155.624 40.068 155.546 39.8849C155.467 39.7017 155.336 39.5447 155.206 39.3877C155.075 39.2569 154.892 39.126 154.708 39.0475C154.525 38.969 154.316 38.9167 154.107 38.9167C153.819 38.9167 153.531 38.9952 153.269 39.1522L144.373 44.9349L144.373 33.3695C144.373 32.9509 144.216 32.5584 143.928 32.2706C143.64 31.9827 143.248 31.7996 142.829 31.7996C141.966 31.7996 141.285 32.4799 141.259 33.3434L141.259 54.0406C141.259 54.4593 141.416 54.8517 141.704 55.1396C141.992 55.4536 142.384 55.6105 142.803 55.6105C143.222 55.6105 143.614 55.4536 143.902 55.1396C144.19 54.8517 144.373 54.4593 144.347 54.0406L144.347 48.6766L146.152 47.4991L153.034 55.2181C153.322 55.4797 153.688 55.6367 154.08 55.6105C154.29 55.6105 154.499 55.5844 154.682 55.4797C154.865 55.4012 155.022 55.2966 155.179 55.1396C155.31 54.9826 155.441 54.8256 155.52 54.6424C155.598 54.4592 155.65 54.2499 155.65 54.0406C155.65 53.6481 155.493 53.2556 155.232 52.9678L148.847 45.7722L155.075 41.7165C155.493 41.4548 155.703 40.9838 155.677 40.4867ZM129.851 43.5742C130.322 43.1033 130.897 42.7108 131.525 42.4491C132.18 42.1875 132.86 42.0305 133.566 42.0305C134.194 42.0305 134.796 42.1351 135.372 42.3444C135.947 42.5799 136.497 42.8939 136.968 43.3126C137.256 43.5481 137.622 43.6527 137.988 43.6527C138.407 43.6789 138.826 43.5219 139.114 43.2079C139.401 42.9201 139.558 42.5014 139.558 42.0828C139.558 41.638 139.375 41.1931 139.009 40.9053C137.517 39.5709 135.581 38.8382 133.566 38.8905C128.961 38.8905 125.219 42.6323 125.219 47.2375C125.219 51.8427 128.935 55.5582 133.514 55.5844C135.529 55.5844 137.465 54.8779 138.983 53.5696C139.297 53.2818 139.48 52.8631 139.48 52.4183C139.506 51.581 138.852 50.9007 138.041 50.8745L137.936 50.8745C137.57 50.8745 137.23 50.9792 136.942 51.1885C136.471 51.6072 135.947 51.9212 135.372 52.1566C134.796 52.366 134.168 52.4706 133.566 52.4706C132.86 52.4706 132.18 52.3398 131.525 52.052C130.897 51.7903 130.348 51.3978 129.851 50.9269C127.81 48.8859 127.81 45.589 129.825 43.5481C129.851 43.6004 129.851 43.6004 129.851 43.5742ZM186.578 39.9895C186.264 39.7017 185.924 39.4924 185.532 39.3615C185.087 39.2045 184.616 39.0999 184.145 39.0475C183.674 38.9952 183.203 38.969 182.732 38.969C181.79 38.969 180.822 39.126 179.932 39.4662C179.043 39.7802 178.232 40.2512 177.499 40.8268L177.499 40.5128C177.473 39.6494 176.74 38.9952 175.877 39.0214C175.485 39.0344 175.113 39.1958 174.836 39.4727C174.56 39.7496 174.398 40.1214 174.385 40.5128L174.385 54.0929C174.411 54.9564 175.144 55.6105 176.007 55.5844C176.399 55.5713 176.771 55.41 177.048 55.1331C177.324 54.8562 177.486 54.4843 177.499 54.0929L177.499 47.316C177.499 46.6095 177.63 45.9292 177.918 45.275C178.179 44.647 178.546 44.0976 179.043 43.6266C179.514 43.1556 180.089 42.7631 180.691 42.5014C181.345 42.2398 182.026 42.0828 182.732 42.0828C183.439 42.0828 184.119 42.2136 184.773 42.4491C184.982 42.5538 185.192 42.6061 185.427 42.6061C185.636 42.6061 185.846 42.5799 186.029 42.4753C186.212 42.3968 186.369 42.2921 186.526 42.1351C186.657 42.0043 186.788 41.8211 186.866 41.638C186.945 41.4548 186.997 41.2455 186.997 41.0362C187.023 40.6437 186.866 40.2773 186.578 39.9895ZM172.135 44.0976C170.8 41.01 167.765 38.9952 164.416 38.969C159.811 38.969 156.095 42.6846 156.069 47.2898C156.069 51.895 159.811 55.6367 164.416 55.6367C166.405 55.6367 168.341 54.9302 169.858 53.6219L169.911 53.5696C170.042 53.465 170.172 53.3341 170.251 53.1771C170.748 52.4445 170.565 51.4763 169.858 50.9792C169.257 50.5867 168.472 50.6652 167.948 51.1624C167.896 51.2147 167.739 51.3455 167.739 51.3717L167.713 51.3978C167.268 51.7642 166.771 52.0782 166.221 52.2613C165.646 52.4706 165.044 52.5753 164.416 52.5491C163.84 52.5491 163.291 52.4706 162.741 52.2875C162.218 52.1043 161.721 51.8688 161.276 51.5287C160.831 51.2147 160.439 50.8222 160.125 50.3774C159.785 49.9326 159.549 49.4092 159.392 48.8859L171.167 48.8859C171.585 48.8859 171.978 48.7289 172.266 48.4411C172.58 48.1533 172.737 47.7608 172.711 47.3421C172.737 46.217 172.527 45.118 172.135 44.0976ZM159.392 45.7722C159.549 45.2227 159.785 44.7255 160.125 44.2807C160.439 43.8359 160.831 43.4434 161.276 43.1294C161.721 42.8154 162.218 42.5538 162.741 42.3706C163.265 42.1874 163.84 42.109 164.39 42.109C164.939 42.109 165.515 42.1874 166.038 42.3706C167.085 42.7108 168.001 43.3911 168.655 44.2807C168.995 44.7255 169.23 45.2489 169.414 45.7722L159.392 45.7722ZM181.267 53.3603C180.665 53.3603 180.194 53.8574 180.194 54.4593C180.194 55.0611 180.691 55.5321 181.293 55.5321C181.895 55.5321 182.366 55.0349 182.366 54.4593C182.366 53.8313 181.869 53.3603 181.267 53.3603ZM181.267 55.2966C180.796 55.3227 180.403 54.9564 180.377 54.4854C180.351 54.0144 180.717 53.6219 181.188 53.5958C181.659 53.5696 182.052 53.9359 182.078 54.4069L182.078 54.4593C182.104 54.9041 181.738 55.2966 181.293 55.2966L181.267 55.2966Z" fill="white"/>
<path d="M181.53 54.4551C181.661 54.4289 181.739 54.3242 181.739 54.1934C181.739 54.0887 181.713 54.0102 181.635 53.9579C181.53 53.9056 181.399 53.8794 181.268 53.8794C181.138 53.8794 180.981 53.8794 180.85 53.9056L180.85 54.9784L181.085 54.9784L181.085 54.5597L181.19 54.5597C181.321 54.5597 181.399 54.6121 181.425 54.7167C181.451 54.7952 181.478 54.8999 181.504 54.9784L181.766 54.9784C181.713 54.8999 181.687 54.7952 181.687 54.7167C181.713 54.6121 181.635 54.5074 181.53 54.4551ZM181.216 54.3766L181.085 54.3766L181.085 54.0626L181.216 54.0626C181.373 54.0626 181.452 54.1411 181.452 54.2196C181.478 54.3242 181.347 54.4027 181.216 54.3766ZM85.8676 35.3016C85.7106 35.1708 84.2976 34.098 81.2624 34.098C80.4774 34.098 79.6662 34.1765 78.8813 34.3073C78.3056 30.3039 74.9826 28.3676 74.8517 28.263L74.0406 27.792L73.5173 28.5508C72.8631 29.5713 72.366 30.7226 72.0781 31.9C71.5287 34.1765 71.8688 36.3221 73.0201 38.1537C71.6333 38.9387 69.3831 39.1218 68.9121 39.148L31.7565 39.148C30.7884 39.148 30.0034 39.933 30.0034 40.9011C29.9511 44.1457 30.5006 47.3902 31.6257 50.4517C32.9078 53.8009 34.8179 56.2867 37.2775 57.8043C40.0511 59.5051 44.5778 60.4732 49.6802 60.4732C51.9827 60.4732 54.2853 60.2639 56.5618 59.8452C59.7278 59.2696 62.7631 58.1706 65.5628 56.5745C67.8654 55.24 69.9325 53.5392 71.6857 51.5506C74.6424 48.2276 76.3955 44.512 77.6776 41.2151L78.201 41.2151C81.4194 41.2151 83.408 39.933 84.5069 38.834C85.2396 38.1537 85.7891 37.3164 86.1816 36.3744L86.417 35.6941L85.8676 35.3016Z" fill="white"/>
<path d="M35.2134 38.0806L40.1849 38.0806C40.4204 38.0806 40.6297 37.8975 40.6297 37.6358L40.6297 33.1876C40.6297 32.9521 40.4466 32.7428 40.1849 32.7428L35.2134 32.7428C34.9779 32.7428 34.7686 32.9259 34.7686 33.1876L34.7686 37.6358C34.7947 37.8975 34.9779 38.0806 35.2134 38.0806ZM42.0688 38.0806L47.0404 38.0806C47.2759 38.0806 47.4852 37.8975 47.4852 37.6358L47.4852 33.1876C47.4852 32.9521 47.302 32.7428 47.0404 32.7428L42.0688 32.7428C41.8333 32.7428 41.624 32.9259 41.624 33.1876L41.624 37.6358C41.6502 37.8975 41.8333 38.0806 42.0688 38.0806ZM49.0551 38.0806L54.0267 38.0806C54.2621 38.0806 54.4715 37.8975 54.4715 37.6358L54.4715 33.1876C54.4715 32.9521 54.2883 32.7428 54.0267 32.7428L49.0551 32.7428C48.8196 32.7428 48.6103 32.9259 48.6103 33.1876L48.6103 37.6358C48.6103 37.8975 48.7935 38.0806 49.0551 38.0806ZM55.9368 38.0806L60.9083 38.0806C61.1438 38.0806 61.3531 37.8975 61.3531 37.6358L61.3531 33.1876C61.3531 32.9521 61.1699 32.7428 60.9083 32.7428L55.9368 32.7428C55.7013 32.7428 55.4919 32.9259 55.4919 33.1876L55.4919 37.6358C55.4919 37.8975 55.7013 38.0806 55.9368 38.0806ZM42.0688 31.7223L47.0404 31.7223C47.2759 31.7223 47.4852 31.513 47.4852 31.2775L47.4852 26.8293C47.4852 26.5938 47.302 26.3845 47.0404 26.3845L42.0688 26.3845C41.8333 26.3845 41.624 26.5676 41.624 26.8293L41.624 31.2775C41.6502 31.513 41.8333 31.7223 42.0688 31.7223ZM49.0551 31.7223L54.0267 31.7223C54.2621 31.7223 54.4715 31.513 54.4715 31.2775L54.4715 26.8293C54.4715 26.5938 54.2883 26.3845 54.0267 26.3845L49.0551 26.3845C48.8196 26.3845 48.6103 26.5676 48.6103 26.8293L48.6103 31.2775C48.6103 31.513 48.7935 31.7223 49.0551 31.7223ZM55.9368 31.7223L60.9083 31.7223C61.1438 31.7223 61.3531 31.513 61.3531 31.2775L61.3531 26.8293C61.3531 26.5938 61.1438 26.3845 60.9083 26.3845L55.9368 26.3845C55.7013 26.3845 55.4919 26.5676 55.4919 26.8293L55.4919 31.2775C55.4919 31.513 55.7013 31.7223 55.9368 31.7223ZM55.9368 25.3378L60.9083 25.3378C61.1438 25.3378 61.3531 25.1547 61.3531 24.893L61.3531 20.4448C61.3531 20.2093 61.1438 20 60.9083 20L55.9368 20C55.7013 20 55.4919 20.1832 55.4919 20.4448L55.4919 24.893C55.4919 25.1285 55.7013 25.3378 55.9368 25.3378ZM62.8707 38.0806L67.8422 38.0806C68.0777 38.0806 68.2871 37.8975 68.2871 37.6358L68.2871 33.1876C68.2871 32.9521 68.1039 32.7428 67.8422 32.7428L62.8707 32.7428C62.6352 32.7428 62.4259 32.9259 62.4259 33.1876L62.4259 37.6358C62.4521 37.8975 62.6352 38.0806 62.8707 38.0806Z" fill="white"/>
</svg>
