<?xml version="1.0" encoding="utf-8"?><svg viewBox="0 0 74 110" xmlns="http://www.w3.org/2000/svg" xmlns:xlink="http://www.w3.org/1999/xlink"><style>:root>svg{display:none}:root>svg:target{display:block}</style><svg fill="none" viewBox="0 0 74 110" id="1" xmlns="http://www.w3.org/2000/svg"><path opacity=".5" d="M14.784 12.279l-.444.156.13.452 4.2 14.7.136.48.48-.136 20.514-5.82V108.5h18.25V2.5H42.465l-.081.029-27.6 9.75z" stroke="url(#apaint0_linear_1942_2716)"/><defs><linearGradient id="apaint0_linear_1942_2716" x1="43.463" y1="78.525" x2="-26.678" y2="19.261" gradientUnits="userSpaceOnUse"><stop stop-color="#fff" stop-opacity=".28"/><stop offset="1" stop-color="#fff" stop-opacity=".92"/></linearGradient></defs></svg><svg fill="none" viewBox="0 0 74 110" id="2" xmlns="http://www.w3.org/2000/svg"><path opacity=".5" d="M71.45 109.45h.5V91.8H29.157l22.847-22.846.004-.005C63.946 56.71 70 45.191 70 34.4c0-10.024-3.347-18.066-10.067-24.073h0C53.335 4.439 45.313 1.5 35.9 1.5c-7.487 0-14.278 1.873-20.36 5.623C9.448 10.779 4.784 16.108 1.546 23.09l-.19.411.39.23 14.55 8.55.468.275.236-.489c2.07-4.288 4.693-7.474 7.853-9.589 3.158-2.113 6.883-3.178 11.197-3.178 4.691 0 8.46 1.413 11.353 4.21 2.883 2.787 4.347 6.597 4.347 11.49 0 6.288-4.32 13.863-13.204 22.746l-.003.004-36.6 37.35-.143.146v14.204h69.65z" stroke="url(#bpaint0_linear_1942_2717)"/><defs><linearGradient id="bpaint0_linear_1942_2717" x1="41.168" y1="79.475" x2="-28.73" y2="-4.894" gradientUnits="userSpaceOnUse"><stop stop-color="#fff" stop-opacity=".28"/><stop offset="1" stop-color="#fff" stop-opacity=".92"/></linearGradient></defs></svg><svg fill="none" viewBox="0 0 74 110" id="3" xmlns="http://www.w3.org/2000/svg"><g clip-path="url(#cclip0_1942_2720)"><path opacity=".5" d="M69.049 17.001l.101-.133V1.5H3.65v17.2h43.443L25.052 47.748l-.215.283.197.296 6.9 10.35.148.223h4.168c5.917 0 10.54 1.478 13.925 4.38 3.374 2.892 5.075 6.845 5.075 11.92 0 5.073-1.7 9.08-5.078 12.073-3.385 2.9-8.006 4.377-13.922 4.377-5.23 0-9.49-1.11-12.813-3.293-3.318-2.18-5.744-5.457-7.264-9.87l-.198-.575-.526.306-14.7 8.55-.369.214.153.398c2.74 7.101 7.312 12.59 13.709 16.448l.005.003c6.386 3.751 13.725 5.619 22.003 5.619 10.503 0 19.322-3.032 26.424-9.119C69.901 94.223 73.5 85.825 73.5 75.2c0-7.809-2.386-14.429-7.172-19.828-4.53-5.316-10.578-8.905-18.119-10.78l20.84-27.59z" stroke="url(#cpaint0_linear_1942_2720)"/></g><defs><linearGradient id="cpaint0_linear_1942_2720" x1="41.856" y1="77.525" x2="-27.701" y2="-8.532" gradientUnits="userSpaceOnUse"><stop stop-color="#fff" stop-opacity=".28"/><stop offset="1" stop-color="#fff" stop-opacity=".92"/></linearGradient><clipPath id="cclip0_1942_2720"><path fill="#fff" d="M0 0h74v110H0z"/></clipPath></defs></svg><svg fill="none" viewBox="0 0 29 29" id="kulich-img-1" xmlns="http://www.w3.org/2000/svg"><g filter="url(#dfilter0_d_1708_3253)"><path d="M16.318 4.162a2.5 2.5 0 012.369.8l4.89 5.553a2.5 2.5 0 01.493 2.45l-2.364 7.013a2.5 2.5 0 01-1.877 1.652l-7.254 1.458a2.5 2.5 0 01-2.37-.798l-4.89-5.554a2.5 2.5 0 01-.492-2.45l2.364-7.013a2.5 2.5 0 011.876-1.652l7.255-1.459z" stroke="#ED9E10"/></g><defs><filter id="dfilter0_d_1708_3253" x=".191" y=".613" width="28.51" height="28.024" filterUnits="userSpaceOnUse" color-interpolation-filters="sRGB"><feFlood flood-opacity="0" result="BackgroundImageFix"/><feColorMatrix in="SourceAlpha" values="0 0 0 0 0 0 0 0 0 0 0 0 0 0 0 0 0 0 127 0" result="hardAlpha"/><feOffset dy="1"/><feGaussianBlur stdDeviation="2"/><feColorMatrix values="0 0 0 0 0.929167 0 0 0 0 0.620104 0 0 0 0 0.0619444 0 0 0 1 0"/><feBlend in2="BackgroundImageFix" result="effect1_dropShadow_1708_3253"/><feBlend in="SourceGraphic" in2="effect1_dropShadow_1708_3253" result="shape"/></filter></defs></svg><svg fill="none" viewBox="0 0 21 21" id="kulich-img-10" xmlns="http://www.w3.org/2000/svg"><path d="M8.89 8.89v.5h.5v-.5h-.5zm0 3.036h.5v-.5h-.5v.5zm3.036 0v-.5h-.5v.5h.5zm0-3.035h-.5v.5h.5v-.5zM9.39 2a.5.5 0 01.5-.5v-1A1.5 1.5 0 008.39 2h1zm0 6.89V2h-1v6.89h1zM2 9.39h6.89v-1H2v1zm-.5.5a.5.5 0 01.5-.5v-1a1.5 1.5 0 00-1.5 1.5h1zm0 1.036V9.89h-1v1.035h1zm.5.5a.5.5 0 01-.5-.5h-1a1.5 1.5 0 001.5 1.5v-1zm6.89 0H2v1h6.89v-1zm.5 7.391v-6.891h-1v6.891h1zm.5.5a.5.5 0 01-.5-.5h-1a1.5 1.5 0 001.5 1.5v-1zm1.036 0H9.89v1h1.035v-1zm.5-.5a.5.5 0 01-.5.5v1a1.5 1.5 0 001.5-1.5h-1zm0-6.891v6.891h1v-6.891h-1zm7.391-.5h-6.891v1h6.891v-1zm.5-.5a.5.5 0 01-.5.5v1a1.5 1.5 0 001.5-1.5h-1zm0-1.035v1.035h1V9.89h-1zm-.5-.5a.5.5 0 01.5.5h1a1.5 1.5 0 00-1.5-1.5v1zm-6.891 0h6.891v-1h-6.891v1zM11.426 2v6.89h1V2h-1zm-.5-.5a.5.5 0 01.5.5h1a1.5 1.5 0 00-1.5-1.5v1zm-1.035 0h1.035v-1H9.89v1z" fill="#BCE000"/></svg><svg fill="none" viewBox="0 0 49 49" id="kulich-img-11" xmlns="http://www.w3.org/2000/svg"><g filter="url(#ffilter0_d_1708_3245)"><path d="M43.878 5.701L5.728 15.923l27.928 27.928L43.878 5.7z" stroke="#BCE000"/></g><defs><filter id="ffilter0_d_1708_3245" x=".763" y=".994" width="47.822" height="47.822" filterUnits="userSpaceOnUse" color-interpolation-filters="sRGB"><feFlood flood-opacity="0" result="BackgroundImageFix"/><feColorMatrix in="SourceAlpha" values="0 0 0 0 0 0 0 0 0 0 0 0 0 0 0 0 0 0 127 0" result="hardAlpha"/><feOffset/><feGaussianBlur stdDeviation="2"/><feColorMatrix values="0 0 0 0 0.737255 0 0 0 0 0.878431 0 0 0 0 0 0 0 0 1 0"/><feBlend in2="BackgroundImageFix" result="effect1_dropShadow_1708_3245"/><feBlend in="SourceGraphic" in2="effect1_dropShadow_1708_3245" result="shape"/></filter></defs></svg><svg fill="none" viewBox="0 0 31 32" id="kulich-img-2" xmlns="http://www.w3.org/2000/svg"><g filter="url(#gfilter0_d_1708_3222)"><path d="M25.057 4.58l.836-.225-.224.836-5.111 19.075-.224.837-.613-.613L5.758 10.527l-.613-.613.837-.224 19.075-5.11z" stroke="#F02B4F"/></g><defs><filter id="gfilter0_d_1708_3222" x=".18" y=".647" width="30.421" height="30.421" filterUnits="userSpaceOnUse" color-interpolation-filters="sRGB"><feFlood flood-opacity="0" result="BackgroundImageFix"/><feColorMatrix in="SourceAlpha" values="0 0 0 0 0 0 0 0 0 0 0 0 0 0 0 0 0 0 127 0" result="hardAlpha"/><feOffset dy="1"/><feGaussianBlur stdDeviation="2"/><feColorMatrix values="0 0 0 0 0.941667 0 0 0 0 0.168715 0 0 0 0 0.307846 0 0 0 1 0"/><feBlend in2="BackgroundImageFix" result="effect1_dropShadow_1708_3222"/><feBlend in="SourceGraphic" in2="effect1_dropShadow_1708_3222" result="shape"/></filter></defs></svg><svg fill="none" viewBox="0 0 26 26" id="kulich-img-3" xmlns="http://www.w3.org/2000/svg"><g filter="url(#hfilter0_d_1708_3235)"><mask id="ha" maskUnits="userSpaceOnUse" x="4.221" y="3.283" width="18" height="18" fill="#000"><path fill="#fff" d="M4.221 3.283h18v18h-18z"/><path fill-rule="evenodd" clip-rule="evenodd" d="M18.697 4.531a1 1 0 00-1.412.093l-4.54 5.183-5.183-4.541a1 1 0 00-1.411.093l-.682.778a1 1 0 00.093 1.411l5.183 4.541-4.542 5.184a1 1 0 00.093 1.412l.778.682a1 1 0 001.412-.094l4.541-5.183 5.184 4.541a1 1 0 001.411-.093l.682-.779a1 1 0 00-.093-1.41l-5.183-4.542 4.54-5.183a1 1 0 00-.093-1.41l-.779-.683z"/></mask><path d="M17.285 4.624l-.752-.659.752.66zm1.412-.093l.659-.752-.66.752zm-5.952 5.276l-.66.752.753.659.659-.752-.752-.66zM7.562 5.266l.659-.753-.66.753zm-1.411.093l-.752-.66.752.66zm-.682.778l-.753-.659.753.66zm.093 1.411l.659-.752-.66.752zm5.183 4.541l.752.66.659-.753-.752-.659-.66.752zm-4.542 5.184l.752.66-.752-.66zm.093 1.412l-.66.752.66-.752zm.778.682l.66-.753-.66.753zm1.412-.094l.752.66-.752-.66zm4.541-5.183l.66-.753-.753-.659-.659.753.752.659zm5.184 4.541l-.66.752.66-.752zm1.411-.093l.752.659-.752-.66zm.682-.779l-.752-.659.752.66zm-.093-1.41l-.659.751.659-.752zm-5.183-4.542l-.753-.66-.659.753.753.659.659-.752zm4.54-5.183l-.752-.659.752.66zm-.093-1.41l-.659.751.659-.752zm-1.438.07l1.319-1.505a2 2 0 00-2.823.186l1.505 1.318zm-4.54 5.182l4.54-5.183-1.504-1.318-4.54 5.183 1.504 1.318zM6.903 6.018l5.183 4.54 1.318-1.504-5.183-4.54-1.318 1.504zm0 0L8.22 4.513a2 2 0 00-2.822.187l1.504 1.318zm-.682.778l.682-.778L5.399 4.7l-.683.778 1.505 1.318zm0 0L4.716 5.478a2 2 0 00.187 2.823L6.22 6.796zm5.183 4.541L6.22 6.797 4.903 8.3l5.183 4.54 1.318-1.504zm-4.45 6.595l4.543-5.183-1.505-1.319-4.541 5.184 1.504 1.318zm0 0l-1.503-1.318a2 2 0 00.186 2.823l1.318-1.505zm.78.683l-.78-.683-1.317 1.505.778.682 1.318-1.505zm0 0l-1.319 1.504a2 2 0 002.823-.186l-1.505-1.319zm4.541-5.184l-4.542 5.184 1.505 1.318 4.542-5.184-1.505-1.318zm6.595 4.448l-5.184-4.542-1.318 1.505 5.184 4.541 1.318-1.504zm0 0l-1.318 1.504a2 2 0 002.822-.186l-1.504-1.318zm.682-.779l-.682.779 1.504 1.318.682-.779-1.504-1.318zm0 0l1.504 1.318a2 2 0 00-.186-2.822L19.552 17.1zm-5.183-4.541l5.183 4.541 1.318-1.504-5.183-4.541-1.318 1.504zm4.447-6.594l-4.54 5.183 1.504 1.318 4.54-5.183-1.504-1.318zm0 0l1.504 1.318a2 2 0 00-.186-2.822l-1.318 1.504zm-.778-.682l.778.682 1.318-1.504-.779-.682-1.317 1.504z" fill="#00C2FF" mask="url(#ha)"/></g><defs><filter id="hfilter0_d_1708_3235" x=".221" y=".283" width="25.331" height="25.331" filterUnits="userSpaceOnUse" color-interpolation-filters="sRGB"><feFlood flood-opacity="0" result="BackgroundImageFix"/><feColorMatrix in="SourceAlpha" values="0 0 0 0 0 0 0 0 0 0 0 0 0 0 0 0 0 0 127 0" result="hardAlpha"/><feOffset dy="1"/><feGaussianBlur stdDeviation="2"/><feColorMatrix values="0 0 0 0 0 0 0 0 0 0.76 0 0 0 0 1 0 0 0 1 0"/><feBlend in2="BackgroundImageFix" result="effect1_dropShadow_1708_3235"/><feBlend in="SourceGraphic" in2="effect1_dropShadow_1708_3235" result="shape"/></filter></defs></svg><svg fill="none" viewBox="0 0 29 29" id="kulich-img-4" xmlns="http://www.w3.org/2000/svg"><g filter="url(#ifilter0_d_1708_3238)"><mask id="ia" maskUnits="userSpaceOnUse" x="3.64" y="2.369" width="21" height="21" fill="#000"><path fill="#fff" d="M3.64 2.369h21v21h-21z"/><path fill-rule="evenodd" clip-rule="evenodd" d="M10.142 4.888a1 1 0 00-.497 1.324l2.854 6.272-6.273 2.855a1 1 0 00-.496 1.324l.428.942a1 1 0 001.325.496l6.273-2.854 2.854 6.273a1 1 0 001.325.496l.942-.429a1 1 0 00.496-1.324l-2.854-6.273 6.271-2.854a1 1 0 00.496-1.324l-.428-.942a1 1 0 00-1.325-.496l-6.271 2.853-2.854-6.272a1 1 0 00-1.324-.496l-.942.429z"/></mask><path d="M9.645 6.212l-.91.414.91-.414zm.497-1.324l-.415-.91.415.91zm2.357 7.596l.414.91.91-.414-.414-.91-.91.414zM6.226 15.34l.414.91-.414-.91zm-.496 1.324l.91-.414-.91.414zm.428.942l-.91.414.91-.414zm1.325.496l.414.91-.414-.91zm6.273-2.854l.91-.414-.414-.91-.91.414.414.91zm2.854 6.273l-.91.414.91-.414zm1.325.496l-.415-.91.415.91zm.942-.429l-.415-.91.415.91zm.496-1.324l.91-.414-.91.414zm-2.854-6.273l-.414-.91-.91.414.413.91.91-.414zm6.271-2.854l.414.91-.414-.91zm.496-1.324l.91-.414-.91.414zm-.428-.942l-.91.414.91-.414zm-1.325-.496l.414.91-.414-.91zm-6.271 2.853l-.91.415.414.91.91-.414-.414-.91zm-2.854-6.272l-.91.414.91-.414zm-1.324-.496l-.415-.91.415.91zm-.528 1.34v-.001l-.829-1.82a2 2 0 00-.992 2.648l1.82-.828zm2.853 6.271l-2.853-6.272-1.82.828 2.853 6.272 1.82-.828zM6.64 16.25l6.274-2.854-.828-1.82-6.273 2.853.828 1.82zm0 0l-.827-1.82a2 2 0 00-.993 2.648l1.82-.828zm.43.942l-.43-.942-1.82.828.43.942 1.82-.828zm0 0l-1.82.828a2 2 0 002.648.992l-.828-1.82zm6.273-2.854L7.069 17.19l.828 1.82 6.273-2.854-.828-1.82zm4.178 6.769l-2.854-6.273-1.82.828 2.854 6.273 1.82-.828zm0 0l-1.82.828a2 2 0 002.649.992l-.829-1.82zm.942-.43l-.942.43.829 1.82.942-.429-.829-1.82zm0 0l.829 1.821a2 2 0 00.992-2.648l-1.82.828zm-2.854-6.272l2.854 6.273 1.82-.828-2.853-6.273-1.82.828zm6.768-4.178l-6.271 2.854.828 1.82 6.271-2.853-.828-1.82zm0 0l.828 1.82a2 2 0 00.992-2.648l-1.82.828zm-.429-.942l.43.942 1.82-.828-.43-.942-1.82.828zm0 0l1.82-.828a2 2 0 00-2.648-.992l.828 1.82zm-6.271 2.854l6.271-2.854-.828-1.82-6.271 2.853.828 1.82zm-4.178-6.769l2.854 6.273 1.82-.829-2.854-6.272-1.82.828zm0 0l1.82-.828a2 2 0 00-2.649-.992l.829 1.82zm-.942.429l.942-.429-.829-1.82-.942.429.829 1.82z" fill="#ED9E10" mask="url(#ia)"/></g><defs><filter id="ifilter0_d_1708_3238" x=".64" y=".369" width="27.737" height="27.737" filterUnits="userSpaceOnUse" color-interpolation-filters="sRGB"><feFlood flood-opacity="0" result="BackgroundImageFix"/><feColorMatrix in="SourceAlpha" values="0 0 0 0 0 0 0 0 0 0 0 0 0 0 0 0 0 0 127 0" result="hardAlpha"/><feOffset dy="1"/><feGaussianBlur stdDeviation="2"/><feColorMatrix values="0 0 0 0 0.929167 0 0 0 0 0.620104 0 0 0 0 0.0619444 0 0 0 1 0"/><feBlend in2="BackgroundImageFix" result="effect1_dropShadow_1708_3238"/><feBlend in="SourceGraphic" in2="effect1_dropShadow_1708_3238" result="shape"/></filter></defs></svg><svg fill="none" viewBox="0 0 42 42" id="kulich-img-5" xmlns="http://www.w3.org/2000/svg"><g filter="url(#jfilter0_d_1708_3230)"><path d="M10.306 5.306a18.818 18.818 0 0026.612 26.612l-5.322-5.323a11.29 11.29 0 01-15.967-15.967l-5.323-5.322z" stroke="#BCE000"/></g><defs><filter id="jfilter0_d_1708_3230" x=".295" y=".599" width="41.33" height="41.33" filterUnits="userSpaceOnUse" color-interpolation-filters="sRGB"><feFlood flood-opacity="0" result="BackgroundImageFix"/><feColorMatrix in="SourceAlpha" values="0 0 0 0 0 0 0 0 0 0 0 0 0 0 0 0 0 0 127 0" result="hardAlpha"/><feOffset/><feGaussianBlur stdDeviation="2"/><feColorMatrix values="0 0 0 0 0.737255 0 0 0 0 0.878431 0 0 0 0 0 0 0 0 1 0"/><feBlend in2="BackgroundImageFix" result="effect1_dropShadow_1708_3230"/><feBlend in="SourceGraphic" in2="effect1_dropShadow_1708_3230" result="shape"/></filter></defs></svg><svg fill="none" viewBox="0 0 44 40" id="kulich-img-6" xmlns="http://www.w3.org/2000/svg"><g filter="url(#kfilter0_d_1708_3252)"><path d="M12.716 4.74a2.5 2.5 0 012.178-1.228l14.524.152a2.5 2.5 0 012.152 1.272l7.131 12.655a2.5 2.5 0 01-.026 2.5l-7.393 12.502a2.5 2.5 0 01-2.178 1.227l-14.525-.151a2.5 2.5 0 01-2.152-1.273l-7.13-12.654a2.5 2.5 0 01.026-2.5L12.716 4.74z" stroke="#F02B4F"/></g><defs><filter id="kfilter0_d_1708_3252" x=".475" y=".012" width="43.049" height="39.309" filterUnits="userSpaceOnUse" color-interpolation-filters="sRGB"><feFlood flood-opacity="0" result="BackgroundImageFix"/><feColorMatrix in="SourceAlpha" values="0 0 0 0 0 0 0 0 0 0 0 0 0 0 0 0 0 0 127 0" result="hardAlpha"/><feOffset dy="1"/><feGaussianBlur stdDeviation="2"/><feColorMatrix values="0 0 0 0 0.941667 0 0 0 0 0.168715 0 0 0 0 0.307846 0 0 0 1 0"/><feBlend in2="BackgroundImageFix" result="effect1_dropShadow_1708_3252"/><feBlend in="SourceGraphic" in2="effect1_dropShadow_1708_3252" result="shape"/></filter></defs></svg><svg fill="none" viewBox="0 0 53 59" id="kulich-img-7" xmlns="http://www.w3.org/2000/svg"><g filter="url(#lfilter0_d_1708_3244)"><path d="M6.054 5.081l.028-.866.736.457 39.494 24.506.736.456-.763.41-40.97 21.95-.764.409.028-.866L6.054 5.081z" stroke="#00C2FF"/></g><defs><filter id="lfilter0_d_1708_3244" x=".024" y=".334" width="52.023" height="57.919" filterUnits="userSpaceOnUse" color-interpolation-filters="sRGB"><feFlood flood-opacity="0" result="BackgroundImageFix"/><feColorMatrix in="SourceAlpha" values="0 0 0 0 0 0 0 0 0 0 0 0 0 0 0 0 0 0 127 0" result="hardAlpha"/><feOffset dy="1"/><feGaussianBlur stdDeviation="2"/><feColorMatrix values="0 0 0 0 0 0 0 0 0 0.76 0 0 0 0 1 0 0 0 1 0"/><feBlend in2="BackgroundImageFix" result="effect1_dropShadow_1708_3244"/><feBlend in="SourceGraphic" in2="effect1_dropShadow_1708_3244" result="shape"/></filter></defs></svg><svg fill="none" viewBox="0 0 35 48" id="kulich-img-8" xmlns="http://www.w3.org/2000/svg"><g filter="url(#mfilter0_d_1708_3229)"><mask id="ma" maskUnits="userSpaceOnUse" x="4.247" y="-1.191" width="30.637" height="44.072" fill="#000"><path fill="#fff" d="M4.247-1.191h30.637v44.072H4.247z"/><path d="M15.389 41.257A18.818 18.818 0 005.648 4.905l1.948 7.27a11.29 11.29 0 015.845 21.811l1.948 7.271z"/></mask><path d="M15.389 41.257A18.818 18.818 0 005.648 4.905l1.948 7.27a11.29 11.29 0 015.845 21.811l1.948 7.271z" stroke="#ED9E10" stroke-width="2" mask="url(#ma)"/></g><defs><filter id="mfilter0_d_1708_3229" x=".423" y=".264" width="33.913" height="47.218" filterUnits="userSpaceOnUse" color-interpolation-filters="sRGB"><feFlood flood-opacity="0" result="BackgroundImageFix"/><feColorMatrix in="SourceAlpha" values="0 0 0 0 0 0 0 0 0 0 0 0 0 0 0 0 0 0 127 0" result="hardAlpha"/><feOffset dy="1"/><feGaussianBlur stdDeviation="2"/><feColorMatrix values="0 0 0 0 0.929167 0 0 0 0 0.620104 0 0 0 0 0.0619444 0 0 0 1 0"/><feBlend in2="BackgroundImageFix" result="effect1_dropShadow_1708_3229"/><feBlend in="SourceGraphic" in2="effect1_dropShadow_1708_3229" result="shape"/></filter></defs></svg><svg fill="none" viewBox="0 0 44 40" id="kulich-img-9" xmlns="http://www.w3.org/2000/svg"><g filter="url(#nfilter0_d_1708_3254)"><path d="M12.649 5.004a2.5 2.5 0 012.178-1.227l14.524.151a2.5 2.5 0 012.152 1.273l7.13 12.654a2.5 2.5 0 01-.025 2.5l-7.394 12.503a2.5 2.5 0 01-2.178 1.227l-14.524-.151a2.5 2.5 0 01-2.152-1.273L5.229 20.007a2.5 2.5 0 01.026-2.5L12.65 5.004z" stroke="#00C2FF"/></g><defs><filter id="nfilter0_d_1708_3254" x=".407" y=".276" width="43.049" height="39.309" filterUnits="userSpaceOnUse" color-interpolation-filters="sRGB"><feFlood flood-opacity="0" result="BackgroundImageFix"/><feColorMatrix in="SourceAlpha" values="0 0 0 0 0 0 0 0 0 0 0 0 0 0 0 0 0 0 127 0" result="hardAlpha"/><feOffset dy="1"/><feGaussianBlur stdDeviation="2"/><feColorMatrix values="0 0 0 0 0 0 0 0 0 0.76 0 0 0 0 1 0 0 0 1 0"/><feBlend in2="BackgroundImageFix" result="effect1_dropShadow_1708_3254"/><feBlend in="SourceGraphic" in2="effect1_dropShadow_1708_3254" result="shape"/></filter></defs></svg></svg>