<svg width="168" height="45" viewBox="0 0 168 45" fill="none" xmlns="http://www.w3.org/2000/svg">
<path d="M52.0713 30.3574V12.5225H55.3854V30.3574H52.0713ZM61.1133 30.3574L57.5334 22.4559L60.6245 21.1741L65.2076 30.3574H61.1133ZM74.0652 30.6105C71.7629 30.6105 69.9837 30.0102 68.7274 28.8183C67.4714 27.6264 66.841 25.9116 66.841 23.6736C66.841 21.4998 67.3769 19.8063 68.4445 18.6017C69.5122 17.397 71.017 16.7924 72.959 16.7924C74.854 16.7924 76.3202 17.3499 77.362 18.4646C78.4038 19.5748 78.927 21.1954 78.927 23.3221C78.927 23.9264 78.8969 24.5009 78.8371 25.0454H72.7825V22.6832H75.5828C75.5828 21.7872 75.3556 21.1012 74.9011 20.6211C74.4426 20.1451 73.8036 19.905 72.9848 19.905C72.0889 19.905 71.3986 20.2222 70.914 20.8569C70.4251 21.487 70.1851 22.3873 70.1851 23.5491C70.1851 24.8054 70.5454 25.7615 71.2698 26.4132C71.9944 27.0649 73.0277 27.3949 74.3654 27.3949C74.9782 27.3949 75.5743 27.3605 76.1573 27.3007C76.7361 27.2362 77.3365 27.1506 77.945 27.0433L78.271 30.2586C77.4179 30.4087 76.6374 30.5032 75.9343 30.5461C75.2313 30.5889 74.6097 30.6105 74.0652 30.6105ZM81.2764 36.3852L81.1522 33.4357L83.45 33.1826C84.2348 33.0927 84.912 32.8825 85.4695 32.5568C86.0309 32.2311 86.5113 31.7422 86.9099 31.0905C87.3085 30.4431 87.6515 29.5942 87.9475 28.5482L91.1628 17.0455H94.7643L91.0215 29.1783C90.5199 30.7776 89.9411 32.0637 89.2894 33.0368C88.6377 34.0145 87.8618 34.7434 86.9655 35.2234C86.0695 35.708 84.9976 36.0082 83.7502 36.1367L81.2764 36.3852Z" fill="white"/>
<path fill-rule="evenodd" clip-rule="evenodd" d="M60.5804 15.7807C60.3061 16.831 59.8859 17.7743 59.3241 18.6147C58.7584 19.4505 58.0423 20.115 57.1764 20.6123C56.9403 20.746 56.6928 20.8615 56.4336 20.959V24.3815C57.0282 24.2333 57.593 24.0303 58.1283 23.7715L60.9162 21.7611C61.1544 21.515 61.381 21.2552 61.5964 20.9812C62.497 19.8364 63.1784 18.5375 63.6502 17.0798C64.1175 15.622 64.3533 14.1045 64.3533 12.5225H60.9879C60.9879 13.6457 60.8505 14.7303 60.5804 15.7807Z" fill="white"/>
<path fill-rule="evenodd" clip-rule="evenodd" d="M71.3102 25.0439H78.3064V22.6816C74.1701 22.6816 78.0536 22.6816 71.1471 22.6816C71.1134 22.952 71.0967 23.2407 71.0967 23.5475C71.0967 24.1057 71.1678 24.6045 71.3102 25.0439Z" fill="white"/>
<path fill-rule="evenodd" clip-rule="evenodd" d="M81.0244 17.0459L85.4961 30.3578H86.0846C86.3231 29.841 86.5382 29.2377 86.7332 28.5486L87.4572 25.9591L84.6302 17.0459H81.0244Z" fill="white"/>
<path d="M132.24 30.8825C129.967 30.8825 128.218 30.2822 126.983 29.0903C125.744 27.8984 125.127 26.1836 125.127 23.9457C125.127 21.7718 125.714 20.0784 126.881 18.8737C128.051 17.6691 129.719 17.0645 131.888 17.0645C133.183 17.0645 134.297 17.3045 135.219 17.7848C136.145 18.2694 136.806 18.9466 137.2 19.8256L135.151 21.3732C134.773 20.7601 134.293 20.2886 133.706 19.9541C133.123 19.6199 132.48 19.4525 131.785 19.4525C130.529 19.4525 129.556 19.8298 128.861 20.5888C128.162 21.3432 127.815 22.4236 127.815 23.8211C127.815 25.339 128.227 26.4966 129.041 27.2941C129.856 28.0956 131.022 28.4945 132.54 28.4945C132.54 28.4945 133.508 28.4681 133.471 28.4723L134.079 30.809C134.079 30.809 133.653 30.8825 132.24 30.8825Z" fill="white"/>
<path d="M103.933 30.8829C102.921 30.8829 101.974 30.8012 101.091 30.6341C100.207 30.4712 99.3885 30.227 98.6338 29.901L98.9595 27.3628C99.8813 27.7575 100.769 28.0574 101.631 28.2634C102.488 28.4691 103.324 28.5721 104.135 28.5721C105.309 28.5721 106.18 28.3661 106.749 27.9547C107.315 27.543 107.603 26.9214 107.603 26.081C107.603 25.0176 107.058 24.2417 105.969 23.7489L102.878 22.3382C101.665 21.7853 100.734 21.1205 100.083 20.3446C99.4356 19.5643 99.1096 18.5955 99.1096 17.4422C99.1096 15.886 99.5814 14.6768 100.516 13.8236C101.455 12.9705 102.784 12.5418 104.499 12.5418C105.695 12.5418 106.754 12.7177 107.676 13.0692C108.597 13.4208 109.485 13.9953 110.338 14.7925L108.58 16.5763C107.843 15.9717 107.157 15.5345 106.514 15.2644C105.875 14.9897 105.206 14.8527 104.512 14.8527C103.65 14.8527 102.981 15.0626 102.51 15.4743C102.034 15.8902 101.798 16.5033 101.798 17.3179C101.798 17.8924 101.952 18.364 102.265 18.7282C102.574 19.0928 103.028 19.4185 103.633 19.7017L106.244 20.9321C107.569 21.5538 108.572 22.2526 109.258 23.0328C109.948 23.8087 110.291 24.812 110.291 26.0339C110.291 27.6503 109.764 28.8592 108.713 29.6694C107.663 30.4755 106.068 30.8829 103.933 30.8829ZM120.515 30.8829C118.5 30.8829 117.038 30.4627 116.137 29.6266C115.237 28.7862 114.787 27.4488 114.787 25.6052V23.3457H117.449V25.4807C117.449 26.5356 117.711 27.303 118.225 27.7788C118.74 28.2546 119.589 28.4949 120.768 28.4949C121.188 28.4949 121.629 28.4733 122.097 28.4262C122.568 28.3791 123.104 28.319 123.705 28.2418L124.009 30.5785C123.421 30.6812 122.851 30.7541 122.294 30.8057C121.737 30.8571 121.145 30.8829 120.515 30.8829ZM114.787 24.3489V13.2965H117.449V24.3489H114.787ZM112.359 19.65V17.3179H123.204V19.65H112.359ZM148.016 30.8829C145.744 30.8829 143.994 30.2826 142.76 29.0907C141.521 27.8988 140.903 26.184 140.903 23.9461C140.903 21.7722 141.491 20.0787 142.657 18.8741C143.827 17.6694 145.495 17.0648 147.665 17.0648C148.959 17.0648 150.074 17.3048 150.996 17.7852C151.922 18.2698 152.582 18.947 152.976 19.8259L150.927 21.3736C150.55 20.7605 150.07 20.289 149.482 19.9545C148.899 19.6202 148.256 19.4528 147.562 19.4528C146.305 19.4528 145.332 19.8302 144.638 20.5892C143.939 21.3435 143.591 22.4239 143.591 23.8215C143.591 25.3394 144.003 26.4969 144.818 27.2945C145.632 28.096 146.798 28.4949 148.316 28.4949C148.933 28.4949 149.555 28.4648 150.177 28.4046C150.794 28.349 151.399 28.2676 151.982 28.1689L152.286 30.5055C151.6 30.6556 150.888 30.7541 150.155 30.8057C149.422 30.8571 148.711 30.8829 148.016 30.8829ZM159.379 25.5794V23.1956H159.065C160.172 23.1956 161.076 23.0027 161.792 22.6211C162.504 22.2395 163.061 21.6179 163.468 20.7563C163.872 19.8946 164.171 18.7498 164.364 17.3179H167.13C166.778 20.0875 165.99 22.1581 164.759 23.5259C163.533 24.8976 161.844 25.5794 159.691 25.5794H159.379ZM155.674 30.6299V11.7871H158.337V30.6299H155.674ZM164.69 30.6299L160.901 24.1475L163.409 23.1185L167.983 30.6299H164.69Z" fill="white"/>
<path d="M135.839 18.1564C137.213 19.1894 138.154 20.4123 138.304 23.0385C138.417 25.2576 138.344 30.8279 138.344 30.8279L135.757 30.8361C135.757 30.8361 135.761 25.3731 135.651 23.4876C135.699 21.7679 134.966 20.8713 134.013 20.1883C131.067 17.776 135.697 18.0506 135.839 18.1564Z" fill="white"/>
<path d="M23.012 18.7909C22.5897 19.002 22.0926 19.002 21.6703 18.7909L6.5407 11.2261C5.43513 10.6733 5.43513 9.09559 6.5407 8.5428L21.6703 0.977988C22.0926 0.766842 22.5897 0.766843 23.012 0.977988L38.1416 8.5428C39.2472 9.09559 39.2472 10.6733 38.1416 11.2261L23.012 18.7909ZM12.9565 8.5428C11.851 9.09559 11.851 10.6733 12.9565 11.2261L21.6703 15.583C22.0926 15.7941 22.5897 15.7941 23.012 15.583L31.7258 11.2261C32.8313 10.6733 32.8313 9.09559 31.7258 8.5428L23.012 4.18591C22.5897 3.97476 22.0926 3.97476 21.6703 4.18591L12.9565 8.5428Z" fill="#F02B4F"/>
<path d="M35.127 14.3042C34.7231 14.1022 34.2477 14.1022 33.8438 14.3042L32.8433 14.8045C32.1981 15.127 32.1981 16.0477 32.8433 16.3702C33.4884 16.6928 33.4884 17.6135 32.8433 17.936L23.012 22.8517C22.5897 23.0628 22.0926 23.0628 21.6703 22.8517L11.839 17.936C11.1939 17.6135 11.1939 16.6928 11.839 16.3702C12.4842 16.0477 12.4842 15.127 11.839 14.8045L10.8385 14.3042C10.4346 14.1022 9.95918 14.1022 9.5553 14.3042L6.5407 15.8115C5.43513 16.3643 5.43513 17.942 6.5407 18.4948L21.6703 26.0596C22.0926 26.2707 22.5897 26.2707 23.012 26.0596L38.1416 18.4948C39.2472 17.942 39.2472 16.3643 38.1416 15.8115L35.127 14.3042Z" fill="#ED9E10"/>
<path d="M35.127 22.1772C34.7231 21.9753 34.2477 21.9753 33.8438 22.1772L32.8433 22.6775C32.1981 23.0001 32.1981 23.9207 32.8433 24.2433C33.4884 24.5659 33.4884 25.4865 32.8433 25.8091L23.012 30.7247C22.5897 30.9359 22.0926 30.9359 21.6703 30.7247L11.839 25.8091C11.1939 25.4865 11.1939 24.5659 11.839 24.2433C12.4842 23.9207 12.4842 23.0001 11.839 22.6775L10.8385 22.1772C10.4346 21.9753 9.95918 21.9753 9.5553 22.1772L6.5407 23.6845C5.43513 24.2373 5.43513 25.815 6.5407 26.3678L21.6703 33.9326C22.0926 34.1438 22.5897 34.1438 23.012 33.9326L38.1416 26.3678C39.2472 25.815 39.2472 24.2373 38.1416 23.6845L35.127 22.1772Z" fill="#BCE000"/>
<path d="M35.127 30.1274C34.7231 29.9255 34.2477 29.9255 33.8438 30.1274L32.8433 30.6277C32.1981 30.9503 32.1981 31.8709 32.8433 32.1935C33.4884 32.5161 33.4884 33.4367 32.8433 33.7593L23.012 38.6749C22.5897 38.8861 22.0926 38.8861 21.6703 38.6749L11.839 33.7593C11.1939 33.4367 11.1939 32.5161 11.839 32.1935C12.4842 31.8709 12.4842 30.9503 11.839 30.6277L10.8385 30.1274C10.4346 29.9255 9.95918 29.9255 9.5553 30.1274L6.5407 31.6347C5.43513 32.1875 5.43513 33.7652 6.5407 34.318L21.6703 41.8828C22.0926 42.094 22.5897 42.094 23.012 41.8828L38.1416 34.318C39.2472 33.7652 39.2472 32.1875 38.1416 31.6347L35.127 30.1274Z" fill="#00C2FF"/>
</svg>
