<svg width="74" height="110" viewBox="0 0 74 110" fill="none" xmlns="http://www.w3.org/2000/svg">
<path opacity="0.5" d="M71.45 109.45H71.95V108.95V92.3V91.8H71.45H29.1571L52.0036 68.9536L52.0079 68.9491C63.946 56.7101 70 45.1905 70 34.4C70 24.3764 66.6526 16.3339 59.9332 10.3272L59.9329 10.3269C53.3348 4.43936 45.3138 1.5 35.9 1.5C28.4132 1.5 21.6224 3.37276 15.5401 7.12282C9.44809 10.7788 4.78422 16.1081 1.54641 23.0896L1.35552 23.5012L1.74668 23.7311L16.2967 32.2811L16.7644 32.5559L17.0003 32.0674C19.0706 27.7789 21.6927 24.5931 24.8531 22.478C28.0108 20.3648 31.7362 19.3 36.05 19.3C40.7414 19.3 44.5098 20.7133 47.4025 23.5095C50.286 26.2969 51.75 30.1066 51.75 35C51.75 41.2879 47.4301 48.8628 38.5464 57.7464L38.5429 57.7501L1.94288 95.1001L1.8 95.2459V95.45V108.95V109.45H2.3H71.45Z" stroke="url(#paint0_linear_1942_2717)"/>
<defs>
<linearGradient id="paint0_linear_1942_2717" x1="41.1684" y1="79.4752" x2="-28.7297" y2="-4.8941" gradientUnits="userSpaceOnUse">
<stop stop-color="white" stop-opacity="0.28"/>
<stop offset="1" stop-color="white" stop-opacity="0.92"/>
</linearGradient>
</defs>
</svg>
