<svg width="26" height="26" viewBox="0 0 26 26" fill="none" xmlns="http://www.w3.org/2000/svg">
<g filter="url(#filter0_d_1708_3235)">
<mask id="path-1-outside-1_1708_3235" maskUnits="userSpaceOnUse" x="4.2207" y="3.2832" width="18" height="18" fill="black">
<rect fill="white" x="4.2207" y="3.2832" width="18" height="18"/>
<path fill-rule="evenodd" clip-rule="evenodd" d="M18.6965 4.53107C18.2811 4.16712 17.6493 4.20882 17.2853 4.62422L12.7447 9.80664L7.56182 5.2656C7.14642 4.90165 6.51463 4.94335 6.15068 5.35875L5.46857 6.13728C5.10462 6.55268 5.14632 7.18447 5.56172 7.54842L10.7446 12.0895L6.2027 17.2734C5.83875 17.6888 5.88046 18.3206 6.29586 18.6846L7.07438 19.3667C7.48978 19.7306 8.12157 19.6889 8.48552 19.2735L13.0275 14.0896L18.2109 18.6311C18.6263 18.995 19.2581 18.9533 19.6221 18.5379L20.3042 17.7594C20.6681 17.344 20.6264 16.7122 20.211 16.3482L15.0276 11.8067L19.5682 6.62432C19.9321 6.20892 19.8904 5.57713 19.475 5.21318L18.6965 4.53107Z"/>
</mask>
<path d="M17.2853 4.62422L16.5332 3.96523V3.96523L17.2853 4.62422ZM18.6965 4.53107L19.3555 3.77892L19.3555 3.77892L18.6965 4.53107ZM12.7447 9.80664L12.0857 10.5588L12.8379 11.2178L13.4969 10.4656L12.7447 9.80664ZM7.56182 5.2656L8.22082 4.51346V4.51346L7.56182 5.2656ZM6.15068 5.35875L5.39853 4.69976L5.39853 4.69976L6.15068 5.35875ZM5.46857 6.13728L4.71642 5.47828L5.46857 6.13728ZM5.56172 7.54842L6.22072 6.79628H6.22072L5.56172 7.54842ZM10.7446 12.0895L11.4968 12.7485L12.1558 11.9963L11.4036 11.3373L10.7446 12.0895ZM6.2027 17.2734L6.95485 17.9324H6.95485L6.2027 17.2734ZM6.29586 18.6846L5.63686 19.4367L5.63686 19.4367L6.29586 18.6846ZM7.07438 19.3667L7.73338 18.6145H7.73338L7.07438 19.3667ZM8.48552 19.2735L9.23767 19.9325H9.23767L8.48552 19.2735ZM13.0275 14.0896L13.6865 13.3374L12.9343 12.6784L12.2753 13.4306L13.0275 14.0896ZM18.2109 18.6311L17.5519 19.3832V19.3832L18.2109 18.6311ZM19.6221 18.5379L20.3742 19.1969L19.6221 18.5379ZM20.3042 17.7594L19.552 17.1004L19.552 17.1004L20.3042 17.7594ZM20.211 16.3482L19.552 17.1004V17.1004L20.211 16.3482ZM15.0276 11.8067L14.2754 11.1477L13.6164 11.8999L14.3686 12.5589L15.0276 11.8067ZM19.5682 6.62432L18.816 5.96533V5.96533L19.5682 6.62432ZM19.475 5.21318L18.816 5.96533L18.816 5.96533L19.475 5.21318ZM18.0375 5.28322L18.0375 5.28322L19.3555 3.77892C18.5247 3.05102 17.2611 3.13443 16.5332 3.96523L18.0375 5.28322ZM13.4969 10.4656L18.0375 5.28322L16.5332 3.96523L11.9926 9.14764L13.4969 10.4656ZM6.90283 6.01775L12.0857 10.5588L13.4037 9.05449L8.22082 4.51346L6.90283 6.01775ZM6.90283 6.01775L6.90283 6.01775L8.22082 4.51346C7.39002 3.78555 6.12644 3.86896 5.39853 4.69976L6.90283 6.01775ZM6.22072 6.79628L6.90283 6.01775L5.39853 4.69976L4.71642 5.47828L6.22072 6.79628ZM6.22072 6.79628L6.22072 6.79628L4.71642 5.47828C3.98852 6.30908 4.07193 7.57266 4.90273 8.30057L6.22072 6.79628ZM11.4036 11.3373L6.22072 6.79628L4.90273 8.30057L10.0856 12.8416L11.4036 11.3373ZM6.95485 17.9324L11.4968 12.7485L9.9925 11.4305L5.45056 16.6144L6.95485 17.9324ZM6.95485 17.9324H6.95485L5.45056 16.6144C4.72265 17.4452 4.80606 18.7088 5.63686 19.4367L6.95485 17.9324ZM7.73338 18.6145L6.95485 17.9324L5.63686 19.4367L6.41539 20.1188L7.73338 18.6145ZM7.73338 18.6145L7.73338 18.6145L6.41539 20.1188C7.24619 20.8467 8.50977 20.7633 9.23767 19.9325L7.73338 18.6145ZM12.2753 13.4306L7.73338 18.6145L9.23767 19.9325L13.7796 14.7486L12.2753 13.4306ZM18.8699 17.8789L13.6865 13.3374L12.3685 14.8417L17.5519 19.3832L18.8699 17.8789ZM18.8699 17.8789H18.8699L17.5519 19.3832C18.3827 20.1111 19.6463 20.0277 20.3742 19.1969L18.8699 17.8789ZM19.552 17.1004L18.8699 17.8789L20.3742 19.1969L21.0563 18.4184L19.552 17.1004ZM19.552 17.1004L19.552 17.1004L21.0563 18.4184C21.7842 17.5876 21.7008 16.324 20.87 15.5961L19.552 17.1004ZM14.3686 12.5589L19.552 17.1004L20.87 15.5961L15.6866 11.0546L14.3686 12.5589ZM18.816 5.96533L14.2754 11.1477L15.7797 12.4657L20.3203 7.28332L18.816 5.96533ZM18.816 5.96533V5.96533L20.3203 7.28332C21.0482 6.45252 20.9648 5.18894 20.134 4.46103L18.816 5.96533ZM18.0375 5.28322L18.816 5.96533L20.134 4.46103L19.3555 3.77892L18.0375 5.28322Z" fill="#00C2FF" mask="url(#path-1-outside-1_1708_3235)"/>
</g>
<defs>
<filter id="filter0_d_1708_3235" x="0.220703" y="0.283203" width="25.3311" height="25.3311" filterUnits="userSpaceOnUse" color-interpolation-filters="sRGB">
<feFlood flood-opacity="0" result="BackgroundImageFix"/>
<feColorMatrix in="SourceAlpha" type="matrix" values="0 0 0 0 0 0 0 0 0 0 0 0 0 0 0 0 0 0 127 0" result="hardAlpha"/>
<feOffset dy="1"/>
<feGaussianBlur stdDeviation="2"/>
<feColorMatrix type="matrix" values="0 0 0 0 0 0 0 0 0 0.76 0 0 0 0 1 0 0 0 1 0"/>
<feBlend mode="normal" in2="BackgroundImageFix" result="effect1_dropShadow_1708_3235"/>
<feBlend mode="normal" in="SourceGraphic" in2="effect1_dropShadow_1708_3235" result="shape"/>
</filter>
</defs>
</svg>
