<svg width="42" height="42" viewBox="0 0 42 42" fill="none" xmlns="http://www.w3.org/2000/svg">
<g filter="url(#filter0_d_1708_3230)">
<path d="M10.3063 5.30578C6.77739 8.83473 4.79484 13.621 4.79484 18.6117C4.79484 23.6024 6.77739 28.3887 10.3063 31.9177C13.8353 35.4466 18.6216 37.4292 23.6123 37.4292C28.603 37.4292 33.3893 35.4466 36.9183 31.9177L31.5959 26.5953C29.4785 28.7127 26.6067 29.9022 23.6123 29.9022C20.6179 29.9022 17.7461 28.7127 15.6287 26.5953C13.5114 24.4779 12.3218 21.6061 12.3218 18.6117C12.3218 15.6173 13.5114 12.7455 15.6287 10.6282L10.3063 5.30578Z" stroke="#BCE000"/>
</g>
<defs>
<filter id="filter0_d_1708_3230" x="0.294922" y="0.598633" width="41.3301" height="41.3301" filterUnits="userSpaceOnUse" color-interpolation-filters="sRGB">
<feFlood flood-opacity="0" result="BackgroundImageFix"/>
<feColorMatrix in="SourceAlpha" type="matrix" values="0 0 0 0 0 0 0 0 0 0 0 0 0 0 0 0 0 0 127 0" result="hardAlpha"/>
<feOffset/>
<feGaussianBlur stdDeviation="2"/>
<feColorMatrix type="matrix" values="0 0 0 0 0.737255 0 0 0 0 0.878431 0 0 0 0 0 0 0 0 1 0"/>
<feBlend mode="normal" in2="BackgroundImageFix" result="effect1_dropShadow_1708_3230"/>
<feBlend mode="normal" in="SourceGraphic" in2="effect1_dropShadow_1708_3230" result="shape"/>
</filter>
</defs>
</svg>
