<svg width="29" height="29" viewBox="0 0 29 29" fill="none" xmlns="http://www.w3.org/2000/svg">
<g filter="url(#filter0_d_1708_3238)">
<mask id="path-1-outside-1_1708_3238" maskUnits="userSpaceOnUse" x="3.63965" y="2.36914" width="21" height="21" fill="black">
<rect fill="white" x="3.63965" y="2.36914" width="21" height="21"/>
<path fill-rule="evenodd" clip-rule="evenodd" d="M10.1415 4.88783C9.63879 5.11655 9.41669 5.70948 9.64541 6.21218L12.4991 12.4843L6.22576 15.3386C5.72306 15.5673 5.50096 16.1603 5.72968 16.663L6.15834 17.6051C6.38706 18.1078 6.97999 18.3299 7.48269 18.1012L13.7561 15.2469L16.6101 21.5197C16.8388 22.0224 17.4318 22.2445 17.9345 22.0158L18.8766 21.5871C19.3793 21.3584 19.6014 20.7655 19.3727 20.2628L16.5186 13.99L22.7902 11.1365C23.2929 10.9078 23.515 10.3149 23.2863 9.81216L22.8576 8.87002C22.6289 8.36732 22.036 8.14522 21.5333 8.37394L15.2617 11.2274L12.408 4.95525C12.1793 4.45255 11.5863 4.23045 11.0836 4.45917L10.1415 4.88783Z"/>
</mask>
<path d="M9.64541 6.21218L8.7352 6.62631V6.62632L9.64541 6.21218ZM10.1415 4.88783L9.72736 3.97761L9.72736 3.97761L10.1415 4.88783ZM12.4991 12.4843L12.9133 13.3945L13.8235 12.9804L13.4094 12.0702L12.4991 12.4843ZM6.22576 15.3386L6.63989 16.2488L6.63989 16.2488L6.22576 15.3386ZM5.72968 16.663L6.63989 16.2488L6.63989 16.2488L5.72968 16.663ZM6.15834 17.6051L5.24812 18.0193L5.24812 18.0193L6.15834 17.6051ZM7.48269 18.1012L7.89682 19.0114L7.89682 19.0114L7.48269 18.1012ZM13.7561 15.2469L14.6663 14.8328L14.2522 13.9226L13.3419 14.3367L13.7561 15.2469ZM16.6101 21.5197L15.6999 21.9338L16.6101 21.5197ZM17.9345 22.0158L17.5203 21.1056H17.5203L17.9345 22.0158ZM18.8766 21.5871L18.4625 20.6769H18.4625L18.8766 21.5871ZM19.3727 20.2628L20.2829 19.8486V19.8486L19.3727 20.2628ZM16.5186 13.99L16.1045 13.0798L15.1943 13.4939L15.6084 14.4041L16.5186 13.99ZM22.7902 11.1365L23.2043 12.0467L22.7902 11.1365ZM23.2863 9.81216L24.1965 9.39802L24.1965 9.39802L23.2863 9.81216ZM22.8576 8.87002L21.9474 9.28415V9.28415L22.8576 8.87002ZM21.5333 8.37394L21.9474 9.28415V9.28415L21.5333 8.37394ZM15.2617 11.2274L14.3515 11.6415L14.7656 12.5518L15.6759 12.1376L15.2617 11.2274ZM12.408 4.95525L11.4978 5.36938V5.36939L12.408 4.95525ZM11.0836 4.45917L10.6695 3.54895V3.54895L11.0836 4.45917ZM10.5556 5.79805L10.5556 5.79804L9.72736 3.97761C8.72196 4.43505 8.27776 5.62092 8.7352 6.62631L10.5556 5.79805ZM13.4094 12.0702L10.5556 5.79805L8.7352 6.62632L11.5889 12.8985L13.4094 12.0702ZM6.63989 16.2488L12.9133 13.3945L12.085 11.5741L5.81162 14.4284L6.63989 16.2488ZM6.63989 16.2488L6.63989 16.2488L5.81162 14.4284C4.80623 14.8859 4.36202 16.0717 4.81946 17.0771L6.63989 16.2488ZM7.06855 17.191L6.63989 16.2488L4.81946 17.0771L5.24812 18.0193L7.06855 17.191ZM7.06855 17.191L7.06855 17.191L5.24812 18.0193C5.70556 19.0247 6.89143 19.4689 7.89682 19.0114L7.06855 17.191ZM13.3419 14.3367L7.06855 17.191L7.89682 19.0114L14.1702 16.1571L13.3419 14.3367ZM17.5203 21.1056L14.6663 14.8328L12.8459 15.661L15.6999 21.9338L17.5203 21.1056ZM17.5203 21.1056H17.5203L15.6999 21.9338C16.1573 22.9392 17.3432 23.3834 18.3486 22.926L17.5203 21.1056ZM18.4625 20.6769L17.5203 21.1056L18.3486 22.926L19.2907 22.4973L18.4625 20.6769ZM18.4625 20.6769L18.4625 20.6769L19.2907 22.4973C20.2961 22.0399 20.7403 20.854 20.2829 19.8486L18.4625 20.6769ZM15.6084 14.4041L18.4625 20.6769L20.2829 19.8486L17.4289 13.5758L15.6084 14.4041ZM22.3761 10.2263L16.1045 13.0798L16.9328 14.9002L23.2043 12.0467L22.3761 10.2263ZM22.3761 10.2263V10.2263L23.2043 12.0467C24.2097 11.5893 24.6539 10.4034 24.1965 9.39802L22.3761 10.2263ZM21.9474 9.28415L22.3761 10.2263L24.1965 9.39802L23.7678 8.45588L21.9474 9.28415ZM21.9474 9.28415V9.28415L23.7678 8.45588C23.3104 7.45049 22.1245 7.00628 21.1191 7.46372L21.9474 9.28415ZM15.6759 12.1376L21.9474 9.28415L21.1191 7.46372L14.8476 10.3172L15.6759 12.1376ZM11.4978 5.36939L14.3515 11.6415L16.1719 10.8133L13.3182 4.54112L11.4978 5.36939ZM11.4978 5.36939L11.4978 5.36938L13.3182 4.54112C12.8608 3.53572 11.6749 3.09151 10.6695 3.54895L11.4978 5.36939ZM10.5556 5.79804L11.4978 5.36939L10.6695 3.54895L9.72736 3.97761L10.5556 5.79804Z" fill="#ED9E10" mask="url(#path-1-outside-1_1708_3238)"/>
</g>
<defs>
<filter id="filter0_d_1708_3238" x="0.639648" y="0.369141" width="27.7373" height="27.7373" filterUnits="userSpaceOnUse" color-interpolation-filters="sRGB">
<feFlood flood-opacity="0" result="BackgroundImageFix"/>
<feColorMatrix in="SourceAlpha" type="matrix" values="0 0 0 0 0 0 0 0 0 0 0 0 0 0 0 0 0 0 127 0" result="hardAlpha"/>
<feOffset dy="1"/>
<feGaussianBlur stdDeviation="2"/>
<feColorMatrix type="matrix" values="0 0 0 0 0.929167 0 0 0 0 0.620104 0 0 0 0 0.0619444 0 0 0 1 0"/>
<feBlend mode="normal" in2="BackgroundImageFix" result="effect1_dropShadow_1708_3238"/>
<feBlend mode="normal" in="SourceGraphic" in2="effect1_dropShadow_1708_3238" result="shape"/>
</filter>
</defs>
</svg>
