<svg width="21" height="21" viewBox="0 0 21 21" fill="none" xmlns="http://www.w3.org/2000/svg">
<path d="M8.89062 8.89071V9.39071H9.39062V8.89071H8.89062ZM8.89062 11.9258H9.39062V11.4258H8.89062V11.9258ZM11.9257 11.9258V11.4258H11.4257V11.9258H11.9257ZM11.9257 8.89071H11.4257V9.39071H11.9257V8.89071ZM9.39062 2C9.39062 1.72386 9.61448 1.5 9.89062 1.5V0.5C9.0622 0.5 8.39062 1.17157 8.39062 2H9.39062ZM9.39062 8.89071V2H8.39062V8.89071H9.39062ZM2 9.39071H8.89062V8.39071H2V9.39071ZM1.5 9.89071C1.5 9.61457 1.72386 9.39071 2 9.39071V8.39071C1.17157 8.39071 0.5 9.06229 0.5 9.89071H1.5ZM1.5 10.9258V9.89071H0.5V10.9258H1.5ZM2 11.4258C1.72386 11.4258 1.5 11.2019 1.5 10.9258H0.5C0.5 11.7542 1.17157 12.4258 2 12.4258V11.4258ZM8.89062 11.4258H2V12.4258H8.89062V11.4258ZM9.39062 18.8175V11.9258H8.39062V18.8175H9.39062ZM9.89062 19.3175C9.61448 19.3175 9.39062 19.0936 9.39062 18.8175H8.39062C8.39062 19.6459 9.0622 20.3175 9.89062 20.3175V19.3175ZM10.9257 19.3175H9.89062V20.3175H10.9257V19.3175ZM11.4257 18.8175C11.4257 19.0936 11.2018 19.3175 10.9257 19.3175V20.3175C11.7541 20.3175 12.4257 19.6459 12.4257 18.8175H11.4257ZM11.4257 11.9258V18.8175H12.4257V11.9258H11.4257ZM18.8175 11.4258H11.9257V12.4258H18.8175V11.4258ZM19.3175 10.9258C19.3175 11.2019 19.0936 11.4258 18.8175 11.4258V12.4258C19.6459 12.4258 20.3175 11.7542 20.3175 10.9258H19.3175ZM19.3175 9.89071V10.9258H20.3175V9.89071H19.3175ZM18.8175 9.39071C19.0936 9.39071 19.3175 9.61457 19.3175 9.89071H20.3175C20.3175 9.06229 19.6459 8.39071 18.8175 8.39071V9.39071ZM11.9257 9.39071H18.8175V8.39071H11.9257V9.39071ZM11.4257 2V8.89071H12.4257V2H11.4257ZM10.9257 1.5C11.2018 1.5 11.4257 1.72386 11.4257 2H12.4257C12.4257 1.17157 11.7541 0.5 10.9257 0.5V1.5ZM9.89062 1.5H10.9257V0.5H9.89062V1.5Z" fill="#BCE000"/>
</svg>
