<svg width="74" height="110" viewBox="0 0 74 110" fill="none" xmlns="http://www.w3.org/2000/svg">
<g clip-path="url(#clip0_1942_2720)">
<path opacity="0.5" d="M69.049 17.0014L69.15 16.8676V16.7V2V1.5H68.65H4.15H3.65V2V18.2V18.7H4.15H47.093L25.0517 47.7478L24.8366 48.0313L25.034 48.3274L31.934 58.6774L32.0824 58.9H32.35H36.25C42.1673 58.9 46.7896 60.3782 50.1746 63.2796C53.5488 66.1718 55.25 70.1251 55.25 75.2C55.25 80.2731 53.5497 84.2792 50.1718 87.2728C46.7871 90.1726 42.1657 91.65 36.25 91.65C31.0193 91.65 26.7597 90.5399 23.437 88.3571C20.1189 86.1774 17.6928 82.9002 16.1727 78.4872L15.9746 77.9119L15.4486 78.2178L0.748613 86.7678L0.380067 86.9822L0.533499 87.3799C3.27259 94.4813 7.8447 99.9696 14.2417 103.828L14.2468 103.831C20.6326 107.582 27.9721 109.45 36.25 109.45C46.7526 109.45 55.5723 106.418 62.6744 100.331C69.9011 94.2226 73.5 85.825 73.5 75.2C73.5 67.3911 71.1137 60.7711 66.3275 55.3721C61.798 50.0565 55.7497 46.4669 48.2094 44.5918L69.049 17.0014Z" stroke="url(#paint0_linear_1942_2720)"/>
</g>
<defs>
<linearGradient id="paint0_linear_1942_2720" x1="41.8565" y1="77.525" x2="-27.7009" y2="-8.53207" gradientUnits="userSpaceOnUse">
<stop stop-color="white" stop-opacity="0.28"/>
<stop offset="1" stop-color="white" stop-opacity="0.92"/>
</linearGradient>
<clipPath id="clip0_1942_2720">
<rect width="74" height="110" fill="white"/>
</clipPath>
</defs>
</svg>
