<svg width="35" height="48" viewBox="0 0 35 48" fill="none" xmlns="http://www.w3.org/2000/svg">
<g filter="url(#filter0_d_1708_3229)">
<mask id="path-1-outside-1_1708_3229" maskUnits="userSpaceOnUse" x="4.24688" y="-1.19057" width="30.6372" height="44.0722" fill="black">
<rect fill="white" x="4.24688" y="-1.19057" width="30.6372" height="44.0722"/>
<path d="M15.3886 41.257C20.2092 39.9653 24.3193 36.8116 26.8147 32.4895C29.31 28.1674 29.9862 23.0311 28.6945 18.2105C27.4028 13.3898 24.2491 9.27972 19.927 6.78437C15.6049 4.28902 10.4686 3.61281 5.64795 4.9045L7.59608 12.175C10.4885 11.4 13.5703 11.8057 16.1635 13.3029C18.7567 14.8001 20.649 17.2662 21.424 20.1586C22.199 23.051 21.7933 26.1328 20.2961 28.726C18.7989 31.3192 16.3328 33.2115 13.4405 33.9865L15.3886 41.257Z"/>
</mask>
<path d="M15.3886 41.257C20.2092 39.9653 24.3193 36.8116 26.8147 32.4895C29.31 28.1674 29.9862 23.0311 28.6945 18.2105C27.4028 13.3898 24.2491 9.27972 19.927 6.78437C15.6049 4.28902 10.4686 3.61281 5.64795 4.9045L7.59608 12.175C10.4885 11.4 13.5703 11.8057 16.1635 13.3029C18.7567 14.8001 20.649 17.2662 21.424 20.1586C22.199 23.051 21.7933 26.1328 20.2961 28.726C18.7989 31.3192 16.3328 33.2115 13.4405 33.9865L15.3886 41.257Z" stroke="#ED9E10" stroke-width="2" mask="url(#path-1-outside-1_1708_3229)"/>
</g>
<defs>
<filter id="filter0_d_1708_3229" x="0.422852" y="0.263672" width="33.9131" height="47.2178" filterUnits="userSpaceOnUse" color-interpolation-filters="sRGB">
<feFlood flood-opacity="0" result="BackgroundImageFix"/>
<feColorMatrix in="SourceAlpha" type="matrix" values="0 0 0 0 0 0 0 0 0 0 0 0 0 0 0 0 0 0 127 0" result="hardAlpha"/>
<feOffset dy="1"/>
<feGaussianBlur stdDeviation="2"/>
<feColorMatrix type="matrix" values="0 0 0 0 0.929167 0 0 0 0 0.620104 0 0 0 0 0.0619444 0 0 0 1 0"/>
<feBlend mode="normal" in2="BackgroundImageFix" result="effect1_dropShadow_1708_3229"/>
<feBlend mode="normal" in="SourceGraphic" in2="effect1_dropShadow_1708_3229" result="shape"/>
</filter>
</defs>
</svg>
