<svg width="801" height="907" viewBox="0 0 801 907" fill="none" xmlns="http://www.w3.org/2000/svg">
<g opacity="0.5">
<path d="M661.894 638.595C662.598 638.243 663.427 638.243 664.13 638.595L794.654 703.857C796.497 704.778 796.497 707.407 794.654 708.329L401.24 905.036C400.536 905.388 399.708 905.388 399.004 905.036L5.59016 708.329C3.74754 707.407 3.74754 704.778 5.59016 703.857L136.114 638.595C136.818 638.243 137.646 638.243 138.35 638.595L201.085 669.962C202.927 670.883 202.927 673.513 201.085 674.434L144.028 702.962C141.449 704.252 141.449 707.933 144.028 709.223L398.557 836.488C399.542 836.98 400.702 836.98 401.687 836.488L656.216 709.223C658.796 707.933 658.796 704.252 656.216 702.962L599.16 674.434C597.317 673.513 597.317 670.883 599.16 669.962L661.894 638.595Z" stroke="#00C2FF"/>
<path d="M661.894 469.917C662.598 469.565 663.427 469.565 664.13 469.917L794.654 535.179C796.497 536.1 796.497 538.73 794.654 539.651L401.24 736.358C400.536 736.71 399.708 736.71 399.004 736.358L5.59016 539.651C3.74754 538.73 3.74754 536.1 5.59016 535.179L136.114 469.917C136.818 469.565 137.646 469.565 138.35 469.917L201.085 501.284C202.927 502.205 202.927 504.835 201.085 505.756L144.028 534.284C141.449 535.574 141.449 539.256 144.028 540.545L398.557 667.81C399.542 668.302 400.702 668.302 401.687 667.81L656.216 540.545C658.796 539.256 658.796 535.574 656.216 534.284L599.16 505.756C597.317 504.835 597.317 502.205 599.16 501.284L661.894 469.917Z" stroke="#BCE000"/>
<path d="M661.894 301.24C662.598 300.888 663.427 300.888 664.13 301.24L794.654 366.502C796.497 367.423 796.497 370.053 794.654 370.974L401.24 567.681C400.536 568.033 399.708 568.033 399.004 567.681L5.59016 370.974C3.74754 370.053 3.74754 367.423 5.59016 366.502L136.114 301.24C136.818 300.888 137.646 300.888 138.35 301.24L201.085 332.607C202.927 333.529 202.927 336.158 201.085 337.08L144.028 365.608C141.449 366.897 141.449 370.579 144.028 371.869L398.557 499.133C399.542 499.626 400.702 499.626 401.687 499.133L656.216 371.869C658.796 370.579 658.796 366.897 656.216 365.608L599.16 337.08C597.317 336.158 597.317 333.529 599.16 332.607L661.894 301.24Z" stroke="#ED9E10"/>
<path d="M401.24 399.004C400.536 399.356 399.708 399.356 399.004 399.004L5.59016 202.297C3.74754 201.376 3.74755 198.746 5.59017 197.825L399.004 1.11803C399.708 0.766122 400.536 0.766124 401.24 1.11803L794.654 197.825C796.497 198.746 796.497 201.376 794.654 202.297L401.24 399.004ZM144.028 196.931C141.449 198.22 141.449 201.902 144.028 203.192L398.557 330.456C399.542 330.949 400.702 330.949 401.687 330.456L656.216 203.192C658.796 201.902 658.796 198.22 656.216 196.931L401.687 69.6663C400.702 69.1736 399.542 69.1736 398.557 69.6663L144.028 196.931Z" stroke="#F02B4F"/>
</g>
</svg>
