<svg width="216" height="80" viewBox="0 0 216 80" fill="none" xmlns="http://www.w3.org/2000/svg">
<rect width="216" height="80" rx="7" fill="#343642" fill-opacity="0.6"/>
<path d="M73.6619 59.4513C74.3916 59.4513 75.0829 59.6241 75.4289 59.9698C75.4865 60.5078 75.0061 61.3719 74.6988 61.3719C74.334 61.2375 73.9884 61.1603 73.5659 61.1603C71.8185 61.1603 70.954 62.9657 70.954 64.7515C70.954 65.8653 71.338 66.5378 72.2217 66.5378C73.1627 66.5378 74.1228 65.9041 74.6604 65.424C74.7949 65.5196 74.9677 65.8273 74.9677 66.1729C74.9677 66.557 74.8525 66.9218 74.5068 67.2675C73.8923 67.8819 72.8554 68.4004 71.3572 68.4004C69.629 68.4004 68.4385 67.4211 68.4385 65.1356C68.4385 62.14 70.4163 59.4513 73.6427 59.4513H73.6619Z" fill="white"/>
<path d="M79.3068 66.4417C80.2477 66.4417 81.9571 64.7899 82.4372 61.6408C82.4564 61.4487 82.4756 61.3911 82.514 61.1991C82.3028 61.1223 82.0148 61.0647 81.7263 61.0647C81.0158 61.0647 80.2861 61.2759 79.6333 62.1592C78.9612 63.1001 78.6731 64.2715 78.6731 65.2128C78.6731 66.0189 78.9036 66.4417 79.2876 66.4417H79.3068ZM76.2148 65.5776C76.2148 64.4447 76.5989 62.4665 78.0395 61.0263C79.2684 59.7589 80.7662 59.4513 82.13 59.4513C83.0325 59.4513 84.2614 59.7393 85.0295 59.8933C84.8375 60.7382 84.3766 63.9258 84.1654 65.7693C84.0694 66.557 84.031 67.6515 84.0694 68.0547C83.4357 68.3236 82.2452 68.4004 81.9183 68.4004C81.7459 68.4004 81.7071 67.6131 81.7651 66.8642C81.7839 66.6146 81.8227 66.2497 81.8415 66.0961C81.0926 67.3443 79.6141 68.4004 78.0587 68.4004C76.9449 68.4004 76.2148 67.4787 76.2148 65.5968V65.5776Z" fill="white"/>
<path d="M89.8105 59.4513C90.5978 59.4513 91.3467 59.7393 91.6927 60.1042C91.6735 60.6422 91.2511 61.5444 90.5786 61.2947C90.2905 61.1987 90.0025 61.1223 89.6185 61.1223C89.1 61.1223 88.6583 61.3527 88.6583 61.8324C88.6583 62.1972 88.9272 62.4665 90.2137 63.369C91.1359 64.0411 91.5007 64.6363 91.5007 65.4812C91.5007 66.8834 90.1753 68.4004 87.871 68.4004C86.9301 68.4004 86.104 68.0355 85.8352 67.6515C85.4896 67.0754 85.7584 65.9425 86.1428 66.1341C86.6421 66.3837 87.4678 66.653 88.1399 66.653C88.7736 66.653 89.1768 66.3645 89.1768 65.9805C89.1768 65.6545 88.8888 65.366 87.7174 64.5403C86.7377 63.8106 86.4305 63.1385 86.4305 62.3705C86.4305 60.7767 87.7942 59.4513 89.7913 59.4513H89.8105Z" fill="white"/>
<path d="M96.4351 59.4513C97.2228 59.4513 97.9717 59.7393 98.3173 60.1042C98.2981 60.6422 97.8761 61.5444 97.2036 61.2947C96.9156 61.1987 96.6271 61.1223 96.2435 61.1223C95.725 61.1223 95.2834 61.3527 95.2834 61.8324C95.2834 62.1972 95.5522 62.4665 96.8387 63.369C97.7605 64.0411 98.1253 64.6363 98.1253 65.4812C98.1253 66.8834 96.7999 68.4004 94.4957 68.4004C93.5547 68.4004 92.729 68.0355 92.4602 67.6515C92.1146 67.0754 92.3834 65.9425 92.7674 66.1341C93.2667 66.3837 94.0924 66.653 94.7645 66.653C95.3982 66.653 95.8014 66.3645 95.8014 65.9805C95.8014 65.6545 95.5134 65.366 94.342 64.5403C93.3627 63.8106 93.0555 63.1385 93.0555 62.3705C93.0555 60.7767 94.4189 59.4513 96.4163 59.4513H96.4351Z" fill="white"/>
<path d="M102.484 66.4417C103.425 66.4417 105.134 64.7899 105.614 61.6408C105.633 61.4487 105.653 61.3911 105.691 61.1991C105.48 61.1223 105.192 61.0647 104.903 61.0647C104.193 61.0647 103.463 61.2759 102.81 62.1592C102.138 63.1001 101.85 64.2715 101.85 65.2128C101.85 66.0189 102.08 66.4417 102.465 66.4417H102.484ZM99.3916 65.5776C99.3916 64.4447 99.776 62.4665 101.216 61.0263C102.445 59.7589 103.943 59.4513 105.307 59.4513C106.209 59.4513 107.439 59.7393 108.207 59.8933C108.015 60.7382 107.554 63.9258 107.343 65.7693C107.246 66.557 107.208 67.6515 107.246 68.0547C106.612 68.3236 105.422 68.4004 105.095 68.4004C104.923 68.4004 104.884 67.6131 104.942 66.8642C104.961 66.6146 104.999 66.2497 105.019 66.0961C104.27 67.3443 102.791 68.4004 101.236 68.4004C100.122 68.4004 99.3916 67.4787 99.3916 65.5968V65.5776Z" fill="white"/>
<path d="M112.546 61.9476C113.429 60.5266 114.581 59.4513 116.194 59.4513C117.558 59.4513 117.999 60.7186 117.75 62.5237C117.616 63.369 117.385 64.5787 117.231 65.6925C117.097 66.6338 117.001 67.4783 117.021 68.0547C116.521 68.3044 115.062 68.4004 114.735 68.4004C114.601 68.4004 114.581 67.3439 114.754 66.2301C114.908 65.3084 115.234 63.6378 115.388 62.6773C115.484 62.1208 115.465 61.4483 114.927 61.4483C114.216 61.4483 112.527 62.5817 111.682 67.2286C111.624 67.6127 111.47 67.8431 111.259 67.9775C110.971 68.1508 110.356 68.3044 109.108 68.3236C109.339 67.1522 109.704 64.7515 109.973 62.9849C110.222 61.3719 110.318 60.3346 110.26 59.9314C110.587 59.8161 112.296 59.4513 112.488 59.4513C112.7 59.4513 112.738 60.0466 112.546 61.4871C112.527 61.6216 112.507 61.8324 112.488 61.9476H112.546Z" fill="white"/>
<path d="M122.301 66.4225C123.145 66.4225 124.855 64.8476 125.335 62.0632C125.354 61.9096 125.412 61.6216 125.45 61.4483C125.2 61.2179 124.874 61.0643 124.356 61.0643C122.415 61.0643 121.551 63.3882 121.551 65.0592C121.551 65.9617 121.859 66.4225 122.281 66.4225H122.301ZM121.033 68.4004C119.804 68.4004 119.036 67.3059 119.036 65.424C119.036 62.3128 120.975 59.4513 124.24 59.4513C124.816 59.4513 125.335 59.6049 125.661 59.7969C125.834 58.9136 126.237 56.1865 126.257 55.38C126.794 55.284 127.946 55.1116 128.464 55.1116C128.677 55.1116 128.734 55.3224 128.657 55.8024C128.196 58.6832 127.371 64.2139 127.217 65.4432C127.101 66.4802 127.082 67.4979 127.101 68.074C126.487 68.3428 125.238 68.4004 124.912 68.4004C124.777 68.4004 124.701 67.5171 124.739 66.7298C124.759 66.4802 124.797 66.1149 124.797 66.0577C123.837 67.6323 122.511 68.4004 121.052 68.4004H121.033Z" fill="white"/>
<path d="M132.286 62.2175C133.304 59.9512 134.513 59.4519 135.301 59.4519C135.551 59.4519 135.935 59.6055 136.107 59.7976C136.185 60.4312 135.685 61.6986 135.243 62.1787C135.013 62.0634 134.725 61.9482 134.398 61.9482C133.745 61.9482 132.459 62.9664 131.652 67.3445C131.594 67.7097 131.479 67.8634 131.268 67.9594C130.942 68.1514 129.655 68.305 129.041 68.3242C129.328 66.7492 129.828 63.5424 130.02 61.6602C130.078 61.1801 130.096 60.2968 130.058 59.9512C130.423 59.7784 131.864 59.4519 132.19 59.4519C132.363 59.4519 132.497 60.5085 132.228 62.2175H132.286Z" fill="white"/>
<path d="M139.064 66.4417C140.005 66.4417 141.714 64.7899 142.194 61.6408C142.213 61.4487 142.233 61.3911 142.271 61.1991C142.06 61.1223 141.772 61.0647 141.484 61.0647C140.773 61.0647 140.043 61.2759 139.39 62.1592C138.718 63.1001 138.43 64.2715 138.43 65.2128C138.43 66.0189 138.66 66.4417 139.045 66.4417H139.064ZM135.972 65.5776C135.972 64.4447 136.356 62.4665 137.796 61.0263C139.025 59.7589 140.523 59.4513 141.887 59.4513C142.789 59.4513 144.018 59.7393 144.787 59.8933C144.595 60.7382 144.134 63.9258 143.923 65.7693C143.827 66.557 143.788 67.6515 143.827 68.0547C143.193 68.3236 142.002 68.4004 141.676 68.4004C141.503 68.4004 141.465 67.6131 141.522 66.8642C141.541 66.6146 141.58 66.2497 141.599 66.0961C140.85 67.3443 139.372 68.4004 137.816 68.4004C136.702 68.4004 135.972 67.4787 135.972 65.5968V65.5776Z" fill="white"/>
<path d="M133.424 26.9068C134.057 34.2886 122.44 41.3142 107.477 42.598C92.5135 43.8817 79.8695 38.9371 79.2367 31.5558C78.603 24.1729 90.22 17.1477 105.183 15.8639C120.147 14.5805 132.791 19.5239 133.424 26.9068Z" fill="#C7C7C7"/>
<g opacity="0.350006">
<g opacity="0.350006">
<path opacity="0.350006" d="M105.623 16.7299C99.9154 16.6371 93.2362 18.9034 88.2664 21.0257C87.7491 22.5162 87.4707 24.1016 87.4707 25.745C87.4707 34.5013 95.3773 41.6006 105.131 41.6006C114.884 41.6006 122.791 34.5013 122.791 25.745C122.791 22.9739 121.997 20.3704 120.606 18.1037C116.629 17.4856 111.161 16.82 105.623 16.7299Z" fill="white"/>
</g>
</g>
<path d="M105.13 16.7288C101.97 16.536 96.5233 18.1846 91.9815 19.8292C91.2914 21.4578 90.9082 23.24 90.9082 25.1102C90.9082 32.7824 97.8643 39.002 105.223 39.002C112.533 39.002 119 32.7724 119.537 25.1102C119.712 22.6151 118.853 20.2641 117.66 18.237C112.952 17.4077 107.955 16.9012 105.13 16.7288Z" fill="white"/>
<path d="M97.0206 24.1023C97.4083 23.2438 97.9956 22.8233 98.5644 22.1037C98.5012 21.9332 98.3628 21.376 98.3628 21.1827C98.3628 20.3202 99.0625 19.6202 99.9254 19.6202C100.129 19.6202 100.323 19.6606 100.501 19.7314C103.088 17.7603 106.493 16.901 109.914 17.6659C110.227 17.7363 110.533 17.8215 110.834 17.9151C107.452 17.4463 103.641 18.644 101.048 20.7367C101.127 20.9235 101.347 21.4576 101.347 21.6724C101.347 22.5353 100.788 22.7453 99.9254 22.7453C99.7294 22.7453 99.5421 22.7077 99.3689 22.6417C98.7832 23.4282 98.0656 24.9264 97.7143 25.8629C99.1481 27.1455 100.443 27.6103 102.132 28.2412C102.127 28.1608 102.19 28.0864 102.19 28.0044C102.19 25.4029 104.48 23.2886 107.082 23.2886C109.413 23.2886 111.344 24.984 111.721 27.2083C112.884 26.4682 114.009 25.9009 114.866 24.804C114.666 24.56 114.451 23.8691 114.451 23.529C114.451 22.7461 115.086 22.1113 115.869 22.1113C115.98 22.1113 116.086 22.1273 116.19 22.1513C116.625 21.2568 116.953 20.3086 117.164 19.3309C113.095 16.3189 105.223 16.7298 105.223 16.7298C105.223 16.7298 98.9593 16.403 94.7188 18.4696C95.0016 20.5143 95.8173 22.4581 97.0206 24.1023Z" fill="white"/>
<path d="M116.467 22.9288C116.755 23.188 116.912 23.4156 117.035 23.6372C117.416 24.3213 116.652 24.9474 115.869 24.9474C115.79 24.9474 115.713 24.9366 115.637 24.9238C114.754 26.3024 113.209 28.0702 111.837 28.9599C113.942 29.3047 115.926 30.1476 117.506 31.4502C118.656 29.3895 119.538 26.414 119.538 23.8865C119.538 21.9626 118.689 20.5525 117.406 19.5179C117.339 20.5485 116.789 21.9898 116.467 22.9288Z" fill="white"/>
<path d="M99.3816 35.9805C100.083 34.0438 101.808 32.5432 103.44 31.2231C103.201 30.8962 102.843 30.0869 102.694 29.7037C100.703 29.0984 98.9424 27.9655 97.5766 26.4657C97.5666 26.5093 97.5542 26.5517 97.5438 26.5953C97.2866 27.7479 97.2393 28.9028 97.3674 30.0293C98.3203 30.207 99.0416 31.0419 99.0416 32.0464C99.0416 32.6421 98.5195 33.5054 98.1143 33.881C98.5547 34.8315 98.8551 35.29 99.3816 35.9805Z" fill="white"/>
<path d="M99.2584 37.6061C98.4219 36.7744 97.8435 35.1154 97.3006 34.0737C97.199 34.0893 97.095 34.1001 96.9885 34.1001C95.854 34.1001 94.6655 33.148 94.9343 32.0462C95.0831 31.4366 95.504 31.0377 96.1893 30.7049C96.0332 29.4419 95.9908 27.6265 96.2841 26.3135C96.3681 25.9379 96.5461 25.7619 96.6641 25.4042C95.4124 23.5724 94.6035 21.1681 94.6035 18.7826C94.6035 18.6954 94.6079 18.6094 94.6099 18.523C92.4944 19.5839 90.9082 21.2553 90.9082 23.8864C90.9082 29.7063 94.2602 35.4154 99.2476 37.6533C99.2512 37.6377 99.2544 37.6217 99.2584 37.6061Z" fill="white"/>
<path d="M111.522 29.5602C110.878 31.3932 109.135 32.7098 107.082 32.7098C105.983 32.7098 104.976 32.3309 104.175 31.7013C102.524 32.987 101.026 35.2457 100.265 37.2051C100.606 37.5728 100.844 37.8752 101.228 38.2013C102.383 38.5021 103.973 38.2013 105.223 38.2013C110.252 38.2013 114.706 35.9642 117.259 32.0413C115.561 30.8656 113.559 29.7466 111.522 29.5602Z" fill="white"/>
<path d="M96.8917 24.783C97.2794 23.9245 97.7654 23.13 98.3339 22.4103C98.2707 22.2403 98.2339 22.0566 98.2339 21.8634C98.2339 21.0009 98.9336 20.3008 99.7965 20.3008C100 20.3008 100.195 20.3412 100.373 20.412C102.959 18.441 106.364 17.5817 109.785 18.3466C110.098 18.417 110.404 18.5022 110.705 18.5958C107.323 18.127 103.829 19.1635 101.237 21.2565C101.316 21.443 101.359 21.6486 101.359 21.8634C101.359 22.7263 100.659 23.426 99.7965 23.426C99.6005 23.426 99.4132 23.3884 99.24 23.3224C98.6543 24.1089 98.1755 24.9778 97.8242 25.9147C99.0556 27.2417 100.567 28.291 102.255 28.9219C102.251 28.8415 102.242 28.7619 102.242 28.6798C102.242 26.0783 104.351 23.9693 106.953 23.9693C109.284 23.9693 111.215 25.6647 111.592 27.8889C112.755 27.1489 113.789 26.1983 114.646 25.1014C114.446 24.8574 114.322 24.5497 114.322 24.2097C114.322 23.4268 114.957 22.7919 115.74 22.7919C115.851 22.7919 115.957 22.8079 116.061 22.8319C116.496 21.9374 116.825 20.9893 117.035 20.0116C112.966 16.9996 105.094 17.4105 105.094 17.4105C105.094 17.4105 98.8304 17.0836 94.5898 19.1503C94.8727 21.1949 95.6884 23.1388 96.8917 24.783Z" fill="#7C7C7C"/>
<path d="M116.686 23.1609C116.974 23.4201 117.158 23.7918 117.158 24.2094C117.158 24.9923 116.523 25.6276 115.74 25.6276C115.66 25.6276 115.583 25.6168 115.507 25.604C114.625 26.9826 113.456 28.1579 112.083 29.0476C114.112 29.3649 116.022 30.2258 117.601 31.5283C118.751 29.4677 119.408 27.0942 119.408 24.5667C119.408 22.6428 118.559 21.2327 117.277 20.1981C117.21 21.2287 117.008 22.222 116.686 23.1609Z" fill="#7C7C7C"/>
<path d="M99.5982 36.4453C100.3 34.5087 101.518 32.7709 103.15 31.4511C102.911 31.1239 102.714 30.7666 102.565 30.3834C100.574 29.7781 98.8137 28.6452 97.448 27.1454C97.438 27.189 97.4252 27.2314 97.4152 27.275C97.1575 28.4275 97.1103 29.5825 97.2387 30.709C98.1912 30.8866 98.9129 31.7215 98.9129 32.7261C98.9129 33.3217 98.6573 33.8574 98.2521 34.233C98.6197 35.0123 99.0718 35.7548 99.5982 36.4453Z" fill="#7C7C7C"/>
<path d="M99.2531 37.5827C98.4166 36.751 97.7145 35.7957 97.1721 34.7543C97.0701 34.7699 96.9661 34.7803 96.86 34.7803C95.7255 34.7803 94.8058 33.8606 94.8058 32.7265C94.8058 31.9136 95.2794 31.2127 95.9647 30.8799C95.8091 29.6173 95.8619 28.3067 96.1556 26.9938C96.2396 26.6185 96.342 26.2521 96.46 25.894C95.2082 24.0626 94.4749 21.8483 94.4749 19.4629C94.4749 19.3756 94.479 19.2896 94.481 19.2036C92.3655 20.2641 90.7793 21.936 90.7793 24.5667C90.7793 30.387 94.2549 35.392 99.2423 37.6299C99.2459 37.6143 99.2491 37.5983 99.2531 37.5827Z" fill="#7C7C7C"/>
<path d="M111.393 30.2408C110.749 32.0738 109.006 33.3904 106.953 33.3904C105.854 33.3904 104.847 33.0115 104.046 32.3818C102.395 33.6676 101.149 35.4202 100.388 37.3801C100.729 37.7477 101.094 38.0941 101.477 38.4198C102.632 38.7206 103.844 38.8818 105.094 38.8818C110.123 38.8818 114.544 36.2855 117.097 32.363C115.4 31.1869 113.43 30.4272 111.393 30.2408Z" fill="#7C7C7C"/>
<path d="M111.559 29.0264L115.911 27.9883L111.542 27.7655L115.097 25.0483L111.063 26.4945L113.805 22.6952L110.018 25.2119L111.342 20.7646L108.742 24.4303L108.683 19.7981L106.972 23.9242L105.545 19.7489L105.622 24.6675L103.157 20.2585L104.491 24.9399L100.492 22.0316L103.624 25.968L98.6594 24.1422L102.578 27.0414L97.5532 27.1958L102.691 28.5216L97.5488 29.6333L102.624 30.0013L98.3441 32.7421L102.751 31.1443L99.6935 35.0171L103.558 31.9008L102.166 37.0978L105.149 32.8685L104.731 37.8635L106.425 33.3353L107.866 38.0947L108.217 33.3209L110.356 37.3938L109.092 32.7353L113.01 35.77L110.48 31.9008L114.779 33.5754L111.492 30.3458L115.899 30.6922L111.559 29.0264Z" fill="white"/>
<g opacity="0.350006">
<g opacity="0.350006">
<path opacity="0.350006" d="M65.2256 37.3535C78.7232 23.8563 89.5034 19.6893 99.287 17.7871C100.582 17.5355 100.826 14.7067 100.826 14.7067C100.826 14.7067 101.008 16.7902 101.914 17.0618C102.819 17.3339 103.997 13.8006 103.997 13.8006C103.997 13.8006 102.91 16.9714 103.997 17.1526C105.084 17.3339 107.077 14.0727 107.077 14.0727C107.077 14.0727 106.262 16.8806 106.805 17.0618C107.348 17.243 110.066 12.9857 110.066 12.9857C110.066 12.9857 108.435 15.7937 109.975 16.0657C111.516 16.3373 113.763 14.1491 113.763 14.1491C113.763 14.1491 111.996 16.1513 112.783 16.4277C116.135 17.6059 118.848 13.2494 118.848 13.2494C118.848 13.2494 118.219 15.1596 116.589 17.243C120.121 18.1488 122.745 12.8269 122.745 12.8269L120.121 18.1488C121.48 18.874 126.916 12.6233 126.916 12.6233C126.916 12.6233 124.108 17.5151 122.477 18.5112C123.383 19.2361 126.644 16.3373 126.644 16.3373C126.644 16.3373 124.017 19.5981 125.013 19.7794C126.463 20.9571 131.807 13.7102 131.807 13.7102C131.807 13.7102 129.724 17.9675 126.644 21.3195C129.218 22.6073 135.612 14.3443 135.612 14.3443C135.612 14.3443 135.431 16.9714 130.811 21.1383C134.253 20.6855 138.692 14.1631 138.692 14.1631C138.692 14.1631 137.062 19.0549 133.166 22.4969C136.546 22.1452 141.953 13.8006 141.953 13.8006C141.953 13.8006 139.87 19.5981 135.612 22.9501C140.323 23.9919 147.117 16.9714 147.117 16.9714C147.117 16.9714 144.444 21.954 140.956 23.9919C144.852 25.4865 150.197 19.3265 150.197 19.3265C150.197 19.3265 144.852 27.5703 136.337 27.2079C133.543 27.0891 125.092 18.7316 106.986 19.4173C83.0714 20.3234 77.9988 30.4691 65.2256 37.3535Z" fill="white"/>
</g>
</g>
<path d="M65.7793 36.3281C79.277 22.8309 90.0567 18.6644 99.8403 16.7617C101.135 16.5101 101.38 13.6817 101.38 13.6817C101.38 13.6817 101.561 15.7656 102.467 16.0368C103.373 16.3085 104.55 12.776 104.55 12.776C104.55 12.776 103.464 15.9468 104.55 16.1276C105.638 16.3085 107.63 13.0477 107.63 13.0477C107.63 13.0477 106.816 15.8556 107.358 16.0368C107.902 16.2181 110.62 11.9603 110.62 11.9603C110.62 11.9603 108.989 14.7687 110.529 15.0403C112.069 15.3123 114.316 13.1241 114.316 13.1241C114.316 13.1241 112.55 15.1263 113.337 15.4028C116.689 16.5805 119.401 12.2244 119.401 12.2244C119.401 12.2244 118.772 14.1346 117.142 16.2181C120.675 17.1242 123.299 11.8015 123.299 11.8015L120.675 17.1242C122.034 17.8487 127.469 11.5987 127.469 11.5987C127.469 11.5987 124.661 16.4897 123.031 17.4862C123.936 18.2111 127.198 15.3123 127.198 15.3123C127.198 15.3123 124.571 18.5735 125.567 18.7544C127.016 19.9325 132.361 12.6852 132.361 12.6852C132.361 12.6852 130.277 16.9429 127.198 20.2946C129.772 21.5827 136.166 13.3193 136.166 13.3193C136.166 13.3193 135.985 15.9468 131.365 20.1137C134.807 19.6605 139.246 13.1381 139.246 13.1381C139.246 13.1381 137.615 18.0299 133.72 21.4723C137.1 21.1207 142.506 12.776 142.506 12.776C142.506 12.776 140.423 18.5735 136.166 21.9252C140.877 22.9669 147.671 15.9468 147.671 15.9468C147.671 15.9468 144.998 20.9286 141.51 22.9669C145.406 24.4615 150.751 18.3015 150.751 18.3015C150.751 18.3015 145.406 26.5453 136.89 26.1829C134.097 26.0637 125.646 17.7062 107.54 18.3923C83.6251 19.298 78.5521 29.4437 65.7793 36.3281Z" fill="white"/>
<g opacity="0.350006">
<g opacity="0.350006">
<path opacity="0.350006" d="M64.8721 38.83C72.0057 42.4084 78.5285 38.2867 86.7492 40.6034C92.9991 42.3652 100.609 44.5371 110.935 43.0421C121.262 41.5479 130.095 37.0638 134.308 29.0464C135.621 25.4687 140.965 29.8621 140.965 29.8621C140.965 29.8621 137.071 28.2315 137.161 29.0016C137.252 29.7713 143.004 32.4436 143.004 32.4436C143.004 32.4436 137.795 30.813 138.112 32.0359C138.429 33.2589 144.634 38.1507 144.634 38.1507C144.634 38.1507 137.614 32.806 137.025 33.5305C136.436 34.2554 140.014 37.1998 140.014 37.1998C140.014 37.1998 134.081 33.5305 131.997 34.6127C130.499 35.39 138.157 40.4158 138.157 40.4158C138.157 40.4158 133.175 36.6105 131.997 37.607C130.82 38.604 137.614 46.7566 137.614 46.7566C137.614 46.7566 129.913 38.4223 129.144 38.83C128.373 39.2376 131.272 43.2237 131.272 43.2237C131.272 43.2237 127.468 39.0564 126.426 39.7813C125.385 40.5062 131.861 51.3311 131.861 51.3311C131.861 51.3311 124.841 40.2346 121.942 42.0908C126.494 52.0784 124.796 53.5054 124.796 53.5054C124.796 53.5054 124.215 43.3161 118.545 43.5858C115.692 43.7218 119.904 51.1951 119.904 51.1951C119.904 51.1951 116.027 44.3695 113.445 44.5055C118.203 53.511 116.507 57.1738 116.507 57.1738C116.507 57.1738 117.294 49.4825 110.84 45.2024C113.286 47.3758 109.306 57.1738 109.306 57.1738C109.306 57.1738 112.807 42.7357 106.723 45.4884C105.762 45.9224 106.655 52.6901 106.655 52.6901C106.655 52.6901 105.432 44.9443 103.598 45.3524C102.529 45.5896 96.804 56.0869 96.804 56.0869C96.804 56.0869 101.492 44.7407 100.066 45.2164C99.0263 45.5632 97.076 50.2442 97.076 50.2442C97.076 50.2442 98.0269 45.624 97.076 45.3524C96.1251 45.0803 90.8253 50.2442 90.8253 50.2442C90.8253 50.2442 94.7661 45.624 94.0865 44.6727C93.0567 43.2313 91.8498 43.1637 90.4176 43.7218C88.3337 44.5339 85.5262 48.3415 85.5262 48.3415C85.5262 48.3415 88.3249 44.4863 87.8357 43.0421C87.0504 40.7218 79.0038 47.5262 79.0038 47.5262C79.0038 47.5262 83.7596 43.0421 82.6727 42.0908C81.5857 41.1399 75.6834 41.4339 73.8404 41.4287C68.4053 41.4119 66.5219 40.1369 64.8721 38.83Z" fill="white"/>
</g>
</g>
<path d="M64.6006 38.0145C71.7343 41.593 78.2567 37.4713 86.4773 39.7884C92.7272 41.5494 100.337 43.7216 110.664 42.2267C120.991 40.7321 129.823 36.2479 134.036 28.2313C135.349 24.6533 140.694 29.0462 140.694 29.0462C140.694 29.0462 136.799 27.416 136.889 28.1861C136.98 28.9558 142.732 31.6282 142.732 31.6282C142.732 31.6282 137.523 29.998 137.84 31.2209C138.158 32.4435 144.363 37.3353 144.363 37.3353C144.363 37.3353 137.342 31.9902 136.753 32.7155C136.165 33.44 139.743 36.3839 139.743 36.3839C139.743 36.3839 133.809 32.7155 131.726 33.7968C130.227 34.5745 137.886 39.5999 137.886 39.5999C137.886 39.5999 132.903 35.7951 131.726 36.7916C130.548 37.7885 137.343 45.9411 137.343 45.9411C137.343 45.9411 129.642 37.6069 128.872 38.0145C128.102 38.4226 131.001 42.4079 131.001 42.4079C131.001 42.4079 127.196 38.241 126.155 38.9659C125.113 39.6904 131.59 50.5157 131.59 50.5157C131.59 50.5157 124.569 39.4187 121.67 41.2757C126.223 51.263 124.524 52.6899 124.524 52.6899C124.524 52.6899 123.943 42.5007 118.273 42.7707C115.42 42.9067 119.632 50.3797 119.632 50.3797C119.632 50.3797 115.755 43.5536 113.173 43.6896C117.932 52.6955 116.235 56.3584 116.235 56.3584C116.235 56.3584 117.022 48.6667 110.568 44.3865C113.014 46.5604 109.034 56.3584 109.034 56.3584C109.034 56.3584 112.536 41.9202 106.452 44.673C105.491 45.1074 106.384 51.8746 106.384 51.8746C106.384 51.8746 105.16 44.1293 103.327 44.5369C102.257 44.7742 96.5321 55.2715 96.5321 55.2715C96.5321 55.2715 101.22 43.9253 99.7937 44.4013C98.7544 44.7474 96.8041 49.4283 96.8041 49.4283C96.8041 49.4283 97.7555 44.8086 96.8041 44.5369C95.8532 44.2653 90.5538 49.4283 90.5538 49.4283C90.5538 49.4283 94.4947 44.8086 93.8146 43.8573C92.7848 42.4159 91.5779 42.3487 90.1461 42.9067C88.0619 43.7184 85.2543 47.5261 85.2543 47.5261C85.2543 47.5261 88.0531 43.6704 87.5642 42.2267C86.7785 39.9068 78.7323 46.7108 78.7323 46.7108C78.7323 46.7108 83.4881 42.2267 82.4008 41.2757C81.3138 40.3244 75.4115 40.6189 73.5685 40.6133C68.1334 40.5961 66.2504 39.3215 64.6006 38.0145Z" fill="white"/>
</svg>
