<svg width="216" height="80" viewBox="0 0 216 80" fill="none" xmlns="http://www.w3.org/2000/svg">
<rect width="216" height="80" rx="7" fill="#343642" fill-opacity="0.6"/>
<path d="M95 39.0545V38.9994C95 33.5022 99.143 29 105.082 29C108.729 29 110.911 30.2165 112.706 31.9828L109.999 35.1043C108.507 33.7513 106.987 32.9226 105.053 32.9226C101.794 32.9226 99.446 35.6299 99.446 38.9455V39.0005C99.446 42.3161 101.739 45.0785 105.053 45.0785C107.264 45.0785 108.617 44.1937 110.136 42.813L112.844 45.5478C110.856 47.6733 108.647 49 104.917 49C99.2268 49 95 44.608 95 39.0545Z" fill="white"/>
<path d="M117.445 29.3066H121.7V36.9605H129.548V29.3066H133.805V48.6497H129.548V40.8845H121.7V48.6497H117.445V29.3066Z" fill="white"/>
<path d="M138.979 29.3066H153.57V33.0921H143.207V37.0154H152.326V40.802H143.207V44.8642H153.708V48.6497H138.979V29.3066Z" fill="white"/>
<path d="M159.275 29.3066H174.002V33.1755H163.529V37.2923H172.759V41.1612H163.529V48.6497H159.275V29.3066Z" fill="white"/>
<path d="M60.3027 48.4396C55.2618 48.4396 51.1599 44.3385 51.1599 39.2976C51.1599 34.2559 55.2618 30.1541 60.3027 30.1541C64.4644 30.1541 67.9821 32.9492 69.0849 36.7598H72.6224C71.4448 31.0365 66.3693 26.7197 60.3027 26.7197C53.3679 26.7197 47.7256 32.362 47.7256 39.2976C47.7256 46.2324 53.3679 51.8747 60.3027 51.8747C66.3693 51.8747 71.4448 47.5588 72.6224 41.8354H69.0849C67.9821 45.6452 64.4644 48.4396 60.3027 48.4396Z" fill="white"/>
<path d="M54.1416 45.4634C55.7206 47.0425 57.901 48.0209 60.305 48.0209V44.3756C58.9039 44.3756 57.635 43.8065 56.7164 42.8887L54.1416 45.4634Z" fill="white"/>
<path d="M51.5801 39.2992C51.5801 40.5468 51.8461 41.7338 52.32 42.8083L55.6544 41.3418C55.3789 40.7168 55.2246 40.0265 55.2246 39.2992C55.2246 36.4961 57.4971 34.2244 60.2993 34.2244V30.5791C55.4914 30.5791 51.5801 34.4912 51.5801 39.2992Z" fill="#C8C8D2"/>
<path d="M63.4582 31.1729L62.1357 34.571C63.2157 34.9921 64.117 35.769 64.69 36.7608H68.6384C67.8591 34.2018 65.9322 32.1387 63.4582 31.1729Z" fill="white"/>
<path d="M62.1367 44.0266L63.4583 47.4247C65.9324 46.4589 67.8593 44.395 68.6394 41.8359H64.691C64.1164 42.8285 63.2159 43.6062 62.1367 44.0266Z" fill="#C8C8D2"/>
<path d="M44.168 44.1776C44.1105 43.9871 44.0554 43.795 44.0042 43.6014C44.0011 43.5896 43.9979 43.5778 43.9948 43.566C43.9476 43.3865 43.9043 43.207 43.8626 43.026C43.8539 42.989 43.846 42.952 43.8382 42.915C43.8035 42.7599 43.772 42.6033 43.7413 42.4466C43.728 42.3766 43.7161 42.3065 43.7043 42.2365C43.6823 42.1113 43.6603 41.987 43.6406 41.8602C43.6241 41.7524 43.6099 41.6453 43.5957 41.5375C43.4965 40.8023 43.443 40.0553 43.4438 39.2988H40C39.9992 40.1238 40.0512 40.9385 40.148 41.7429C40.1496 41.7602 40.1527 41.7776 40.1551 41.7949C40.1818 42.0137 40.2118 42.2325 40.2456 42.449C40.255 42.5088 40.2653 42.5687 40.2755 42.6293C40.3054 42.8072 40.3361 42.9851 40.3708 43.1622C40.3881 43.2566 40.4085 43.3495 40.4282 43.4432C40.4573 43.5841 40.4873 43.725 40.5195 43.8651C40.5479 43.9879 40.5786 44.1107 40.6101 44.2335C40.6376 44.3429 40.6644 44.4523 40.6935 44.5617C40.7328 44.7066 40.7746 44.8498 40.8163 44.9939C40.8336 45.0537 40.8493 45.1151 40.8674 45.1741H40.869C41.1067 45.9605 41.3885 46.728 41.716 47.471L44.8717 46.0833C44.6001 45.4677 44.3655 44.8301 44.168 44.1776H44.168Z" fill="white"/>
<path d="M60.2996 56.157C55.6522 56.157 51.4394 54.2646 48.3876 51.2121L45.9482 53.6515C49.6219 57.3251 54.6943 59.6 60.2996 59.6C70.6514 59.6 79.192 51.8512 80.4412 41.8379H76.9659C75.738 49.9322 68.7323 56.157 60.2996 56.157Z" fill="#C8C8D2"/>
<path d="M60.3026 22.443C64.0786 22.443 67.5664 23.6906 70.3797 25.7963L72.4428 23.031C69.0565 20.4995 64.8547 19 60.3026 19C51.6888 19 44.3289 24.3652 41.3818 31.9368L44.5942 33.1868C47.0462 26.9046 53.1631 22.443 60.3026 22.443Z" fill="#C8C8D2"/>
<path d="M76.9725 36.7633H80.4477C80.0754 33.7761 79.0537 30.9904 77.5282 28.5518L74.6016 30.3779C75.7965 32.2852 76.6206 34.4475 76.9725 36.7633Z" fill="white"/>
<path d="M73.053 36.7596H76.5401C75.6302 30.9127 71.6259 26.078 66.2599 23.9834L65.0146 27.1855C69.0952 28.7787 72.1817 32.3736 73.053 36.7596Z" fill="#C8C8D2"/>
<path d="M60.3041 26.2998L60.3048 22.8662H60.3041C53.3433 22.8662 47.3806 27.216 44.9893 33.3408L48.189 34.5861C50.0813 29.7412 54.7979 26.2998 60.3041 26.2998Z" fill="white"/>
<path d="M47.2939 39.2988H43.8604C43.8604 46.2045 48.1432 52.1262 54.1917 54.5538L55.4669 51.3666C50.6818 49.446 47.2939 44.7617 47.2939 39.2988Z" fill="#C8C8D2"/>
<path d="M60.3008 52.2987V55.7331C68.4997 55.7331 75.3149 49.6972 76.5389 41.8359H73.0511C71.868 47.7947 66.6011 52.2987 60.3008 52.2987Z" fill="white"/>
</svg>
