<svg width="216" height="80" viewBox="0 0 216 80" fill="none" xmlns="http://www.w3.org/2000/svg">
<rect width="216" height="80" rx="7" fill="#343642" fill-opacity="0.6"/>
<path fill-rule="evenodd" clip-rule="evenodd" d="M136.958 35.9044H149.575C151.544 35.9044 152.798 37.5156 152.362 39.4842L150.114 49.6313C149.678 51.6 147.71 53.2109 145.741 53.2109H133.124C131.156 53.2109 129.901 51.6002 130.338 49.6313L132.585 39.4842C133.022 37.5151 134.989 35.9044 136.958 35.9044ZM139.245 39.9783H145.483C146.525 39.9783 147.189 40.8308 146.958 41.8724L145.768 47.2432C145.538 48.2847 144.496 49.1372 143.454 49.1372H137.216C136.174 49.1372 135.51 48.2849 135.741 47.2432L136.931 41.8724C137.162 40.8304 138.203 39.9783 139.245 39.9783Z" fill="white"/>
<path fill-rule="evenodd" clip-rule="evenodd" d="M157.756 35.9044H170.373C172.342 35.9044 173.596 37.5156 173.16 39.4842L170.912 49.6313C170.476 51.6 168.508 53.2109 166.539 53.2109H153.922C151.953 53.2109 150.699 51.6002 151.135 49.6313L153.383 39.4842C153.82 37.5151 155.787 35.9044 157.756 35.9044ZM160.043 39.9783H166.281C167.324 39.9783 167.987 40.8308 167.756 41.8724L166.566 47.2432C166.336 48.2847 165.294 49.1372 164.252 49.1372H158.014C156.972 49.1372 156.308 48.2849 156.539 47.2432L157.729 41.8724C157.96 40.8304 159.001 39.9783 160.043 39.9783Z" fill="white"/>
<path fill-rule="evenodd" clip-rule="evenodd" d="M174.984 35.9044H190.127C192.096 35.9044 193.35 37.516 192.914 39.4842L190.666 49.6313C190.23 51.5993 188.261 53.212 186.293 53.2109L171.15 53.2037L174.984 35.9044ZM178.943 39.9783H186.035C187.077 39.9783 187.741 40.831 187.51 41.8724L186.32 47.2432C186.09 48.2842 185.048 49.1372 184.006 49.1372H176.907" fill="white"/>
<path fill-rule="evenodd" clip-rule="evenodd" d="M128.505 53.0742H113.363C111.394 53.0742 110.14 51.4626 110.576 49.4943L112.824 39.3474C113.26 37.3791 115.228 35.7666 117.197 35.7677L132.339 35.7748L128.505 53.0742ZM124.547 49.0003H117.454C116.412 49.0003 115.749 48.1474 115.979 47.1064L117.169 41.7353C117.4 40.6943 118.442 39.8412 119.483 39.8412H126.582" fill="white"/>
<path fill-rule="evenodd" clip-rule="evenodd" d="M76.6486 35.9036H88.2227C90.1917 35.9036 91.4456 37.5145 91.0096 39.4833L89.3662 46.9014H84.4917L85.606 41.8715C85.8366 40.8296 85.1727 39.9774 84.131 39.9774H76.9599C75.9185 39.9774 76.8521 40.8301 76.6216 41.8715L75.522 46.8342H70.6475L72.276 39.4833C72.7121 37.5143 74.6795 35.9036 76.6486 35.9036Z" fill="white"/>
<path fill-rule="evenodd" clip-rule="evenodd" d="M69.2705 53.0742L72.5977 38.0984H77.459L74.1265 53.0742" fill="white"/>
<path fill-rule="evenodd" clip-rule="evenodd" d="M108.748 53.0742H92.5629C90.5942 53.0742 89.34 51.4629 89.7761 49.4943L90.4282 46.5501H90.4312L90.5566 45.9839C90.9924 44.0155 92.961 42.4034 94.9293 42.4042L106.254 42.4093L106.421 41.6575C106.599 40.6763 105.98 39.8811 105.008 39.8413H91.8981L92.8005 35.7693L109.07 35.774C110.998 35.812 112.217 37.4072 111.786 39.3525L111.48 40.7345H111.483L111.111 42.4114H111.115L109.206 51.0257H109.202L108.748 53.0742H108.748ZM96.1672 49.0003H104.79L105.35 46.4778H96.8754C96.8347 46.4737 96.7927 46.4713 96.7498 46.4713C96.0556 46.4713 95.3625 47.0391 95.2095 47.7333C95.058 48.4194 95.4885 48.9818 96.1685 48.9952C96.1681 48.9969 96.1678 48.9987 96.1671 49.0003" fill="white"/>
<path fill-rule="evenodd" clip-rule="evenodd" d="M136.958 35.9044H149.575C151.544 35.9044 152.798 37.5156 152.362 39.4842L150.114 49.6313C149.678 51.6 147.71 53.2109 145.741 53.2109H133.124C131.156 53.2109 129.901 51.6002 130.338 49.6313L132.585 39.4842C133.022 37.5151 134.989 35.9044 136.958 35.9044ZM139.245 39.9783H145.483C146.525 39.9783 147.189 40.8308 146.958 41.8724L145.768 47.2432C145.538 48.2847 144.496 49.1372 143.454 49.1372H137.216C136.174 49.1372 135.51 48.2849 135.741 47.2432L136.931 41.8724C137.162 40.8304 138.203 39.9783 139.245 39.9783Z" fill="white"/>
<path fill-rule="evenodd" clip-rule="evenodd" d="M157.756 35.9044H170.373C172.342 35.9044 173.596 37.5156 173.16 39.4842L170.912 49.6313C170.476 51.6 168.508 53.2109 166.539 53.2109H153.922C151.953 53.2109 150.699 51.6002 151.135 49.6313L153.383 39.4842C153.82 37.5151 155.787 35.9044 157.756 35.9044ZM160.043 39.9783H166.281C167.324 39.9783 167.987 40.8308 167.756 41.8724L166.566 47.2432C166.336 48.2847 165.294 49.1372 164.252 49.1372H158.014C156.972 49.1372 156.308 48.2849 156.539 47.2432L157.729 41.8724C157.96 40.8304 159.001 39.9783 160.043 39.9783Z" fill="white"/>
<path fill-rule="evenodd" clip-rule="evenodd" d="M174.987 35.9004L171.825 50.1464L171.151 53.2003L169.869 59.0002H174.72L176.01 53.2003L186.295 53.2086C188.263 53.2097 190.228 51.5985 190.664 49.6305L192.911 39.4869C193.347 37.5187 192.092 35.9004 190.123 35.9004H174.987V35.9004ZM178.939 39.9778H186.037C187.08 39.9778 187.741 40.8337 187.51 41.8751L186.32 47.2423C186.09 48.2832 185.049 49.1395 184.007 49.1395H176.909L178.939 39.9778Z" fill="white"/>
<path fill-rule="evenodd" clip-rule="evenodd" d="M128.771 29.9766L127.481 35.7765L117.196 35.7682C115.228 35.7671 113.263 37.378 112.827 39.3463L110.572 49.4983C110.136 51.4665 111.391 53.0764 113.36 53.0764H128.504L132.34 35.7765L133.622 29.9766H128.771V29.9766ZM119.484 39.8456H126.582L124.543 48.999H117.454C116.411 48.999 115.75 48.151 115.981 47.11L117.171 41.7345C117.401 40.6934 118.442 39.8456 119.484 39.8456Z" fill="white"/>
<path fill-rule="evenodd" clip-rule="evenodd" d="M74.3817 29.9766L72.4179 38.8304H72.4429L72.3596 39.1799C72.3285 39.2811 72.2993 39.3843 72.2764 39.4878L70.6455 46.8354H70.6621L69.2725 53.0764H74.1238L75.5134 46.8354H75.5217L76.6201 41.876C76.622 41.8681 76.6185 41.8589 76.6201 41.851L77.0445 39.9787H84.1259C85.1676 39.9787 85.8377 40.8341 85.6071 41.876L84.492 46.902L83.1273 53.0764H87.987L89.36 46.902H89.3683L91.0076 39.4878C91.4436 37.5189 90.1889 35.9013 88.2199 35.9013H77.9265L79.2413 29.9766H74.3817L74.3817 29.9766Z" fill="white"/>
<path fill-rule="evenodd" clip-rule="evenodd" d="M108.748 53.0742H92.5629C90.5942 53.0742 89.34 51.4629 89.7761 49.4943L90.4282 46.5501H90.4312L90.5566 45.9839C90.9924 44.0155 92.961 42.4034 94.9293 42.4042L106.254 42.4093L106.421 41.6575C106.599 40.6763 105.98 39.8811 105.008 39.8413H91.8981L92.8005 35.7693L109.07 35.774C110.998 35.812 112.217 37.4072 111.786 39.3525L111.48 40.7345H111.483L111.111 42.4114H111.115L109.206 51.0257H109.202L108.748 53.0742H108.748ZM96.1672 49.0003H104.79L105.35 46.4778H96.8754C96.8347 46.4737 96.7927 46.4713 96.7498 46.4713C96.0556 46.4713 95.3625 47.0391 95.2095 47.7333C95.058 48.4194 95.4885 48.9818 96.1685 48.9952C96.1681 48.9969 96.1678 48.9987 96.1671 49.0003" fill="white"/>
<path fill-rule="evenodd" clip-rule="evenodd" d="M28.3859 42.4507C28.1869 42.9926 27.9875 43.5346 27.7884 44.0768C27.2954 44.5647 26.8024 45.0534 26.3093 45.5416C25.7702 46.0756 25.6543 46.0719 25.7809 46.8273C25.9296 47.7149 26.3563 48.6295 27.1419 49.4172C27.9679 50.2451 29.7021 51.4168 30.9499 50.8645C30.834 51.2838 30.68 51.7235 30.484 52.1533C29.6472 53.9881 31.6865 54.3475 33.1137 54.7335C34.2998 55.0542 37.2106 55.9088 37.6307 54.3499C37.8196 53.6485 37.8489 53.2716 37.7816 52.6019C38.1507 51.7781 38.2686 51.6468 38.5741 51.1934C38.9933 50.5716 38.9632 50.335 38.8715 49.5634C38.8537 49.4147 38.8321 49.2525 38.8071 49.0821C40.2196 49.2946 41.5776 49.292 42.9617 49.1203C42.5415 49.3652 42.12 49.5796 41.5642 49.8654C40.245 50.5435 41.4881 52.5442 42.0567 53.4203C43.25 55.2591 44.3199 56.5242 46.3356 55.4335C47.0128 55.0669 47.065 54.6765 47.4877 54.0455C47.7211 53.9174 48.9241 52.8943 49.6396 52.3163C49.9108 52.6416 50.4298 52.7015 51.217 52.7584C51.6131 52.7872 53.1664 52.7774 53.5781 52.78C54.8134 52.7878 55.5547 52.6595 55.6513 51.3133C55.6971 50.675 55.6697 50.5392 55.3556 49.9812C55.3366 49.277 55.3179 48.5726 55.2991 47.8686C55.2776 47.0753 55.1261 46.5888 54.8149 45.8477C54.5318 45.1747 54.3733 44.6003 54.0428 43.9477C54.0882 43.6918 54.1241 43.4278 54.1486 43.1519C54.5685 43.5564 54.9884 43.9612 55.4084 44.3658C56.2089 45.1369 56.8704 45.7667 58.091 45.7091C59.3622 45.6492 60.8175 44.6477 61.1902 43.4227C61.3145 43.0138 61.4384 42.605 61.5626 42.1963C63.4796 42.5586 65.72 42.4756 67.3892 41.585C69.8441 40.2749 70.9927 37.6408 71.275 34.8544C71.5034 32.6003 71.0638 28.8099 69.9891 26.7532C69.6731 26.1484 68.2462 25.3832 67.6206 26.0171C67.1493 26.4948 66.8256 27.2225 66.3168 27.6573C65.9227 27.994 65.4345 28.1608 65.0067 28.337C64.6755 27.4429 64.1995 26.748 63.6167 26.0536C63.1533 25.5017 62.7166 25.2267 62.1054 24.844C60.8977 24.0877 59.9605 23.1329 58.8616 22.227C55.5363 19.4851 52.6807 19.5692 48.5374 21.3131C46.5607 22.1452 45.6073 23.2744 44.3949 24.8962C43.6623 24.9344 43.1589 25.0763 42.3845 25.7598C41.8128 26.2643 41.2806 26.7833 40.7654 27.3211C36.8925 27.9383 34.4872 28.6764 31.9425 30.9323C30.907 31.8503 30.1543 32.8677 29.5671 34.0113C29.022 34.6136 28.4801 35.2311 27.7604 35.5082C27.2537 35.703 27.2632 35.7025 27.0847 35.226C27.6871 34.7733 27.6776 33.9211 27.7333 33.1498C28.1134 33.1679 28.2558 33.5941 28.5142 33.9203C28.6667 33.2383 28.7551 32.179 28.0373 31.8072C28.154 31.4952 28.2861 31.1807 28.4071 30.8366C27.3483 31.0204 23.7183 33.4672 25.6551 35.3333C25.7826 35.8514 25.883 36.2083 26.0514 36.5587C26.4946 37.4803 27.491 37.6382 28.3593 37.2996C28.1214 38.3906 28.0732 39.5776 28.2164 41.244C28.2507 41.6435 28.3084 42.0465 28.3859 42.4507Z" fill="black"/>
<path d="M28.6199 42.5349C28.54 42.7527 28.4597 42.9708 28.3797 43.1887L27.9197 43.02C27.9997 42.8022 28.08 42.584 28.1599 42.3663L28.6199 42.5349ZM28.3797 43.1887C28.2607 43.5126 28.1414 43.837 28.0224 44.161L27.5624 43.9923C27.6813 43.6683 27.8006 43.3439 27.9197 43.02L28.3797 43.1887ZM28.0224 44.161L27.9649 44.2501L27.7924 44.0766L28.0224 44.161ZM27.9649 44.2501C27.7037 44.5086 27.4423 44.7676 27.181 45.0263L26.8361 44.6795C27.0973 44.4207 27.3587 44.1617 27.6199 43.9032L27.9649 44.2501ZM27.181 45.0263C26.9494 45.2558 26.7174 45.4855 26.4857 45.7149L26.1408 45.368C26.3725 45.1387 26.6044 44.9089 26.8361 44.6795L27.181 45.0263ZM26.4857 45.7149C26.3798 45.8197 26.3438 45.8543 26.3119 45.8851L25.9727 45.5305C26.0434 45.4624 26.1215 45.3871 26.1408 45.368L26.4857 45.7149ZM26.3119 45.8851C25.9981 46.1872 25.936 46.2471 26.0264 46.7869L25.5433 46.8675C25.4101 46.0722 25.5031 45.9825 25.9727 45.5305L26.3119 45.8851ZM26.0264 46.7869C26.0993 47.2215 26.2438 47.6649 26.4706 48.0966L26.0355 48.3247C25.7852 47.8484 25.625 47.3548 25.5433 46.8675L26.0264 46.7869ZM26.4706 48.0966C26.6812 48.4975 26.9616 48.8857 27.3193 49.2445L26.9725 49.5895C26.5754 49.1913 26.2662 48.7637 26.0355 48.3247L26.4706 48.0966ZM27.3193 49.2445C27.7771 49.7035 28.5244 50.2721 29.3021 50.5676L29.1296 51.0258C28.2797 50.7029 27.468 50.0862 26.9725 49.5895L27.3193 49.2445ZM29.3021 50.5676C29.8431 50.7732 30.3945 50.844 30.8552 50.6401L31.0526 51.0886C30.4583 51.3517 29.7805 51.2732 29.1296 51.0258L29.3021 50.5676ZM30.8552 50.6401L31.3286 50.4306L31.1906 50.9296L30.9539 50.8644L30.8552 50.6401ZM31.1906 50.9296C31.1291 51.1521 31.0571 51.3804 30.9744 51.6093L30.5125 51.4425C30.591 51.2252 30.6592 51.0093 30.7172 50.7992L31.1906 50.9296ZM30.9744 51.6093C30.8971 51.8228 30.8097 52.0392 30.7113 52.2548L30.2647 52.0516C30.3559 51.8515 30.4385 51.6469 30.5125 51.4425L30.9744 51.6093ZM30.7113 52.2548C30.2968 53.1636 30.7312 53.6422 31.4045 53.9493L31.2013 54.3959C30.2801 53.9758 29.6882 53.3158 30.2647 52.0516L30.7113 52.2548ZM31.4045 53.9493C31.8348 54.1454 32.3554 54.281 32.8393 54.4071L32.7166 54.8805C32.2082 54.7482 31.6613 54.6056 31.2013 54.3959L31.4045 53.9493ZM32.8393 54.4071C32.9671 54.4402 33.091 54.4726 33.18 54.4966L33.0554 54.9701C32.9244 54.9346 32.8204 54.9074 32.7166 54.8805L32.8393 54.4071ZM33.18 54.4966C33.7634 54.6544 34.7721 54.9436 35.6788 55.0011L35.6481 55.4917C34.698 55.4315 33.6577 55.1329 33.0554 54.9701L33.18 54.4966ZM35.6788 55.0011C36.4983 55.053 37.2289 54.915 37.3979 54.2875L37.8714 54.4121C37.6205 55.3432 36.6852 55.5575 35.6481 55.4917L35.6788 55.0011ZM37.3979 54.2875C37.4874 53.9551 37.5393 53.6984 37.5609 53.4438L38.0515 53.484C38.0281 53.7606 37.9706 54.0432 37.8714 54.4121L37.3979 54.2875ZM37.5609 53.4438C37.5826 53.1881 37.5737 52.9397 37.5422 52.6248L38.029 52.5787C38.0645 52.9333 38.0748 53.2086 38.0515 53.484L37.5609 53.4438ZM37.5422 52.6248L37.5613 52.5021L37.7856 52.6018L37.5422 52.6248ZM37.5613 52.5021C37.8914 51.7653 38.0274 51.5663 38.2676 51.2145L38.672 51.4906C38.4499 51.8158 38.3242 52 38.0099 52.7014L37.5613 52.5021ZM38.2676 51.2145C38.2922 51.1786 38.3131 51.148 38.3749 51.0563L38.7812 51.3303C38.7656 51.3535 38.7145 51.4283 38.672 51.4906L38.2676 51.2145ZM38.3749 51.0563C38.5622 50.7784 38.6484 50.5928 38.6759 50.4009L39.1609 50.4681C39.1214 50.7428 39.0128 50.9865 38.7812 51.3303L38.3749 51.0563ZM38.6759 50.4009C38.7047 50.1994 38.6757 49.9588 38.6321 49.5911L39.1189 49.5354C39.1668 49.9392 39.1988 50.2031 39.1609 50.4681L38.6759 50.4009ZM38.6321 49.5911C38.6201 49.4906 38.6102 49.4112 38.6033 49.3593L39.0882 49.298C39.1029 49.4082 39.1131 49.4861 39.1189 49.5354L38.6321 49.5911ZM38.6033 49.3593C38.5978 49.3177 38.5856 49.234 38.5686 49.1175L39.0536 49.0465C39.0612 49.0987 39.0726 49.1801 39.0882 49.298L38.6033 49.3593ZM38.5686 49.1175L38.5208 48.7902L38.8475 48.8395L38.8111 49.082L38.5686 49.1175ZM38.8475 48.8395C39.5415 48.9438 40.2225 48.9955 40.9 48.9999L40.8981 49.4905C40.1977 49.486 39.4931 49.4325 38.7747 49.3245L38.8475 48.8395ZM40.9 48.9999C41.5795 49.0042 42.2553 48.9613 42.9369 48.8768L42.9945 49.3636C42.2921 49.4507 41.5965 49.4949 40.8981 49.4905L40.9 48.9999ZM42.9369 48.8768L43.0884 49.3329L42.9657 49.1202L42.9369 48.8768ZM43.0884 49.3329C42.6924 49.5636 42.2971 49.7669 41.7928 50.026L41.5686 49.5889C42.0663 49.3332 42.4564 49.1326 42.843 48.9074L43.0884 49.3329ZM41.7928 50.026C41.756 50.0448 41.7183 50.0643 41.6803 50.0838L41.4561 49.6468C41.4941 49.6273 41.5318 49.6078 41.5686 49.5889L41.7928 50.026ZM41.6803 50.0838C41.162 50.3502 41.1573 50.9097 41.3403 51.4956L40.8727 51.6413C40.6219 50.8385 40.6553 50.0584 41.4561 49.6468L41.6803 50.0838ZM41.3403 51.4956C41.548 52.1606 41.9889 52.8604 42.2658 53.2869L41.8555 53.5534C41.5639 53.104 41.0988 52.3651 40.8727 51.6413L41.3403 51.4956ZM42.2658 53.2869C42.8452 54.18 43.3917 54.9319 44.0192 55.3164L43.7643 55.7342C43.0547 55.2994 42.4691 54.4991 41.8555 53.5534L42.2658 53.2869ZM44.0192 55.3164C44.6121 55.6799 45.3054 55.7136 46.2236 55.2167L46.4556 55.6499C45.3583 56.2438 44.5084 56.1904 43.7643 55.7342L44.0192 55.3164ZM46.2236 55.2167C46.6576 54.9819 46.8032 54.7268 46.9994 54.3831L47.4268 54.6246C47.1898 55.0398 47.0138 55.3478 46.4556 55.6499L46.2236 55.2167ZM46.9994 54.3831C47.0774 54.2464 47.1631 54.0966 47.2885 53.9093L47.6948 54.1814C47.5944 54.3313 47.5067 54.4847 47.4268 54.6246L46.9994 54.3831ZM47.2885 53.9093L47.3738 53.8298L47.4916 54.0453L47.2885 53.9093ZM47.3738 53.8298C47.517 53.7511 48.1289 53.2457 48.7239 52.7539L49.0364 53.1315C48.4211 53.6401 47.7881 54.163 47.6095 54.2609L47.3738 53.8298ZM48.7239 52.7539C49.0303 52.5009 49.3325 52.2511 49.4893 52.1245L49.7979 52.5078C49.5108 52.7397 49.2747 52.9347 49.0364 53.1315L48.7239 52.7539ZM49.4893 52.1245L49.6773 51.9727L49.8324 52.159L49.6436 52.3162L49.4893 52.1245ZM49.8324 52.159C49.9302 52.2763 50.085 52.3489 50.2953 52.3993L50.1822 52.8765C49.8686 52.8015 49.6279 52.681 49.4548 52.4734L49.8324 52.159ZM50.2953 52.3993C50.5367 52.457 50.8539 52.4853 51.2382 52.513L51.2037 53.0036C50.8009 52.9745 50.4647 52.9441 50.1822 52.8765L50.2953 52.3993ZM51.2382 52.513C51.5396 52.5348 52.5023 52.5343 53.124 52.5341V53.0247C52.4888 53.025 51.5053 53.0255 51.2037 53.0036L51.2382 52.513ZM53.124 52.5341C53.3212 52.534 53.485 52.534 53.583 52.5346L53.581 53.0252C53.4832 53.0246 53.3201 53.0247 53.1239 53.0247V52.5341H53.124ZM53.583 52.5346C54.1624 52.5382 54.6217 52.5124 54.9249 52.3406L55.1664 52.768C54.7662 52.9947 54.2369 53.0293 53.5812 53.0252L53.5832 52.5346H53.583ZM54.9249 52.3406C55.202 52.1836 55.3685 51.8743 55.41 51.2959L55.9006 51.3305C55.8456 52.0981 55.5929 52.5264 55.1664 52.768L54.9249 52.3406ZM55.41 51.2959C55.4312 50.9988 55.4362 50.8216 55.4028 50.6697L55.8819 50.5642C55.9292 50.7792 55.9249 50.9894 55.9006 51.3305L55.41 51.2959ZM55.4028 50.6697C55.3694 50.5176 55.2907 50.36 55.1449 50.1009L55.5742 49.8612C55.7424 50.1599 55.8347 50.3495 55.8819 50.5642L55.4028 50.6697ZM55.1449 50.1009L55.1143 49.9868L55.3596 49.981L55.1449 50.1009ZM55.1143 49.9868C55.1048 49.6348 55.0952 49.2825 55.0859 48.9305L55.5766 48.9189C55.5858 49.271 55.5955 49.6233 55.6049 49.9753L55.1143 49.9868ZM55.0859 48.9305C55.0766 48.5784 55.067 48.2261 55.0578 47.8742L55.5484 47.8627C55.5576 48.2146 55.5672 48.5669 55.5766 48.9189L55.0859 48.9305ZM55.0578 47.8742C55.0476 47.4962 55.0067 47.1929 54.932 46.8979L55.4073 46.7791C55.4914 47.1107 55.5372 47.4476 55.5484 47.8627L55.0578 47.8742ZM54.932 46.8979C54.8566 46.6008 54.7443 46.3036 54.5927 45.9425L55.045 45.7527C55.2045 46.1325 55.3237 46.4494 55.4073 46.7791L54.932 46.8979ZM54.5927 45.9425C54.4853 45.6872 54.3933 45.4392 54.3032 45.196L54.7633 45.0273C54.8492 45.2591 54.9368 45.4955 55.045 45.7527L54.5927 45.9425ZM54.7633 45.0264V45.0273L54.5333 45.1117L54.7633 45.0264ZM54.3032 45.197C54.163 44.8188 54.0269 44.452 53.8273 44.0578L54.2662 43.8374C54.4758 44.2511 54.6174 44.6328 54.7633 45.0264L54.3032 45.197ZM53.8273 44.0578L53.8052 43.9054L54.0468 43.9476L53.8273 44.0578ZM53.8052 43.9054C53.8294 43.7686 53.8497 43.6416 53.8651 43.5266L54.35 43.5879C54.33 43.7376 54.3093 43.8709 54.2883 43.9897L53.8052 43.9054ZM53.8651 43.5266C53.8789 43.4221 53.8931 43.2913 53.9072 43.1317L54.3978 43.1719C54.3876 43.2879 54.3713 43.4276 54.35 43.5879L53.8651 43.5266ZM53.9072 43.1317L53.9529 42.6187L54.3222 42.9745L54.1525 43.1518L53.9072 43.1317ZM54.3222 42.9745C54.5624 43.2059 54.8028 43.4376 55.043 43.6691L54.7037 44.0236C54.4635 43.7922 54.2231 43.5605 53.9829 43.3291L54.3222 42.9745ZM55.043 43.6691L55.582 44.1883L55.2427 44.5429L54.7037 44.0236L55.043 43.6691ZM55.582 44.1883C55.971 44.5631 56.3263 44.9036 56.7207 45.1363L56.4716 45.56C56.03 45.2994 55.6541 44.9393 55.2427 44.5429L55.582 44.1883ZM56.7207 45.1363C57.1 45.3601 57.5278 45.4899 58.0835 45.4636L58.1065 45.9542C57.4417 45.9857 56.9282 45.8293 56.4716 45.56L56.7207 45.1363ZM58.0835 45.4636C58.6832 45.4354 59.3309 45.178 59.8694 44.7808L60.1608 45.1755C59.5475 45.628 58.8028 45.9214 58.1065 45.9542L58.0835 45.4636ZM59.8694 44.7808C60.3832 44.4018 60.7929 43.8989 60.9593 43.3517L61.429 43.4935C61.2302 44.147 60.754 44.7378 60.1608 45.1755L59.8694 44.7808ZM60.9593 43.3517C61.0167 43.1628 61.0742 42.9737 61.1314 42.7849L61.6011 42.9268C61.5438 43.1156 61.4864 43.3047 61.429 43.4935L60.9593 43.3517ZM61.1314 42.7849C61.198 42.565 61.265 42.3449 61.3318 42.1252L61.8014 42.2671C61.7347 42.4868 61.6677 42.707 61.6011 42.9268L61.1314 42.7849ZM61.3318 42.1252L61.3957 41.9148L61.6116 41.9556L61.5666 42.1961L61.3318 42.1252ZM61.6116 41.9556C62.605 42.1434 63.6868 42.2089 64.7265 42.1L64.7744 42.5868C63.6874 42.7008 62.5578 42.6324 61.5216 42.4366L61.6116 41.9556ZM64.7265 42.1C65.6399 42.0042 66.5209 41.7723 67.2781 41.3683L67.5082 41.8015C66.6946 42.2357 65.7511 42.4844 64.7744 42.5868L64.7265 42.1ZM67.2781 41.3683C68.3873 40.7763 69.2203 39.902 69.8201 38.863L70.2457 39.1064C69.6012 40.2228 68.7043 41.1632 67.5082 41.8015L67.2781 41.3683ZM69.8201 38.863V38.862L70.0329 38.9846L69.8201 38.8629V38.863ZM69.8201 38.862C70.5055 37.6748 70.8894 36.2741 71.0356 34.8312L71.5224 34.8772C71.3692 36.3899 70.9659 37.8597 70.2457 39.1073L69.8201 38.862ZM71.0356 34.8312C71.1546 33.6553 71.0887 32.0516 70.8425 30.5006L71.3256 30.4239C71.5781 32.0146 71.6453 33.664 71.5224 34.8772L71.0356 34.8312ZM70.8425 30.5006C70.6254 29.1325 70.2683 27.8094 69.7755 26.8661L70.2107 26.6399C70.7278 27.6297 71.1007 29.0061 71.3256 30.4239L70.8425 30.5006ZM69.7755 26.8661C69.7369 26.7922 69.6728 26.7115 69.5904 26.6302L69.9335 26.2794C70.0518 26.3963 70.1476 26.519 70.2107 26.6399L69.7755 26.8661ZM69.5904 26.6302C69.3801 26.4227 69.0676 26.2262 68.744 26.1148L68.903 25.651C69.2961 25.7862 69.6765 26.0259 69.9335 26.2794L69.5904 26.6302ZM68.744 26.1148C68.4437 26.0115 68.1412 25.983 67.9251 26.096L67.6988 25.6608C68.0475 25.4786 68.4866 25.5078 68.903 25.651L68.744 26.1148ZM67.9251 26.096C67.8798 26.1196 67.8375 26.1503 67.8 26.1884L67.4492 25.8454C67.5243 25.7692 67.6083 25.708 67.6988 25.6608L67.9251 26.096ZM67.8 26.1884C67.5994 26.3918 67.4233 26.6489 67.2469 26.9066L66.8425 26.6305C67.0331 26.352 67.2234 26.0743 67.4492 25.8454L67.8 26.1884ZM67.2469 26.9066C67.0148 27.2456 66.7816 27.5861 66.4798 27.844L66.1617 27.4702C66.4169 27.2521 66.6302 26.9406 66.8425 26.6305L67.2469 26.9066ZM66.4798 27.844C66.1104 28.1597 65.682 28.3315 65.2842 28.491L65.1021 28.035C65.4639 27.89 65.8533 27.7336 66.1617 27.4702L66.4798 27.844ZM65.2842 28.491C65.2149 28.5188 65.1468 28.5462 65.1036 28.5639L64.9178 28.1097C64.994 28.0784 65.0482 28.0566 65.1021 28.035L65.2842 28.491ZM65.1036 28.5639L64.8694 28.6604L64.7806 28.4211L65.0107 28.3368L65.1036 28.5639ZM64.7806 28.4211C64.622 27.9928 64.4274 27.6102 64.2021 27.2505L64.618 26.9899C64.8591 27.3747 65.0683 27.7869 65.2407 28.2525L64.7806 28.4211ZM64.2021 27.2505C63.9744 26.887 63.7163 26.5484 63.4328 26.2106L63.8086 25.8962C64.1077 26.2527 64.3794 26.609 64.618 26.9899L64.2021 27.2505ZM63.4328 26.2106C63.2139 25.9498 63.0014 25.7545 62.7719 25.5798L63.0689 25.1907C63.3263 25.3867 63.5642 25.6052 63.8086 25.8962L63.4328 26.2106ZM62.7719 25.5798C62.5429 25.4053 62.2827 25.2418 61.9791 25.0518L62.2397 24.6359C62.5471 24.8283 62.811 24.9941 63.0689 25.1907L62.7719 25.5798ZM61.9791 25.0518C61.1237 24.5161 60.4067 23.8872 59.6753 23.2455L59.9972 22.8757C60.7132 23.5038 61.4151 24.1195 62.2397 24.6359L61.9791 25.0518ZM59.6753 23.2455C59.3673 22.9755 59.0566 22.7029 58.7093 22.4165L59.0218 22.037C59.3433 22.3021 59.6718 22.5902 59.9972 22.8757L59.6753 23.2455ZM58.7093 22.4165C57.0891 21.0806 55.5886 20.4334 53.9948 20.333L54.0255 19.8424C55.7265 19.9494 57.3169 20.6313 59.0218 22.037L58.7093 22.4165ZM53.9948 20.333C52.3891 20.2319 50.6733 20.6816 48.6363 21.5391L48.4464 21.0868C50.5524 20.2003 52.3364 19.7361 54.0255 19.8424L53.9948 20.333ZM48.6363 21.5391C47.6763 21.9431 46.9658 22.4184 46.3493 22.9885L46.0178 22.6281C46.6751 22.0202 47.43 21.5145 48.4464 21.0868L48.6363 21.5391ZM46.3493 22.9885C45.7282 23.5629 45.1942 24.2415 44.5953 25.0426L44.2024 24.7494C44.8158 23.9288 45.3652 23.2316 46.0178 22.6281L46.3493 22.9885ZM44.5953 25.0426L44.5261 25.1353L44.4113 25.1413L44.3989 24.896L44.5953 25.0426ZM44.4113 25.1413C44.0702 25.159 43.7845 25.2003 43.5004 25.3139L43.3183 24.8578C43.6623 24.7202 43.9949 24.671 44.3864 24.6507L44.4113 25.1413ZM43.5004 25.3139C43.2119 25.4292 42.9146 25.6221 42.5504 25.9436L42.2264 25.5756C42.6364 25.2138 42.9785 24.9937 43.3183 24.8578L43.5004 25.3139ZM42.5504 25.9436C42.2699 26.1911 41.9966 26.4446 41.7283 26.7041L41.3871 26.3515C41.6564 26.091 41.9353 25.8324 42.2264 25.5756L42.5504 25.9436ZM41.7283 26.7041L41.7273 26.7051L41.5577 26.5279L41.7283 26.7042V26.7041ZM41.7273 26.7051C41.4615 26.9622 41.202 27.2241 40.9467 27.4906L40.5921 27.1513C40.8517 26.8804 41.1162 26.6134 41.3881 26.3506L41.7273 26.7051ZM40.9467 27.4906L40.8077 27.5625L40.7694 27.321L40.9467 27.4906ZM40.8077 27.5625C38.89 27.8681 37.3359 28.2035 35.9479 28.7411L35.7717 28.283C37.1907 27.7334 38.776 27.391 40.7311 27.0794L40.8077 27.5625ZM35.9479 28.7411C34.5719 29.2741 33.3575 30.0089 32.1085 31.1162L31.7845 30.7482C33.0799 29.5997 34.341 28.8371 35.7717 28.283L35.9479 28.7411ZM32.1085 31.1162C31.6024 31.5648 31.1659 32.037 30.7852 32.5356L30.3961 32.2386C30.7972 31.7132 31.2552 31.2174 31.7845 30.7482L32.1085 31.1162ZM30.7852 32.5356C30.4043 33.0343 30.077 33.5624 29.7896 34.1223L29.3526 33.9C29.6521 33.3164 29.9951 32.7638 30.3961 32.2386L30.7852 32.5356ZM29.7896 34.1223L29.7532 34.175L29.5711 34.0111L29.7896 34.1223ZM29.7532 34.175C29.4742 34.4833 29.1958 34.7958 28.8971 35.0646L28.5694 34.6985C28.8577 34.4389 29.123 34.1412 29.389 33.8473L29.7532 34.175ZM28.8971 35.0646C28.5841 35.3464 28.2447 35.5861 27.8525 35.7371L27.6762 35.2789C28.0035 35.1529 28.2954 34.9452 28.5694 34.6985L28.8971 35.0646ZM27.8525 35.7371H27.8516L27.7644 35.508L27.8525 35.7371ZM27.8516 35.7371C27.5368 35.8581 27.3829 35.9187 27.2086 35.8449L27.3984 35.3925C27.4063 35.3959 27.4854 35.3526 27.6772 35.2789L27.8516 35.7371ZM27.2086 35.8449L27.2076 35.8439L27.3035 35.6187L27.2086 35.8448V35.8449ZM27.2076 35.8439C27.0237 35.7659 26.9724 35.6148 26.8586 35.3111L27.3187 35.1405C27.3833 35.3132 27.382 35.3861 27.3993 35.3935L27.2076 35.8439ZM26.8586 35.3111L26.7946 35.1402L26.942 35.0294L27.0886 35.2258L26.8586 35.3111ZM26.942 35.0294C27.3928 34.6906 27.4356 34.016 27.4766 33.3663L27.9672 33.3971C27.9193 34.1568 27.8692 34.9459 27.2353 35.4222L26.942 35.0294ZM27.4766 33.3663C27.4819 33.2813 27.4874 33.1968 27.492 33.1323L27.9826 33.1669C27.9762 33.2556 27.9717 33.3266 27.9672 33.3971L27.4766 33.3663ZM27.492 33.1323L27.5094 32.893L27.7488 32.9043L27.7373 33.1496L27.492 33.1323ZM27.7488 32.9043C28.1535 32.9235 28.3379 33.209 28.5367 33.517L28.1246 33.7816C27.9975 33.5848 27.8796 33.4022 27.7258 33.3949L27.7488 32.9043ZM28.5367 33.517C28.5922 33.603 28.6494 33.6915 28.7099 33.7678L28.3266 34.0726C28.2504 33.9763 28.1866 33.8776 28.1246 33.7816L28.5367 33.517ZM28.7578 33.9729L28.6456 34.4749L28.3266 34.0726L28.5182 33.9202L28.7578 33.9729ZM28.2787 33.8674C28.3615 33.4969 28.425 33.0111 28.3353 32.6134L28.8125 32.506C28.9222 32.9918 28.8519 33.5521 28.7578 33.9729L28.2787 33.8674ZM28.3353 32.6134C28.2783 32.3605 28.1562 32.1431 27.9292 32.0256L28.1534 31.5886C28.5287 31.783 28.7255 32.12 28.8125 32.506L28.3353 32.6134ZM27.9292 32.0256L27.7352 31.9251L27.8113 31.7218L28.0413 31.8071L27.9292 32.0256ZM27.8113 31.7218C27.8475 31.6249 27.9003 31.4903 27.9545 31.3521L28.4106 31.5304C28.3681 31.6386 28.3256 31.7475 28.2713 31.8924L27.8113 31.7218ZM27.9545 31.3521C28.0268 31.1676 28.101 30.9783 28.1792 30.756L28.643 30.917C28.5731 31.1156 28.4907 31.3258 28.4106 31.5304L27.9545 31.3521ZM28.3698 30.5949L28.7814 30.5235L28.643 30.917L28.411 30.8365L28.3698 30.5949ZM28.4523 31.078C27.9772 31.1605 26.9311 31.7475 26.1716 32.5357L25.817 32.1965C26.6455 31.3366 27.8223 30.69 28.3698 30.5949L28.4523 31.078ZM26.1716 32.5357C25.8964 32.8214 25.6631 33.13 25.5157 33.4444L25.0711 33.2393C25.2448 32.8687 25.5094 32.5158 25.817 32.1965L26.1716 32.5357ZM25.5157 33.4444C25.3751 33.7443 25.3109 34.0512 25.3627 34.3492L24.8796 34.4316C24.8095 34.0278 24.8904 33.6247 25.0711 33.2393L25.5157 33.4444ZM25.3627 34.3492C25.4096 34.6199 25.555 34.892 25.8288 35.1558L25.4895 35.5104C25.1345 35.1683 24.944 34.8035 24.8796 34.4316L25.3627 34.3492ZM25.8288 35.1558L25.8968 35.2746L25.6591 35.3331L25.8288 35.1558ZM25.8968 35.2746C25.9591 35.528 26.0149 35.7423 26.0757 35.9359L25.6081 36.0816C25.5448 35.8798 25.4865 35.6561 25.4215 35.3916L25.8968 35.2746ZM26.0757 35.9359C26.1338 36.1211 26.1972 36.2876 26.2767 36.4531L25.8341 36.6639C25.7452 36.4792 25.674 36.2916 25.6081 36.0816L26.0757 35.9359ZM26.2767 36.4531C26.4532 36.8201 26.7324 37.0436 27.0541 37.1469L26.9046 37.6145C26.4599 37.4717 26.0752 37.1655 25.8341 36.6639L26.2767 36.4531ZM27.0541 37.1469C27.4294 37.2674 27.8662 37.2305 28.2741 37.0714L28.4525 37.5275C27.9424 37.7264 27.389 37.77 26.9046 37.6145L27.0541 37.1469ZM28.2741 37.0714L28.7002 36.9052L28.6029 37.3512L28.3633 37.2994L28.2741 37.0714ZM28.6029 37.3512C28.4873 37.8813 28.4176 38.437 28.3942 39.0645L27.9036 39.0473C27.928 38.3921 28.0016 37.8083 28.1238 37.2477L28.6029 37.3512ZM28.3942 39.0645C28.3709 39.6922 28.3946 40.3964 28.4657 41.2237L27.975 41.2639C27.903 40.4249 27.8792 39.7022 27.9036 39.0473L28.3942 39.0645ZM28.4657 41.2237C28.4838 41.4343 28.5055 41.6283 28.5304 41.8057L28.0454 41.8708C28.0146 41.6507 27.9908 41.4478 27.975 41.2639L28.4657 41.2237ZM28.5304 41.8057C28.5579 42.0011 28.5915 42.2012 28.6304 42.4045L28.1494 42.4966C28.11 42.291 28.0751 42.0823 28.0454 41.8708L28.5304 41.8057ZM28.6304 42.4045L28.6199 42.5349L28.3899 42.4506" fill="black"/>
<path fill-rule="evenodd" clip-rule="evenodd" d="M40.8985 27.7121L37.6686 28.237L34.7213 29.5289L32.218 31.1036L29.8359 34.0105L28.4902 35.4358L27.189 35.9154L26.8448 35.0742L27.4466 34.2056L27.5818 32.9807L27.9849 32.9969L28.4253 33.3986L28.3065 32.1509L27.8183 31.8234L27.8331 31.3479L26.6767 32.0021L25.6294 33.2376L25.4111 34.3419L25.8589 35.2262L26.2766 36.7284L27.1261 37.1306L28.0197 37.0868L28.867 36.5944L28.3018 39.461L28.867 42.6506L28.2448 44.1233L26.207 46.3189L26.5693 47.6307L27.5346 49.1508L29.3549 50.4318L30.3204 50.5639L31.3939 50.6003L30.7242 53.3497L33.187 54.3591L36.2555 54.7628L37.3051 54.0765L37.3859 52.2193L38.5568 50.2813L38.6376 48.7471L41.4638 48.949L44.0881 48.7067L41.4638 50.2813L41.9079 52.1789L43.5632 54.7628L45.1782 55.4492L46.4701 54.9243L46.9951 53.8746L49.7001 51.8156L50.225 52.2597L54.4642 52.4211L55.3121 51.7348L55.3929 50.5235L55.1103 49.9987L54.9084 46.7284L53.4953 43.9022L53.7375 42.6506L54.5854 43.0947L56.9675 45.3153L58.1383 45.396L59.4302 44.8711L60.7223 43.9022L61.3682 41.8027L65.1634 42.0449L67.4648 41.1567L69.322 39.4206L70.6543 36.9174L70.9774 33.9701L70.6947 30.5383L69.968 27.4699L69.2412 26.5009L68.2319 26.1779L66.4554 28.1158L64.8405 28.6811L63.4273 26.3394L62.0143 25.0474L61.2471 24.5629L58.1787 22.0193L55.7158 20.687L53.253 20.4851L50.3865 20.9696L47.8833 21.8982L46.1472 23.3113L44.7745 24.9667L43.3614 25.3704L40.8985 27.7121Z" fill="white" stroke="white" stroke-width="0.27" stroke-miterlimit="10"/>
<path fill-rule="evenodd" clip-rule="evenodd" d="M31.5341 34.9986C28.7674 38.2255 29.382 42.1393 30.1488 45.9736C29.7396 44.9397 29.3303 43.9059 28.9211 42.872C28.7703 41.9243 28.6195 40.9765 28.4688 40.0288C28.5118 39.0595 28.5549 38.0902 28.598 37.1209C28.9857 36.1948 29.3734 35.2686 29.7611 34.3424C30.3427 33.4809 30.9243 32.6192 31.5058 31.7576C32.4105 31.0038 33.3151 30.2499 34.2197 29.496C35.2105 29.0868 36.2014 28.6775 37.1922 28.2683C38.3553 28.1175 39.5184 27.9668 40.6816 27.816C39.6046 29.0437 38.5277 30.2715 37.4506 31.4992C34.8565 32.3406 33.3265 32.9073 31.5341 34.9986Z" fill="#C8C8D2"/>
<path fill-rule="evenodd" clip-rule="evenodd" d="M44.5572 25.1664C42.6337 27.043 41.5831 28.4582 40.3591 30.6555C39.4835 32.2273 38.5014 33.7411 37.5809 35.2909C37.1153 36.0753 37.0713 36.7331 36.9322 37.6377C36.4799 37.0992 36.0275 36.5608 35.5752 36.0223C35.7906 35.3761 36.006 34.7299 36.2214 34.0838C36.9538 32.7698 37.6861 31.4559 38.4184 30.142C39.9693 28.6127 41.5201 27.0834 43.071 25.5541C43.5663 25.4248 44.0617 25.2957 44.5572 25.1664Z" fill="#C8C8D2"/>
<path fill-rule="evenodd" clip-rule="evenodd" d="M54.0542 20.5137C52.5137 21.0913 49.9554 21.2815 49.7779 23.0496C49.6515 24.3053 49.8726 24.9362 50.6294 26.2646C48.7601 24.3303 48.2977 24.6296 44.6846 25.2307C45.2015 24.4984 45.7185 23.766 46.2354 23.0337C47.14 22.4737 48.0448 21.9136 48.9494 21.3536C50.1125 21.0952 51.2757 20.8367 52.4388 20.5782C52.9773 20.5567 53.5158 20.5352 54.0542 20.5137Z" fill="#C8C8D2"/>
<path fill-rule="evenodd" clip-rule="evenodd" d="M58.3099 44.4304C58.8228 44.747 58.8118 44.9763 58.726 45.1934C59.1306 45.0314 59.535 44.8696 59.9396 44.7079C60.2017 44.356 60.4638 44.0042 60.7258 43.6521C60.9204 43.1507 61.1149 42.6493 61.3095 42.1479C61.0609 41.961 60.8124 41.7741 60.5637 41.5871C59.4773 41.7258 58.3908 41.8645 57.3043 42.0032C57.2234 42.2228 57.1425 42.4424 57.0615 42.662C57.0847 42.9741 57.1079 43.2861 57.131 43.5982C57.2349 43.7832 57.339 43.9682 57.443 44.153C57.6049 44.234 57.7667 44.3149 57.9284 44.3958C58.0557 44.4074 58.1828 44.419 58.3099 44.4304Z" fill="#C8C8D2"/>
<path fill-rule="evenodd" clip-rule="evenodd" d="M58.0078 38.8567C56.3741 39.3283 56.3868 39.4582 55.9043 41.0791C56.5412 40.0572 57.0128 39.5415 58.0078 38.8567Z" fill="#C8C8D2"/>
<path fill-rule="evenodd" clip-rule="evenodd" d="M68.8707 26.7264C68.5803 26.8605 68.2975 26.9251 68.116 27.1908C67.7251 27.7627 67.3901 28.2438 66.7437 28.6453C66.4182 28.8475 66.0815 28.9785 65.7362 29.0861C65.4499 29.1751 65.278 29.0956 65.0342 29.2707C65.1788 29.296 65.3234 29.3213 65.468 29.3467C65.7868 29.3467 66.1056 29.3467 66.4244 29.3467C66.8175 29.1039 67.2105 28.8612 67.6034 28.6185C67.8347 28.3757 68.0658 28.133 68.2969 27.8903C68.4882 27.5023 68.6794 27.1142 68.8707 26.7264Z" fill="#C8C8D2"/>
<path fill-rule="evenodd" clip-rule="evenodd" d="M42.8472 30.3539C42.2043 32.1127 41.6428 33.6204 40.6689 35.2129C41.9167 33.8686 42.6731 32.726 43.3877 31.2061C43.6653 30.6157 43.7177 29.9229 44.4909 30.1806C44.5257 30.7701 44.6503 31.3595 44.685 31.949C45.1028 28.9542 46.2809 27.7019 49.0194 26.5396C48.245 26.6322 47.4705 26.7246 46.6962 26.817C45.968 26.9789 45.2398 27.1407 44.5116 27.3025C44.1533 27.8226 43.7949 28.3428 43.4367 28.8629C43.2401 29.3599 43.0437 29.8569 42.8472 30.3539Z" fill="#C8C8D2"/>
<path fill-rule="evenodd" clip-rule="evenodd" d="M48.1509 30.2839C48.7414 33.0636 49.5917 35.7312 49.9611 38.555C50.2011 40.3898 50.2273 41.2713 49.3041 42.8543C48.2952 42.789 47.6688 42.9028 46.6929 43.2226C42.8078 44.4962 40.5797 46.3687 37.9619 42.5957C38.7976 42.9895 39.6333 43.3833 40.4689 43.7772C41.0646 43.6601 41.6604 43.543 42.2561 43.4259C43.3079 42.8133 44.3598 42.2008 45.4116 41.5882C46.2322 41.4263 47.0529 41.2645 47.8735 41.1027C48.1394 39.9931 48.4052 38.8835 48.671 37.7739C48.4745 36.3059 48.278 34.838 48.0816 33.37C48.0585 32.6766 48.0354 31.9831 48.0122 31.2895C48.0585 30.9543 48.1048 30.6191 48.1509 30.2839Z" fill="#C8C8D2"/>
<path fill-rule="evenodd" clip-rule="evenodd" d="M54.8405 47.4824C54.5141 49.7407 55.5919 50.9547 55.1457 51.5783C55.0193 51.7549 54.848 52.0629 54.6569 52.1474C53.974 52.449 53.0352 52.0909 52.968 52.2676C52.2167 52.2676 51.4654 52.2676 50.714 52.2676C50.4136 52.1403 50.1131 52.0132 49.8125 51.8861C50.2748 51.3428 50.7372 50.7996 51.1996 50.2564C51.6503 49.2739 52.1011 48.2913 52.5519 47.309C52.8409 46.315 53.1299 45.321 53.4187 44.3269C53.569 44.3269 53.7193 44.3269 53.8695 44.3269C54.1932 45.3787 54.5168 46.4305 54.8405 47.4824Z" fill="#C8C8D2"/>
<path fill-rule="evenodd" clip-rule="evenodd" d="M51.0528 40.9189C51.2359 41.9443 51.5538 42.188 52.0362 43.1805C51.7151 44.7998 51.1994 46.7255 50.5787 48.1542C50.317 48.7567 50.1057 49.0889 49.6443 49.5545C48.8652 50.3412 48.0776 51.0266 47.194 51.7084C46.558 52.1987 46.1141 51.9528 45.3294 51.8417C44.9957 52.4467 44.9035 52.7827 44.2893 53.0899C43.3446 53.5622 42.4992 52.5443 41.7578 51.9457C42.2931 52.7817 42.8283 53.6177 43.3635 54.4538C43.7334 54.8005 44.1033 55.1473 44.4732 55.4941C44.7852 55.5402 45.0973 55.5865 45.4094 55.6328C45.8255 55.3784 46.2416 55.1242 46.6577 54.8699C46.8773 54.4538 47.097 54.0377 47.3165 53.6216C47.7788 53.2749 48.2413 52.9281 48.7035 52.5813C49.27 52.0959 49.8364 51.6104 50.4027 51.125C50.761 50.6163 51.1193 50.1078 51.4776 49.5992C51.8011 48.9982 52.1249 48.3971 52.4485 47.7961C52.8646 46.5478 53.2807 45.2995 53.6969 44.0512C53.7315 43.5772 53.7662 43.1033 53.8008 42.6295C53.2807 42.3982 52.7606 42.1671 52.2404 41.9359C51.859 41.5776 51.4343 41.2772 51.0528 40.9189Z" fill="#C8C8D2"/>
<path fill-rule="evenodd" clip-rule="evenodd" d="M38.6128 48.1423C40.363 48.1423 42.2112 48.0453 43.8141 47.3102C44.2678 46.6296 44.7155 46.0739 45.2706 45.4724C44.7654 46.4265 44.607 46.9658 44.473 48.0384C44.2996 48.2926 44.1262 48.5469 43.9528 48.8012C42.6351 48.8359 41.3175 48.8706 39.9998 48.9053C39.5721 48.859 39.1444 48.8127 38.7168 48.7666C38.6706 48.7203 38.6244 48.674 38.5781 48.6279C38.5897 48.466 38.6013 48.3042 38.6128 48.1423Z" fill="#C8C8D2"/>
<path fill-rule="evenodd" clip-rule="evenodd" d="M38.3744 46.9274C38.3291 46.5172 38.2838 46.1068 38.2385 45.6964C37.9395 47.4961 38.0114 48.7022 37.1831 50.3144C36.5644 51.0314 35.8026 51.6837 34.93 52.0328C35.0037 52.4748 35.0257 52.751 34.983 53.0751C34.8292 54.2408 32.4973 53.7259 31.5381 53.6794C33.0772 54.0757 34.6162 54.4719 36.1552 54.8682C36.5019 54.7295 36.8486 54.5908 37.1955 54.4521C37.3111 53.7817 37.4266 53.1112 37.5422 52.4409C37.8658 51.8399 38.1896 51.2388 38.5131 50.6378C38.5708 50.2679 38.6287 49.898 38.6865 49.5282C38.5825 48.6613 38.4785 47.7944 38.3744 46.9274Z" fill="#C8C8D2"/>
<path fill-rule="evenodd" clip-rule="evenodd" d="M35.7679 36.7681C35.7195 37.6432 35.663 38.008 36.0489 38.7809C36.5395 39.7633 37.142 40.6863 37.6751 41.6572C37.7328 41.0099 37.7906 40.3626 37.8484 39.7154C37.1549 38.7329 36.4614 37.7504 35.7679 36.7681Z" fill="#C8C8D2"/>
<path fill-rule="evenodd" clip-rule="evenodd" d="M28.6547 43.3786C28.5046 43.6981 28.3545 44.0177 28.2044 44.3372C28.6175 45.7288 28.9847 46.6103 29.7715 47.826C29.6345 48.3186 29.5319 48.5341 29.2167 48.9356C28.5243 48.829 27.9095 48.7983 27.208 48.8004C27.9826 49.4014 28.757 50.0024 29.5313 50.6035C29.9127 50.5341 30.2942 50.4648 30.6756 50.3955C31.057 50.014 31.4384 49.6326 31.8199 49.2512C31.2765 48.4074 30.7334 47.5636 30.1902 46.7198C29.6783 45.6061 29.1665 44.4923 28.6547 43.3786Z" fill="#C8C8D2"/>
<path fill-rule="evenodd" clip-rule="evenodd" d="M68.8726 26.2661C69.3442 28.3882 69.9525 30.3461 69.8961 32.5195C69.8268 35.1857 69.3071 38.5537 66.8367 40.1615C64.0702 41.9621 60.8226 41.1105 57.7871 40.339C59.0239 40.8475 60.2607 41.356 61.4974 41.8647C62.6533 41.9225 63.8092 41.9802 64.965 42.0381C65.751 41.8068 66.5369 41.5757 67.3229 41.3446C67.9355 40.836 68.5482 40.3274 69.1607 39.8188C69.623 38.848 70.0853 37.877 70.5477 36.9061C70.7211 35.7849 70.8945 34.6637 71.0678 33.5426C70.9291 32.4444 70.7904 31.3465 70.6517 30.2484C70.3974 29.1619 70.1431 28.0753 69.8889 26.989C69.5502 26.748 69.2114 26.5071 68.8726 26.2661Z" fill="#C8C8D2"/>
<path fill-rule="evenodd" clip-rule="evenodd" d="M27.5852 32.591C26.3291 33.4085 25.8359 33.7674 25.9735 35.2824C26.0987 35.7361 26.2238 36.19 26.3491 36.6437C26.5263 36.7637 26.7037 36.8836 26.881 37.0037C27.1001 37.0766 27.3192 37.1496 27.5383 37.2227C27.9346 37.1288 28.331 37.0349 28.7275 36.941C28.9309 36.3099 29.1343 35.6788 29.3377 35.0477C28.7744 35.3241 28.2111 35.6006 27.6478 35.877C27.5174 35.877 27.387 35.877 27.2566 35.877C27.1105 35.6527 26.9645 35.4285 26.8184 35.2042C26.9958 34.9434 27.1731 34.6826 27.3505 34.4218C27.4444 33.9263 27.5383 33.4308 27.6321 32.9353C27.7521 32.9719 27.8721 33.0083 27.992 33.0448C28.1381 33.1596 28.2841 33.2743 28.4302 33.389C28.4093 33.1283 28.3885 32.8675 28.3675 32.6067C28.2684 32.4398 28.1694 32.2729 28.0702 32.106C27.9711 32.0225 27.8721 31.9391 27.7729 31.8556C27.7103 32.1008 27.6478 32.3459 27.5852 32.591Z" fill="#C8C8D2"/>
<path fill-rule="evenodd" clip-rule="evenodd" d="M55.7695 20.6528C56.8841 21.6878 58.2523 22.5875 59.1438 23.8525C59.4889 24.3423 59.8723 24.5927 59.138 25.2843C59.9138 25.0627 60.2021 25.0868 60.8231 25.162C61.9529 25.2987 63.0118 26.9047 63.0793 28.0556C63.066 28.1633 62.7655 28.4075 61.892 28.6487C61.8746 28.6823 61.399 28.5836 61.4108 28.6158C61.5016 28.8642 61.6229 28.9022 61.8081 29.0184C61.8483 29.2947 61.8742 29.7207 62.0623 30.0227C62.612 30.0131 63.1491 30.0729 63.6874 30.1795C63.8685 30.48 63.8412 30.7804 63.8261 31.0811C64.0341 31.0464 64.2422 31.0117 64.4502 30.9771C64.3924 30.5031 64.3347 30.0292 64.2769 29.5554C64.4618 29.2433 64.6467 28.9312 64.8317 28.6192C64.5657 28.0181 64.2999 27.4171 64.0341 26.816C63.5255 26.3306 63.017 25.8451 62.5084 25.3596C62.4595 25.3573 62.4104 25.3547 62.3615 25.3523C61.7895 25.0012 61.2177 24.6504 60.6458 24.2994C59.7129 23.5362 58.7801 22.7729 57.8473 22.0097C57.1546 21.5573 56.4621 21.105 55.7695 20.6528Z" fill="#C8C8D2"/>
<path fill-rule="evenodd" clip-rule="evenodd" d="M57.6451 29.1958C57.5863 29.2987 57.4975 29.463 57.3838 29.5768C57.848 30.016 58.0771 30.3101 58.2426 30.9312C57.7177 31.1918 57.193 31.4524 56.6681 31.713C56.224 32.1387 55.7798 32.5645 55.3358 32.9902C54.7512 32.6756 54.6055 32.4339 54.3227 31.8341C53.9933 31.9212 53.6812 32.0052 53.4092 31.9054C53.5818 31.9067 53.6878 31.8636 53.8602 31.757C54.1429 31.4633 54.4254 31.1697 54.708 30.8761C55.2072 30.498 55.7064 30.12 56.2056 29.742C56.5322 29.6355 56.8589 29.5291 57.1856 29.4226C57.3103 29.3713 57.5203 29.2472 57.6451 29.1958Z" fill="#C8C8D2"/>
<path fill-rule="evenodd" clip-rule="evenodd" d="M59.0898 30.7635C57.4199 31.6626 55.8206 32.5669 54.9668 34.2744C54.9668 32.107 57.143 31.1529 59.0898 30.7635Z" fill="#C8C8D2"/>
<path fill-rule="evenodd" clip-rule="evenodd" d="M54.6408 26.4996C53.4009 27.3451 52.5241 29.0511 52.6343 30.7139C52.2304 29.2742 52.3735 27.9137 53.6137 26.9192C53.823 26.8175 54.0321 26.7158 54.2413 26.6141C54.3745 26.576 54.5077 26.5379 54.6408 26.4996Z" fill="#C8C8D2"/>
<path fill-rule="evenodd" clip-rule="evenodd" d="M57.0078 39.334C57.264 39.1945 57.7292 39.0028 57.9855 38.8633C57.7219 38.9078 57.2493 39.0047 56.9857 39.0492C56.2815 39.168 56.1987 39.3373 56.0894 40.0306C56.0379 40.3571 55.967 40.7621 55.9154 41.0887C56.0535 40.7195 56.2195 40.2904 56.3804 39.9382C56.5506 39.5658 56.6465 39.5307 57.0078 39.334ZM43.9427 21.4789C44.4961 20.6489 44.8147 20.3788 45.6662 19.853C44.51 20.1315 44.2896 20.3456 43.9427 21.4789ZM43.7606 23.3075C44.729 21.3608 45.4622 20.6441 47.4895 19.688C45.1964 20.25 44.5223 20.6497 43.7606 23.3075ZM23.0242 33.4399C23.2367 32.4651 23.4347 32.0974 24.0357 31.2973C23.0608 31.9784 22.9337 32.2581 23.0242 33.4399ZM44.7291 49.7543C44.6998 49.5177 44.6704 49.281 44.6408 49.0444C44.5877 48.6159 44.5898 48.2676 44.624 47.8363C44.6569 47.4188 44.6896 47.0013 44.7224 46.5837C44.6008 47.0081 44.3578 47.4325 44.2362 47.8568C44.1877 48.0267 44.1474 48.1641 44.1243 48.291C42.3099 48.6618 40.5086 48.685 38.6937 48.3612C38.5779 47.6893 38.437 46.9891 38.3187 46.4873C38.2829 47.0494 38.306 48.6035 38.3031 49.4736C38.3008 50.1478 38.2724 50.3786 37.9248 50.952C37.5993 51.489 37.4614 51.6108 37.0058 52.5179C37.0437 53.0902 37.0444 53.4688 36.8923 54.012C36.6394 54.9151 34.0882 54.2154 33.4151 54.0311C32.5863 53.8043 30.8728 53.4671 31.3037 52.3621C31.683 51.3897 31.9233 50.3645 32.1086 49.0038C30.5901 46.8163 29.1779 43.8185 28.907 41.1625C28.6966 39.1001 28.8228 37.8307 29.2691 36.5692C29.9763 34.5705 30.9655 32.8403 32.5529 31.4471C34.6941 29.5683 36.6958 28.8136 39.8298 28.3366C39.0762 29.1802 38.3305 30.0724 37.5178 31.0289C36.6951 31.9975 36.2061 32.9756 35.6838 34.0348C34.9621 35.4978 34.9775 36.0545 35.9343 37.3388C36.7587 38.4456 37.2038 38.944 37.5637 40.0268C37.2664 40.6396 37.1584 41.1574 37.0584 41.9942C38.0679 43.0976 38.8179 43.8537 39.7981 44.0867C40.7594 44.3152 41.5623 44.2708 42.4223 43.8312C44.3327 42.8545 46.1002 41.5935 48.2551 41.5414C49.252 39.0904 49.1512 37.0426 48.6725 34.6713C48.3457 33.0518 48.2147 31.5184 48.113 29.8674C47.7088 31.5677 47.633 33.0629 47.9328 34.7565C48.2943 36.7977 48.5753 39.0526 47.5697 40.8464C45.6212 40.9956 43.9513 42.181 42.1951 43.0906C41.4892 43.4563 40.7543 43.4919 39.9729 43.2774C39.2476 43.0782 38.7582 42.5985 37.9769 41.6973C37.9647 40.7926 38.1688 40.375 38.5842 39.5557C39.2518 38.2399 39.9886 37.0151 40.7971 35.7203C39.807 36.9155 38.8691 37.9138 38.0898 39.1153C37.792 38.2666 37.3661 37.8358 36.6606 36.8803C35.9715 35.9471 35.8993 35.5383 36.4145 34.4584C36.9326 33.3731 37.372 32.4191 38.2538 31.467C39.7775 29.8216 41.1732 27.9903 42.8395 26.3699C43.7441 25.4901 44.1114 25.5205 45.3115 25.3386C46.396 25.1742 47.4551 24.9667 48.5613 24.7097C47.4915 24.8094 46.4574 24.8461 45.4159 24.8719C45.4051 24.8722 45.3944 24.8726 45.3836 24.8726C46.4083 23.564 47.003 22.8348 48.6672 22.1117C52.7646 20.3321 55.368 20.1397 58.5866 22.8453C59.4208 23.5465 60.1494 24.2272 60.9952 24.8322C60.6886 24.8584 60.4243 24.9134 60.0747 25.0507C60.5002 24.9697 60.9914 25.0501 61.4329 25.1307C61.5569 25.2111 61.6842 25.2895 61.8147 25.3665C62.4117 25.7183 62.7506 25.9125 63.1544 26.4752C63.5813 27.0698 63.937 27.664 64.2506 28.3189C64.0451 28.2455 63.8728 28.1834 63.7192 28.1377C63.6062 28.0859 63.4833 28.0517 63.3529 28.0391C63.0946 28.0143 62.8475 28.0778 62.6416 28.2045C62.6334 28.2084 62.6251 28.2121 62.6167 28.2162C62.2865 28.377 61.7748 28.5603 61.4324 28.6159C61.607 28.6762 61.9933 28.6987 62.1755 28.6266C62.1999 28.6169 62.2247 28.6096 62.2502 28.6034C62.168 28.7433 62.1143 28.9021 62.0978 29.0737C62.0759 29.3012 62.1222 29.5195 62.22 29.709C62.2203 29.7097 62.2207 29.7104 62.221 29.711C62.2519 29.7838 62.2949 29.8509 62.3421 29.8993C62.1855 29.9568 62.0259 30.0228 61.8612 30.0943C62.6247 29.9779 63.3132 29.9579 64.0585 30.0562C64.1077 30.2911 64.1572 30.54 64.203 30.7932C64.1107 30.8006 64.0186 30.8076 63.9263 30.8148C63.9189 30.8155 63.9113 30.8162 63.9038 30.8168C63.5513 30.535 63.1584 30.5824 62.6217 30.7049C60.9896 31.0771 61.3732 31.9929 60.6222 33.3728C61.4018 32.4198 61.3441 31.4227 62.6146 31.1218C62.9106 31.0517 63.1122 30.964 63.3125 30.9941C62.9519 31.1756 62.6398 31.4763 62.5161 31.8255C62.1674 32.8102 62.384 33.6399 62.0009 34.5597C62.4755 33.7375 62.504 32.935 62.9284 32.07C63.0807 31.7592 63.6464 31.2618 63.9936 31.2542C64.0889 31.2522 64.184 31.2501 64.2794 31.248C64.363 31.7954 64.4139 32.3388 64.3815 32.7896C64.3223 33.6122 64.1086 34.8331 63.9807 35.3002C64.4105 34.7477 64.6063 33.5774 64.7951 32.7536C64.9917 31.8957 64.9421 30.8663 64.77 29.9448C64.5338 28.6803 65.8361 28.8859 66.5921 28.29C67.1478 27.8519 67.5304 27.1523 68.0399 26.6568C68.5454 26.1654 69.3409 26.8875 69.5396 27.3679C70.4017 29.4533 70.7944 32.7341 70.5667 34.8363C70.3112 37.1952 69.1718 39.7703 67.0912 40.9317C64.439 42.412 61.3117 41.5076 58.6767 40.6198C58.1143 40.4304 57.7232 40.1542 57.2288 39.8428C57.3634 40.4489 57.4245 41.0904 57.2455 41.6957C56.9612 42.6562 56.5021 44.2276 57.8061 44.5174C58.3024 44.6277 58.5275 44.6117 59.2282 44.2502C58.661 44.3784 58.3751 44.347 57.9854 44.275C57.6321 44.2099 57.4449 43.9855 57.3462 43.7209C57.4695 43.81 57.6708 43.8585 58.0147 43.9414C58.9815 44.1743 59.9027 43.7091 60.0828 43.0386C60.1879 42.647 60.17 42.4413 60.3926 41.9076C60.5925 41.9692 60.7994 42.0257 61.0115 42.0769C60.8919 42.4673 60.7721 42.8581 60.6523 43.2484C60.3416 44.2619 59.1312 45.0792 58.0623 45.0604C57.0742 45.0429 56.4478 44.4239 55.7658 43.8171C55.2958 43.399 54.8436 42.9989 54.3953 42.6027C53.1656 42.2148 52.18 41.7613 51.0387 40.9164C51.8508 41.871 52.4019 42.3993 53.5346 42.8743C53.3697 44.5546 52.7858 45.7797 52.2879 47.3879C52.0627 48.1151 50.2837 51.0287 49.7907 51.3128C49.4391 51.5153 47.2374 53.3699 46.8231 53.6145C46.5146 54.0243 46.2438 54.5903 45.7801 54.8354C44.3669 55.5826 43.4588 54.1518 42.6982 52.9433C42.3518 52.3927 41.3904 50.8071 42.2286 50.3628C43.0212 49.943 43.465 49.6431 44.2736 49.1123C44.3924 49.3288 44.5964 49.5377 44.7292 49.7541L44.7291 49.7543ZM49.6421 52.3163C48.9266 52.8943 47.7235 53.9174 47.4901 54.0456C47.0674 54.6765 47.0152 55.0669 46.338 55.4334C44.3222 56.5242 43.2524 55.2592 42.0591 53.4203C41.4905 52.544 40.2474 50.5435 41.5666 49.8653C42.1224 49.5796 42.5437 49.3654 42.9639 49.1207C41.58 49.2924 40.2217 49.2945 38.8094 49.082C38.8344 49.2524 38.8562 49.4146 38.8738 49.5633C38.9656 50.335 38.9957 50.5716 38.5765 51.1934C38.2709 51.6468 38.1531 51.7781 37.784 52.6019C37.8512 53.2716 37.8221 53.6485 37.6331 54.3499C37.213 55.9087 34.3022 55.0543 33.1161 54.7335C31.689 54.3476 29.6496 53.9882 30.4864 52.1533C30.6825 51.7235 30.8365 51.2838 30.9524 50.8645C29.7045 51.4168 27.9703 50.2452 27.1443 49.4171C26.3587 48.6295 25.932 47.7148 25.7833 46.8273C25.6567 46.0719 25.7726 46.0756 26.3117 45.5416C26.8048 45.0534 27.2978 44.5646 27.7908 44.0768C27.9899 43.5348 28.1894 42.9933 28.3883 42.4517C28.3108 42.0472 28.2531 41.6436 28.2188 41.244C28.0756 39.5776 28.1237 38.391 28.3617 37.3001C27.4934 37.6389 26.4971 37.4802 26.0539 36.5587C25.8854 36.2083 25.785 35.8515 25.6577 35.3334C23.7208 33.4672 27.3506 31.0205 28.4095 30.8365C28.2884 31.1805 28.1558 31.4952 28.039 31.8072C28.7572 32.179 28.6691 33.2383 28.5167 33.9202C28.2583 33.5942 28.1156 33.168 27.7356 33.1496C27.68 33.9209 27.6896 34.7732 27.0873 35.226C27.2656 35.7026 27.2562 35.703 27.763 35.5082C28.4827 35.2311 29.0246 34.6138 29.5698 34.0114C30.157 32.8677 30.9096 31.8503 31.945 30.9323C34.4894 28.6765 36.8944 27.9384 40.7669 27.3213C41.2824 26.7834 41.8151 26.2644 42.3869 25.7597C43.1615 25.0761 43.6645 24.9342 44.3971 24.896C45.6095 23.2744 46.5633 22.1451 48.5399 21.3131C52.683 19.5692 55.5387 19.4851 58.864 22.227C59.9629 23.1329 60.9001 24.0877 62.1078 24.844C62.719 25.2267 63.1558 25.5018 63.6191 26.0536C64.2019 26.748 64.6778 27.4424 65.009 28.3362C65.437 28.1601 65.9251 27.9941 66.3192 27.6573C66.828 27.2225 67.1517 26.4948 67.623 26.0171C68.2486 25.3831 69.6755 26.1484 69.9915 26.7532C71.0662 28.8099 71.5059 32.6003 71.2775 34.8544C70.9951 37.6408 69.8465 40.2749 67.3916 41.585C65.7224 42.4756 63.4821 42.5586 61.5649 42.1962C61.4407 42.605 61.3169 43.0138 61.1926 43.4226C60.8198 44.6477 59.3646 45.649 58.0934 45.7091C56.8729 45.7667 56.2113 45.1368 55.4108 44.3658C54.9909 43.9612 54.5707 43.5569 54.1507 43.1523C54.1263 43.4279 54.0902 43.6922 54.0448 43.948C54.3754 44.6008 54.5342 45.1747 54.8172 45.8477C55.1285 46.5889 55.2801 47.0753 55.3015 47.8686C55.3203 48.5727 55.3391 49.277 55.358 49.9812C55.6721 50.5392 55.6996 50.6749 55.6538 51.3135C55.5571 52.6593 54.8159 52.7878 53.5805 52.78C53.169 52.7774 51.6155 52.787 51.2195 52.7584C50.4323 52.7015 49.9134 52.6414 49.6421 52.3163ZM53.8075 44.9746C53.559 45.8621 53.225 46.6998 52.9201 47.66C52.6315 48.569 51.1515 51.2085 50.2804 51.8482C50.45 51.9744 50.7612 52.0239 51.3156 52.0717C51.7078 52.1056 53.2542 52.1128 53.6424 52.1195C54.4972 52.1344 54.8216 52.0701 54.9081 51.0968C54.9503 50.6203 54.9131 50.5312 54.6747 50.1135C54.6536 49.3685 54.6325 48.6234 54.6115 47.8784C54.5916 47.1721 54.456 46.7652 54.1783 46.107C54.0121 45.7131 53.9219 45.3454 53.8075 44.9746ZM27.7707 32.7829C27.9626 32.7611 28.0813 32.8618 28.2297 33.0101C28.2023 32.6557 28.1368 32.393 27.888 32.2481C27.8706 32.3058 27.8541 32.3633 27.8387 32.4218C27.8085 32.5359 27.787 32.6571 27.7707 32.7829ZM28.9765 35.3434C28.8383 35.7008 28.7102 36.0692 28.5895 36.4498C28.5695 36.5127 28.5503 36.576 28.5317 36.639C27.8018 36.9486 26.842 37.1453 26.4746 36.3783C26.2962 36.006 26.1955 35.6406 26.0654 35.17C24.8634 33.9248 26.6602 32.2808 27.6389 31.6911C27.4973 31.9956 27.3967 32.2261 27.328 32.4633C27.0304 33.4918 27.4627 34.4096 26.5293 35.1552C26.968 36.0404 26.9478 36.3934 27.9684 35.9843C28.3621 35.8266 28.6868 35.6051 28.9765 35.3434ZM28.6952 43.7236C29.2485 45.6371 30.1907 47.5172 31.2352 49.0978C31.2351 49.1069 31.235 49.116 31.2349 49.1253C31.1695 49.397 31.0938 49.6619 30.9351 49.8744C30.1885 50.8733 28.2893 49.4071 27.7396 48.8458C27.1387 48.2323 26.7364 47.5056 26.6407 46.8242C26.571 46.327 26.6386 46.315 26.9854 45.9633C27.4529 45.4901 27.9208 45.0166 28.388 44.5435C28.4903 44.2701 28.5929 43.9969 28.6952 43.7236ZM64.0489 28.3656C64.1554 28.4709 64.2414 28.5963 64.3006 28.7349C64.3329 28.7053 64.3674 28.6773 64.4036 28.6507C64.3598 28.5521 64.3153 28.4549 64.2698 28.3592C64.1941 28.3608 64.1206 28.3629 64.0489 28.3656ZM54.9036 31.8074C54.8062 31.6033 54.7596 31.3878 54.758 31.1751C54.3996 31.4613 54.01 31.7327 53.6057 31.8895C54.1639 31.391 54.9221 30.2154 55.4715 29.8443C56.095 29.4231 56.9411 29.5051 57.668 29.1688C57.4199 29.3943 57.1018 29.576 56.778 29.7489C57.1347 29.8795 57.443 30.1437 57.6189 30.5124C57.693 30.6679 57.7374 30.8303 57.7553 30.9928C58.2437 30.8324 58.7232 30.7565 59.1283 30.7623C57.6793 31.169 56.1381 32.1203 55.0754 33.38C55.1948 33.0515 55.3616 32.755 55.5625 32.4902C55.2841 32.3446 55.0489 32.1119 54.9036 31.8074ZM48.1845 26.5657C47.3844 26.8779 46.6546 27.1122 45.8746 27.3082C45.1629 28.2436 44.7293 28.7282 44.5655 29.9819C44.3729 28.7485 44.3328 28.5196 44.8817 27.599C44.7226 27.6798 44.5747 27.791 44.3627 27.9722C43.5958 28.628 42.5962 31.2049 42.1965 32.1262C42.4502 31.0173 43.2438 28.2455 44.0611 27.4375C44.5987 26.9061 44.7205 26.9183 45.4785 26.8466C46.3812 26.761 47.2822 26.6677 48.1845 26.5657ZM64.885 29.2546C65.5341 29.316 65.9052 29.4162 66.4864 29.1287C67.5697 28.5926 68.3668 27.7174 68.8837 26.6706C68.5675 27.9195 67.9312 28.9807 66.6113 29.4514C65.9631 29.6823 65.5451 29.4438 64.885 29.2546ZM52.4281 29.3766C52.6727 28.2936 53.1069 27.2501 54.7888 26.4429C52.5595 27.0011 52.1416 27.9373 52.4281 29.3766ZM23.5219 35.2089C23.7132 33.0431 24.1343 32.1082 25.6731 30.4784C23.743 31.8383 23.2614 32.4564 23.5219 35.2089Z" fill="black"/>
<path fill-rule="evenodd" clip-rule="evenodd" d="M55.1929 32.1553C55.0439 31.8437 55.1771 31.4683 55.4894 31.3197C55.8018 31.1709 56.178 31.3039 56.327 31.6156C56.3411 31.6451 56.3524 31.6755 56.3615 31.706C56.0632 31.9272 55.7897 32.1881 55.5605 32.4902C55.406 32.4282 55.2694 32.3153 55.1929 32.1553Z" fill="#C8C8D2"/>
<path fill-rule="evenodd" clip-rule="evenodd" d="M62.1735 29.4572C62.1985 29.1991 62.4186 29.0088 62.6766 29.0337C62.9347 29.0587 63.1252 29.2893 63.1003 29.5475C63.095 29.6024 63.0802 29.6539 63.0579 29.7014C62.8216 29.7416 62.5855 29.8109 62.342 29.9004C62.2402 29.7962 62.1592 29.606 62.1735 29.4572Z" fill="#C8C8D2"/>
</svg>
