<svg width="216" height="80" viewBox="0 0 216 80" fill="none" xmlns="http://www.w3.org/2000/svg">
<rect width="216" height="80" rx="7" fill="#343642" fill-opacity="0.6"/>
<g clip-path="url(#clip0_1708_2956)">
<path d="M62.0205 39.361C62.0205 49.3773 54.0822 57.4973 44.2894 57.4973C34.497 57.4973 26.5586 49.3773 26.5586 39.361C26.5586 29.3445 34.497 21.2246 44.2894 21.2246C54.0822 21.2246 62.0205 29.3447 62.0205 39.3612" fill="#C8C8D2"/>
<path d="M27.2807 43.853C27.2807 43.853 25.9973 24.9396 43.4245 24.3995L42.2088 22.373L32.7524 25.5475L30.0503 28.6549L27.686 33.1806L26.335 38.4493L26.7402 41.9617" fill="#C8C8D2"/>
<path d="M32.1454 26.9894C29.0345 30.1725 27.1094 34.5674 27.1094 39.4295C27.1094 44.2901 29.0345 48.6856 32.1454 51.8684C35.258 55.0507 39.5474 57.0147 44.2895 57.0147C49.0318 57.0147 53.3215 55.0508 56.4339 51.8684C59.5445 48.6858 61.4699 44.2904 61.4699 39.4295C61.4699 34.5674 59.5444 30.1725 56.4339 26.9894C53.3215 23.8076 49.032 21.8439 44.2895 21.8434C39.5474 21.8437 35.258 23.8076 32.1454 26.9894ZM31.3582 52.6381C28.0519 49.2569 26.0078 44.5842 26.0078 39.4295C26.0078 34.2739 28.0519 29.6015 31.3579 26.22C34.6634 22.8377 39.2389 20.7415 44.2893 20.7422C49.3398 20.7415 53.9158 22.8377 57.2206 26.22C60.5272 29.6015 62.5717 34.2744 62.571 39.4295C62.5715 44.584 60.5272 49.2568 57.2206 52.6381C53.9158 56.0201 49.3398 58.1162 44.2893 58.1162C39.239 58.1162 34.6634 56.0201 31.3582 52.6381Z" fill="#24252E"/>
<path d="M51.7535 39.4618L49.0514 39.8671L45.4039 40.2724L43.0398 40.3398L40.7431 40.2724L38.987 39.7319L37.4334 38.0433L36.2176 34.5984L35.9473 33.8553L34.3262 33.3151L33.3806 31.7614L32.7051 29.5324L33.448 27.5734L35.2044 26.9655L36.6229 27.6412L37.2982 29.1271L38.1088 28.9919L38.379 28.6544L38.1088 27.1007L38.0414 25.1417L38.4466 22.4399L38.4309 20.8966L39.6625 18.9278L41.8239 17.3741L45.6065 15.7529L49.7946 16.3609L53.4421 18.9952L55.1307 21.6971L56.2117 23.6559L56.4817 28.5193L55.6712 32.7074L54.1852 36.4224L52.7668 38.3813" fill="white"/>
<path d="M49.4565 51.1478L39.7973 51.5531V53.1742L40.6079 58.8482L40.2026 59.3211L33.4478 57.0244L32.9751 56.2139L32.2996 48.5811L30.746 43.9878L30.4082 42.9071L35.8121 39.1923L37.5006 38.5166L38.9867 40.3404L40.2702 41.4888L41.7561 41.9615L42.4316 42.1642L43.2422 45.6767L43.8501 46.4196L45.4037 45.8793L44.323 47.9733L50.1996 50.7427L49.4565 51.148" fill="#343642" fill-opacity="0.6"/>
<path d="M33.4478 27.5741L35.2042 26.9661L36.6226 27.6418L37.298 29.1277L38.1086 28.9925L38.3112 28.182L37.9059 26.6286L38.3112 22.9133L37.9734 20.8869L39.1892 19.4684L41.8236 17.3745L41.0808 16.3613L37.3655 18.1851L35.8121 19.401L34.9339 21.2922L33.583 23.1159L33.1777 25.2776L33.4478 27.5741Z" fill="#6D6B6D"/>
<path d="M36.2174 21.2242C36.2174 21.2242 37.2306 18.7251 41.2834 17.5092C45.3362 16.2934 41.486 16.6309 41.486 16.6309L37.0954 18.32L35.4068 20.0084L34.6637 21.3594L36.2174 21.2242ZM34.1909 27.1008C34.1909 27.1008 32.7725 22.3725 38.176 21.6969L37.9734 20.8864L34.2584 21.7647L33.1777 25.2771L33.4478 27.5736L34.1909 27.1008Z" fill="#C8C8D2"/>
<path d="M36.3517 33.3825L37.2362 32.5256C37.2362 32.5256 37.6353 32.5719 37.7028 33.0447C37.7702 33.5177 37.9728 37.7732 40.8776 40.0698C41.1423 40.2794 38.716 39.7318 38.716 39.7318L36.5544 36.3548L36.3517 33.3825ZM48.7809 32.0992C48.7809 32.0992 48.9385 30.0517 49.49 30.2091C50.0414 30.3665 50.0414 30.9181 50.0414 30.9181C50.0414 30.9181 48.7022 31.7842 48.7809 32.0992ZM54.3871 24.6015C54.3871 24.6015 53.2734 24.8365 53.1713 25.8173C53.0687 26.7983 54.3871 26.02 54.5898 25.9522L54.3871 24.6015ZM46.2139 24.6691C46.2139 24.6691 44.7279 24.8717 44.7279 25.8173C44.7279 26.7628 46.4165 26.6955 46.8896 26.2902L46.2139 24.6691ZM37.0274 29.0596C37.0274 29.0596 34.4605 27.5059 34.1904 28.9918C33.92 30.4781 33.3121 31.5587 34.5957 33.1124L33.7174 32.842L32.9068 30.7482L32.6367 28.7217L34.1904 27.1004L35.9464 27.2356L36.9596 28.0462L37.0274 29.0594V29.0596ZM38.2432 24.8041C38.2432 24.8041 39.3913 18.8597 45.2005 17.7117C49.9833 16.7664 52.4954 17.9143 53.4414 18.9949C53.4414 18.9949 49.1859 13.9291 45.1331 15.4826C41.0802 17.036 38.108 19.873 38.1755 21.6967C38.2906 24.8028 38.2432 24.8041 38.2432 24.8041ZM53.9143 19.6703C53.9143 19.6703 51.9556 19.6029 51.8878 21.3592C51.8878 21.3592 51.8877 21.6293 52.023 21.8994C52.023 21.8994 53.5769 20.1432 54.5222 21.0888" fill="#C8C8D2"/>
<path d="M45.3368 22.0821C45.3368 22.0821 44.9996 19.3863 42.7015 20.9536C41.2152 21.9668 41.3504 23.3853 41.6205 23.6554C41.8909 23.9258 41.8173 24.4698 42.023 24.0963C42.2284 23.7228 42.1608 22.507 42.9041 22.1695C43.6469 21.8316 44.865 21.4544 45.3368 22.0821Z" fill="#C8C8D2"/>
<path d="M38.9866 40.3403L32.6373 43.1772C32.6373 43.1772 35.2716 53.6471 33.9205 56.8894L32.9751 56.5519L32.9073 52.5665L31.1513 45.0013L30.4082 42.9072L37.0279 38.4492L38.9866 40.3403ZM39.6396 46.1313L40.5403 47.2301V51.2829H39.4596C39.4596 51.2829 39.3244 48.4459 39.3244 48.1082C39.3244 47.7706 39.4596 46.5547 39.4596 46.5547L39.6396 46.1313ZM39.6623 51.8911L36.6227 52.026L37.5007 52.6339L39.6623 52.9716" fill="#C8C8D2"/>
<path d="M50.0645 51.2151L52.5639 51.1475L53.1718 57.3617L50.6049 57.6994L50.0645 51.2151Z" fill="#C8C8D2"/>
<path d="M50.7402 51.2158L54.5227 51.0131C54.5227 51.0131 56.0764 47.0953 56.0764 46.8927C56.0764 46.69 57.4274 41.2187 57.4274 41.2187L54.3878 38.0442L53.7799 37.5039L52.1587 39.125V45.4069L50.7402 51.2158Z" fill="#343642" fill-opacity="0.6"/>
<path d="M52.4287 50.7429L50.0645 51.2158L50.4023 53.1073C51.2803 53.5126 52.7666 52.4316 52.7666 52.4316L52.4287 50.7429ZM52.4963 38.9224L57.2248 42.4349L57.3597 40.8138L53.7799 37.5039L52.4963 38.9224Z" fill="#C8C8D2"/>
<path d="M42.0058 64.5226L40.6074 58.8475L39.912 54.6604L39.7969 51.5524L46.1263 51.2155L50.064 51.2148L49.7062 58.308L50.3141 63.7793L50.2464 64.7925L45.1131 65.1978L42.0058 64.5226Z" fill="white"/>
<path d="M49.1865 51.1475C49.1865 51.1475 48.8487 58.1723 49.8619 63.1709C49.8619 63.1709 47.8355 64.4545 44.8633 64.7921L50.5374 64.5894L51.2129 64.1841L50.4024 53.1066L50.1997 50.7422" fill="#C8C8D2"/>
<path d="M53.2865 56.8219L55.9208 56.0788L60.9193 55.8087L61.6624 53.5119L60.3113 49.5269L58.758 49.3242L56.5964 49.9996L54.5224 51.0121L53.4215 50.8101L52.5635 51.1472" fill="white"/>
<path d="M53.2393 55.4714C53.2393 55.4714 54.9953 54.661 55.2657 54.7286L54.5225 51.0133L55.4007 50.6758C55.4007 50.6758 56.0086 54.1881 56.0086 54.5934C56.0086 54.5934 59.7912 54.796 60.1291 54.796C60.1291 54.796 60.9396 53.2425 60.737 51.6214L61.48 53.7828L61.5476 54.9987L60.4668 56.6198L59.2509 56.8901L57.2245 56.8225L56.549 55.9444L54.185 56.282L53.4419 56.5524" fill="#C8C8D2"/>
<path d="M50.5846 50.6751L49.0986 46.8926L47.5449 44.6635C47.5449 44.6635 47.8826 43.7178 48.3555 43.7178H49.9092L51.3951 44.2583L51.2602 46.7574L50.5846 50.6751Z" fill="white"/>
<path d="M50.8756 49.3912C50.8756 49.3912 48.9844 45.7438 48.9844 45.2035C48.9844 45.2035 49.322 44.3929 49.7949 44.5956C50.2676 44.7982 51.2808 45.3384 51.2808 45.3384V44.0551L48.9844 43.582L47.4307 43.7847L50.065 49.9991L50.6055 50.0669" fill="#C8C8D2"/>
<path d="M42.614 40.4764L40.7427 40.2729L38.9863 39.7324V40.3403L39.8446 41.2868L42.5465 42.5026" fill="white"/>
<path d="M39.5952 40.6787C39.5952 40.6787 41.6891 41.5569 42.3648 41.3542L42.4317 42.164L40.5408 41.7595L39.3926 40.949L39.5952 40.6787Z" fill="#C8C8D2"/>
<path d="M53.2796 43.9485C52.1334 43.9148 51.098 43.7786 50.1913 43.5229C50.2529 43.1512 50.1375 42.7865 50.2302 42.5186C50.4828 42.3366 50.9065 42.3395 51.2883 42.2969C50.9579 42.1344 50.4941 42.0704 50.1128 42.1639C50.1038 41.906 49.988 41.7462 49.918 41.5443C50.5624 41.3141 52.0836 39.8065 52.9394 40.3058C53.3472 40.5433 53.5205 41.8997 53.5521 42.5592C53.5785 43.1066 53.5026 43.6586 53.2797 43.9485" fill="white"/>
<path d="M53.2796 43.9485C52.1334 43.9148 51.098 43.7786 50.1913 43.5229C50.2529 43.1512 50.1375 42.7865 50.2302 42.5186C50.4828 42.3366 50.9065 42.3395 51.2883 42.2969C50.9579 42.1344 50.4941 42.0704 50.1128 42.1639C50.1038 41.906 49.988 41.7462 49.918 41.5443C50.5624 41.3141 52.0836 39.8065 52.9394 40.3058C53.3472 40.5433 53.5205 41.8997 53.5521 42.5592C53.5785 43.1066 53.5026 43.6586 53.2797 43.9485H53.2796Z" stroke="white" stroke-width="6.14065"/>
<path d="M47.7988 42.0743C47.7957 42.161 47.792 42.2484 47.7886 42.3359C47.4308 42.571 46.8532 42.5681 46.4602 42.7657C47.0393 42.791 47.495 42.9304 47.8892 43.1271L47.8638 43.7823C47.2079 44.2314 46.6087 44.9001 45.8364 45.3212C45.4712 45.5205 44.1895 46.0329 43.8011 45.9423C43.5814 45.8912 43.5615 45.6186 43.4736 45.3613C43.2864 44.8109 42.8553 43.9347 42.8175 43.1055C42.7699 42.0587 42.664 40.3045 43.7922 40.5201C44.7023 40.6936 45.761 41.113 46.4656 41.498C46.8963 41.733 47.1455 42.024 47.7988 42.0743Z" fill="white"/>
<path d="M47.7988 42.0743C47.7957 42.161 47.792 42.2484 47.7886 42.3359C47.4308 42.571 46.8532 42.5681 46.4602 42.7657C47.0393 42.791 47.495 42.9304 47.8892 43.1271L47.8638 43.7823C47.2079 44.2314 46.6087 44.9001 45.8364 45.3212C45.4712 45.5205 44.1895 46.0329 43.8011 45.9423C43.5814 45.8912 43.5615 45.6186 43.4736 45.3613C43.2864 44.8109 42.8553 43.9347 42.8175 43.1055C42.7699 42.0587 42.664 40.3045 43.7922 40.5201C44.7023 40.6936 45.761 41.113 46.4656 41.498C46.8963 41.733 47.1455 42.024 47.7988 42.0743V42.0743Z" stroke="white" stroke-width="6.14065"/>
<path d="M48.4498 43.3238C48.3493 42.7537 48.2337 42.5909 48.2785 42.0932C49.7996 41.0793 50.0851 43.8351 48.4497 43.3238" fill="white"/>
<path d="M48.4498 43.3238C48.3493 42.7537 48.2337 42.5909 48.2785 42.0932C49.7996 41.0793 50.0851 43.8351 48.4497 43.3238H48.4498Z" stroke="white" stroke-width="6.14065"/>
<path d="M50.6524 43.7852C50.6524 43.7852 50.1796 43.1097 50.5176 42.9071C50.8551 42.7044 51.1931 42.9072 51.3957 42.5694C51.5984 42.2319 51.3957 42.0292 51.4632 41.624C51.5309 41.2187 51.8689 41.1509 52.2063 41.0835C52.544 41.016 53.4899 40.8808 53.6248 41.2187L53.2195 40.0028L52.4089 39.7324L49.842 41.2187L49.7072 41.9615V43.4477L50.6524 43.7852ZM43.56 46.0143C43.4788 44.9602 43.393 43.9075 43.2974 42.8544C43.1545 41.2819 43.6751 41.5562 45.0383 41.5562C45.2464 41.5562 46.3201 41.8045 46.397 41.9615C46.7654 42.714 45.7809 42.5467 46.8215 43.1141C47.6995 43.593 49.2513 42.8234 48.8964 41.7588C48.6978 41.5221 47.8617 41.6851 47.5621 41.5299L45.979 40.7092C45.3076 40.3606 43.756 39.8532 43.0399 40.3399C41.2264 41.5735 43.1545 44.6553 43.8015 45.942" fill="#C8C8D2"/>
<path d="M45.3375 22.0827C43.4966 21.6539 42.5818 22.8532 42.0238 24.0969C41.5254 23.9761 41.7239 23.2985 41.8497 22.9532C42.1792 22.047 43.5073 20.8407 44.5923 21.0043C45.0592 21.0745 45.6911 21.5015 45.3375 22.0827ZM54.3079 24.1793L54.3953 24.1825C54.8113 25.0469 55.1713 25.9625 55.6959 26.7254C55.3446 27.5443 53.0338 28.2689 53.0694 26.7985C53.569 26.5802 54.4316 26.754 54.8746 26.475C54.6187 25.772 54.2491 25.1735 54.3079 24.1793ZM46.2802 24.2016C46.675 24.9253 46.8035 25.6856 47.3646 26.2326C47.6173 26.4788 48.1087 26.7789 47.865 27.4637C47.8081 27.6251 47.3921 27.9852 47.1517 28.0559C46.2745 28.3148 44.2304 28.1094 44.9227 27.0156C45.6485 27.0495 46.6232 27.4867 47.1655 26.9603C46.7494 26.2945 46.007 24.9777 46.2802 24.2016ZM53.9785 31.5564C52.6577 32.4051 51.1849 33.3275 49.0207 33.1135C48.5582 32.7115 48.382 31.8167 48.8312 31.2258C49.0652 31.6279 48.9181 32.3673 49.5698 32.4787C50.7978 32.6888 52.2272 31.7274 53.1107 31.3912C53.6581 30.4678 53.0632 30.1282 52.5699 29.5339C51.5599 28.3161 50.2046 26.8068 50.2538 24.9838C50.6623 24.6878 50.6973 25.4358 50.756 25.572C51.2835 26.8063 52.6109 28.3853 53.5798 29.4418C53.8177 29.702 54.2093 29.9516 54.2529 30.1236C54.3786 30.6242 53.9261 31.2236 53.9786 31.5564H53.9785ZM36.5659 30.6632C36.152 30.4268 36.0533 29.386 35.5673 29.3565C34.8729 29.3142 34.9996 30.7064 35.0021 31.5207C34.5242 31.0869 34.4401 29.7503 34.7912 29.0641C34.3908 28.8676 34.212 29.281 33.9902 29.4265C34.2756 27.3536 37.0227 28.4652 36.5661 30.6632H36.5659ZM54.8195 32.4196C54.2048 33.5899 53.3351 34.8787 51.5309 34.9162C51.4943 34.5383 51.4661 33.9631 51.5328 33.7354C52.9121 33.6031 53.7635 32.9011 54.8195 32.4196ZM46.1763 33.1783C47.3268 33.7837 49.4416 33.8485 51.0056 33.8026C51.0895 34.1453 51.0875 34.5686 51.0908 34.9865C49.0802 35.0867 46.7033 34.5894 46.1763 33.1783ZM45.9574 34.3066C46.7533 36.3045 49.4881 36.0745 51.7943 36.0194C51.6928 36.2788 51.4727 36.5851 51.1992 36.696C50.46 36.9967 48.4217 37.2248 47.3955 36.6798C46.7448 36.334 46.3271 35.5525 45.9704 35.0944C45.7984 34.8731 44.941 34.3078 45.9574 34.3065" fill="#24252E"/>
<path d="M53.8823 45.3269C52.9486 46.9262 52.0553 48.5689 50.9473 49.9796C51.4117 48.6138 51.6105 46.3283 51.6807 44.5857C52.6524 44.1312 53.4843 44.6882 53.8823 45.3269Z" fill="#C8C8D2"/>
<path d="M58.9063 51.0752C57.8608 51.2845 57.1263 52.3006 56.1064 52.2353C56.6669 51.4451 57.6491 51.112 58.9063 51.0752ZM59.3675 52.7112C58.5154 52.8015 57.5146 52.9393 56.6503 52.8682C57.0593 52.2432 58.6357 52.4588 59.3675 52.7112ZM59.6627 54.1219C58.7051 54.1427 57.5147 54.1236 56.6048 54.0474C57.143 53.469 59.0416 53.8326 59.6627 54.1219Z" fill="#24252E"/>
<path d="M52.0799 57.9818C52.217 59.1845 52.6938 60.4031 52.6343 61.7203C52.1049 61.8987 51.8006 62.055 51.091 62.0542C51.0409 60.9347 50.8911 59.2234 50.936 58.1562C51.2851 58.1794 51.7996 57.907 52.0799 57.9818Z" fill="#C8C8D2"/>
<path d="M50.5362 40.256C50.0554 40.5699 49.6459 40.962 49.184 41.2971C48.1598 41.3479 47.601 41.2263 46.8486 40.6381C46.861 40.5911 46.9365 40.6122 46.9394 40.5541C48.0356 41.0424 49.4293 40.3547 50.5362 40.2559" fill="#343642" fill-opacity="0.6"/>
<path d="M44.7812 47.7293C45.0825 46.4243 46.2626 45.7483 47.3344 45.0293C48.4406 46.4332 49.1134 48.2388 49.8543 49.981C48.1038 49.4534 46.3153 48.5972 44.7812 47.7293Z" fill="#C8C8D2"/>
<path d="M50.9362 58.1566C50.8914 59.2238 51.041 60.9351 51.0911 62.0546C51.8009 62.0556 52.1048 61.8995 52.6345 61.7207C52.6943 60.4035 52.2173 59.1849 52.08 57.9822C51.7996 57.9074 51.2852 58.1798 50.9362 58.1566ZM39.8894 52.0877C40.3573 56.3884 41.0348 60.0036 42.2774 63.8119C45.0359 64.6494 48.3608 64.7224 50.7988 63.9668C50.3514 61.8173 50.5468 59.2005 50.2853 56.9066C50.088 55.1825 50.1887 53.4479 49.9183 51.6889C46.9641 51.0745 42.7885 51.5455 39.8894 52.0877ZM50.6165 51.7163C50.5917 53.5631 50.6992 55.385 50.8402 57.2344C51.5496 57.128 52.0309 57.0568 52.6896 56.9124C52.4757 55.1321 52.502 53.1287 52.0661 51.5537C51.5626 51.5584 51.1189 51.5479 50.6166 51.7163H50.6165ZM54.2146 51.4184C53.8779 51.3414 53.486 51.4153 53.1644 51.4216C53.3157 52.9273 53.6824 54.589 53.8114 56.1693C54.3175 56.185 54.5878 55.9464 55.0041 55.8661C55.0263 54.4787 54.8825 52.5674 54.2146 51.4184ZM59.6624 56.3959C60.7171 56.1399 61.3801 54.848 61.0853 53.5211C60.8873 52.6295 60.5347 50.9507 60.1573 50.3802C59.8785 49.9587 59.1226 49.4062 58.5188 49.7925C57.5368 50.4215 55.8067 50.6039 55.0908 51.365C55.4499 52.5606 55.5612 54.2028 55.7094 55.7178C56.9361 55.7945 58.4454 55.3803 59.4657 55.8199C58.7534 56.0504 57.8292 56.0522 57.214 56.3884C57.717 56.6313 58.8945 56.5823 59.6624 56.3959ZM49.8539 49.9814C49.113 48.2392 48.4401 46.4335 47.334 45.0296C46.2623 45.7486 45.0821 46.4245 44.7809 47.7296C46.315 48.5976 48.1034 49.4537 49.8539 49.9814ZM51.6801 44.5863C51.6099 46.3287 51.4112 48.6143 50.9467 49.9798C52.0546 48.5694 52.948 46.9267 53.8818 45.3275C53.4838 44.6884 52.6518 44.1314 51.6801 44.5861V44.5863ZM49.6099 43.8506C49.1902 43.8052 48.834 44.333 48.288 44.1048C48.1632 44.2431 48.0496 44.3929 47.9222 44.5279C49.1275 45.9804 49.6751 48.0412 50.6061 49.7484C51.1056 48.1087 51.048 46.3123 51.1581 44.5226C50.4717 44.5658 50.0909 43.9017 49.6099 43.8506ZM48.2788 42.0936C48.2339 42.5911 48.3496 42.7541 48.45 43.3242C50.0851 43.8354 49.7996 41.0796 48.2788 42.0938V42.0936ZM46.4652 41.4983C45.7607 41.1133 44.7019 40.6938 43.7918 40.5203C42.6637 40.3044 42.7695 42.0592 42.8174 43.1059C42.855 43.9349 43.2859 44.8113 43.4733 45.3617C43.5613 45.6188 43.5809 45.8916 43.8007 45.9427C44.1892 46.0331 45.4707 45.5207 45.8361 45.3215C46.6084 44.9004 47.2076 44.2317 47.8635 43.7827C47.8721 43.5641 47.8803 43.3458 47.8891 43.1273C47.4947 42.9311 47.039 42.7913 46.4601 42.7661C46.8527 42.5683 47.4305 42.5712 47.7884 42.3361C47.7917 42.2486 47.7954 42.1615 47.7985 42.0746C47.145 42.0247 46.896 41.7337 46.4652 41.4983ZM39.735 40.2755C39.15 40.8693 41.3751 41.6784 42.0838 41.7222C42.0798 41.3463 42.2978 40.9924 42.254 40.7228C41.4123 40.5751 40.3066 40.6725 39.7348 40.2755H39.735ZM46.9393 40.5543C46.9363 40.6124 46.8608 40.5913 46.8485 40.6386C47.6008 41.2266 48.1598 41.3482 49.1839 41.2975C49.6457 40.9624 50.0552 40.5704 50.5361 40.2564C49.429 40.3553 48.0355 41.043 46.9393 40.5543ZM53.5519 42.5597C53.5202 41.8999 53.3469 40.5436 52.9392 40.3063C52.0834 39.8065 50.5623 41.3147 49.9179 41.5449C49.988 41.7465 50.1037 41.9064 50.1125 42.1645C50.4938 42.0708 50.9579 42.1348 51.2881 42.2974C50.9063 42.34 50.4826 42.3373 50.23 42.519C50.1373 42.7866 50.2527 43.1514 50.1911 43.5233C51.0976 43.7791 52.1332 43.9153 53.2793 43.9488C53.5021 43.6587 53.5781 43.1067 53.5517 42.5595L53.5519 42.5597ZM38.7504 40.8499C38.5669 40.7189 37.3245 39.1025 37.1544 39.1696C34.9064 40.0562 32.8045 41.5893 30.9259 43.0391C32.7169 46.882 33.4399 51.5901 33.5675 56.1278C35.6191 57.0875 37.4211 58.4708 40.2051 58.6151C39.8828 56.3358 39.5886 54.3022 39.4059 52.1563C38.7063 51.8613 37.7029 52.1696 37.0483 52.0647C37.0429 51.276 38.0482 51.7191 38.1318 51.1888C38.1949 50.7876 37.5785 50.7573 37.7792 50.1254C38.2912 50.3115 38.5598 50.7221 39.1055 50.8766C39.6043 49.7856 39.0987 47.8551 39.1703 46.9432C39.1839 46.772 39.2559 45.9949 39.6393 46.131C39.9788 46.2517 39.62 48.1985 39.6571 49.0616C39.691 49.8567 39.561 50.626 39.8831 51.1253C42.5734 50.7589 45.3069 50.5222 48.2177 50.4425C47.5773 50.1677 46.8167 49.9078 45.9826 49.4377C45.5303 49.1828 44.105 48.6524 43.9745 48.223C43.7665 47.5387 44.5207 47.1741 44.6497 46.5874C43.2919 47.3283 43.0268 45.8777 42.7057 44.8502C42.4147 43.9195 42.2488 43.2242 42.1775 42.6874C41.0079 42.1298 39.7572 41.565 38.7504 40.8499ZM52.3637 39.3651C54.2368 38.4569 54.5743 42.7596 53.8401 44.1456C53.9536 44.559 54.3439 44.7173 54.5031 45.089C53.458 46.9614 52.2971 48.7093 51.2306 50.5595C52.0239 50.0655 53.1571 50.4711 54.0907 50.1017C54.432 49.9666 54.6789 49.1856 54.9373 48.5606C55.648 46.8411 56.3939 44.6735 56.726 43.0326C56.8009 42.6589 57.0052 41.8443 56.9595 41.5115C56.8778 40.9157 56.0695 40.4739 55.6584 40.1056C54.9008 39.4251 54.4239 38.8265 53.6336 38.1902C53.3134 38.6628 52.6257 38.9806 52.3637 39.3651ZM34.4668 22.7551C33.574 23.7369 33.7609 25.5772 33.869 26.8862C35.4824 25.8711 37.6234 26.9662 37.6032 28.6925C38.3734 28.6719 37.8909 27.7304 37.7517 27.1239C37.2964 25.1429 38.5188 22.9907 37.8071 21.179C36.4254 21.2839 35.2903 21.8483 34.4668 22.7551ZM40.8527 17.0557C38.8325 17.6283 36.2429 19.0964 35.4127 20.9116C36.0556 20.818 36.5018 20.4938 37.136 20.4538C37.3759 20.4382 37.6897 20.5541 37.9652 20.4857C38.5141 20.3495 38.9772 19.1188 39.3914 18.6608C39.7951 18.2135 40.2805 18.0224 40.6126 17.6147C40.8258 17.5117 41.1413 17.519 41.1534 17.1985C41.0609 17.0996 40.9634 17.0242 40.8527 17.0557ZM51.3705 17.5942C49.2734 16.4113 45.7236 15.5213 43.4929 16.6331C41.693 17.5309 39.2598 19.0156 38.4301 20.8973C39.205 22.7135 38.2006 24.3772 38.1365 26.2208C38.1025 27.2016 38.5984 28.058 38.6363 29.1258C38.3709 29.5636 37.561 29.6174 37.0001 29.5874C36.8114 28.6427 36.481 27.5809 35.508 27.4742C34.1315 27.3236 33.1253 28.463 33.0625 29.6535C32.9885 31.0535 34.1378 33.374 35.7669 33.213C36.3959 33.1508 36.5509 32.52 37.2363 32.5265C37.6079 33.268 36.6631 33.5008 36.5658 34.0311C36.5405 34.1681 36.6443 34.7035 36.7044 34.9546C37.0003 36.177 37.6599 37.7592 38.3092 38.69C39.133 39.8709 40.7522 40.0486 42.494 40.1643C42.8049 39.4941 43.9509 39.5494 44.6976 39.7248C43.8027 39.3703 42.9707 38.5111 42.2813 37.7506C41.4893 36.8781 40.6872 35.9421 40.6467 34.8016C42.1433 36.8778 43.3799 38.6913 46.1011 39.6044C48.1605 40.2951 50.5654 39.2879 52.1473 38.1768C52.8039 37.7149 53.1959 36.9822 53.6624 36.3115C55.4084 33.7997 56.2233 30.2144 56.0443 26.7399C55.9706 25.3066 55.9737 23.8786 55.493 22.9145C54.9904 21.9061 53.2907 21.0043 52.2956 21.9162C52.1113 20.9359 53.1231 20.3293 54.3115 20.6823C53.4643 19.5881 52.575 18.274 51.3705 17.5942ZM55.2775 49.9292C56.9164 49.1146 59.9782 47.7365 61.0057 49.9323C61.3848 50.7417 61.8295 52.1098 62.026 52.9455C62.3032 54.124 61.7253 56.6018 60.5135 56.9973C59.4435 57.3467 58.1948 57.3256 56.9058 57.0664C56.7541 56.9401 56.585 56.7201 56.4668 56.4907C55.5465 56.4551 54.6845 56.5403 53.9575 56.9186C54.0264 57.5991 53.566 57.7084 53.1344 57.8486C52.8144 59.1173 53.7746 60.7744 53.5447 61.9313C53.3808 62.7554 52.3668 62.8829 51.6214 63.037C51.5971 63.495 51.6542 63.8774 51.7049 64.2649C51.5347 64.8929 50.7702 65.2504 50.0457 65.3379C47.6631 65.624 44.0449 65.7529 41.7531 64.9286C41.1136 63.3596 40.6096 61.4512 40.0768 59.6602C37.8415 59.899 36.0334 58.6956 34.3291 57.9075C33.739 57.6338 32.9225 57.483 32.7023 57.0134C32.4885 56.5583 32.5759 55.687 32.5229 54.8634C32.388 52.7608 32.2724 50.7325 31.7172 48.5794C31.4678 47.6133 31.033 46.7605 30.7299 45.8297C30.4498 44.9669 29.9603 43.9005 29.8324 43.0402C29.6432 41.765 30.8439 41.694 31.6116 41.1414C32.7988 40.287 33.7304 39.8143 35.0158 39.0431C35.3966 38.8145 36.5446 38.2366 36.6752 37.9703C36.9348 37.4424 36.2296 36.6982 36.041 36.2843C35.7428 35.63 35.5873 35.0741 35.5445 34.4282C34.4661 34.258 33.6487 33.6161 33.1549 32.8925C32.3381 31.695 31.7715 29.4793 32.4783 27.7938C32.5337 27.6612 32.8103 27.4001 32.8511 27.1964C32.9314 26.795 32.6996 26.261 32.6853 25.8341C32.6111 23.6437 33.0559 21.7563 34.5305 21.0956C35.1292 18.7105 37.2718 17.9177 39.2906 16.7324C40.0452 16.2894 40.877 16.0063 41.7362 15.6902C44.818 14.5561 49.5462 14.7696 52.104 16.7041C53.1886 17.5244 54.922 19.2564 55.5421 20.5103C57.1799 23.8207 57.0636 29.3536 55.9182 33.3805C55.7642 33.9213 55.5408 34.716 55.2289 35.3656C55.0115 35.819 54.3357 36.7265 54.4177 37.1269C54.5022 37.5408 55.9588 38.6468 56.2708 38.9478C56.8334 39.4902 57.9017 40.2103 57.9881 40.8949C58.0811 41.6233 57.6671 42.6198 57.4572 43.3231C56.7567 45.6692 56.0726 47.8378 55.2775 49.9292Z" fill="#24252E"/>
<path d="M44.3447 33.6897C44.4336 33.5714 44.9223 33.3918 45.6063 33.721C45.6063 33.721 44.7957 33.8559 44.8633 35.2076L44.5257 35.1398C44.5255 35.1398 44.1763 33.9146 44.3447 33.6897Z" fill="#C8C8D2"/>
<path d="M50.2672 45.305C50.2672 45.4035 50.2281 45.498 50.1584 45.5676C50.0888 45.6373 49.9943 45.6764 49.8958 45.6764C49.7973 45.6764 49.7028 45.6373 49.6332 45.5676C49.5635 45.498 49.5244 45.4035 49.5244 45.305C49.5244 45.2065 49.5635 45.112 49.6332 45.0424C49.7028 44.9727 49.7973 44.9336 49.8958 44.9336C49.9943 44.9336 50.0888 44.9727 50.1584 45.0424C50.2281 45.112 50.2672 45.2065 50.2672 45.305ZM50.6388 47.0275C50.6387 47.126 50.5995 47.2205 50.5298 47.2902C50.4601 47.3599 50.3655 47.399 50.267 47.3989C50.1684 47.3989 50.0739 47.3597 50.0042 47.29C49.9346 47.2202 49.8954 47.1257 49.8955 47.0271C49.8955 46.9286 49.9347 46.8341 50.0044 46.7644C50.0741 46.6948 50.1687 46.6557 50.2672 46.6557C50.3658 46.6558 50.4603 46.695 50.5299 46.7647C50.5996 46.8344 50.6387 46.9289 50.6386 47.0275" fill="#24252E"/>
<path d="M89.5743 31.9164C89.1945 31.9641 88.8714 32.0114 88.6055 32.0591C88.304 32.1145 88.0045 32.181 87.7079 32.2585C87.3182 32.3631 87.0688 32.5487 86.9599 32.8146C86.8506 33.0809 86.796 33.385 86.796 33.7273V44.8774C86.796 45.9042 86.5893 46.8453 86.1761 47.7008C85.7629 48.5562 85.1951 49.2739 84.4734 49.8536C83.742 50.4243 82.9251 50.8544 82.0227 51.1441C81.1201 51.4339 80.1562 51.579 79.1305 51.579C77.354 51.579 75.9223 51.1517 74.8345 50.2967C73.7467 49.4417 73.2031 48.2688 73.2031 46.7774C73.2031 45.894 73.4525 45.1627 73.9511 44.5832C74.4498 44.0038 75.136 43.7141 76.01 43.7141C76.8362 43.7141 77.4938 43.9563 77.9832 44.4407C78.4725 44.9254 78.7169 45.5236 78.7169 46.2359C78.7169 46.844 78.5054 47.4065 78.0831 47.9243C77.6603 48.4421 77.1781 48.9195 76.6367 49.3563V49.5414C76.7224 49.7316 76.9081 49.893 77.194 50.026C77.4794 50.1591 77.77 50.2254 78.0656 50.2254C79.2085 50.2254 80.1061 49.8167 80.7586 48.9991C81.4111 48.1818 81.7376 46.9458 81.7376 45.2916V33.8699C81.7376 33.5277 81.6851 33.2425 81.58 33.0144C81.4746 32.7863 81.2217 32.5865 80.8213 32.4156C80.5349 32.2919 80.1891 32.1873 79.7833 32.1019C79.3777 32.0163 79.041 31.9545 78.774 31.9164V30.8052H89.5741V31.9164H89.5743ZM106.473 47.6181C106.14 48.1595 105.739 48.6702 105.269 49.1501C104.799 49.6296 104.264 50.0406 103.666 50.3824C103.029 50.7435 102.385 51.0163 101.735 51.2016C101.084 51.3869 100.336 51.4795 99.4908 51.4795C98.0849 51.4795 96.8712 51.2801 95.8505 50.8811C94.8294 50.4821 93.9862 49.9457 93.3214 49.2712C92.6566 48.5968 92.1602 47.8013 91.8325 46.8845C91.5049 45.9681 91.341 44.9732 91.341 43.8997C91.341 42.9309 91.5192 42.0025 91.8753 41.1141C92.2263 40.2344 92.7412 39.4294 93.3927 38.7419C94.0387 38.0675 94.8534 37.5212 95.8364 37.1033C96.8196 36.6855 97.9189 36.4764 99.1348 36.4764C100.465 36.4764 101.557 36.638 102.412 36.9608C103.267 37.2839 103.975 37.7303 104.535 38.3001C105.076 38.8416 105.47 39.4803 105.718 40.2163C105.965 40.9526 106.088 41.7245 106.088 42.5318V43.4579H96.4562C96.4562 45.4052 96.8315 46.8873 97.5819 47.9034C98.3323 48.9199 99.5245 49.4279 101.158 49.4279C102.051 49.4279 102.854 49.1836 103.566 48.6942C104.279 48.2049 104.887 47.5853 105.39 46.8348L106.473 47.6181ZM101.03 42.2038C101.03 41.634 101.001 41.0496 100.944 40.4514C100.888 39.8532 100.788 39.3636 100.645 38.9838C100.484 38.5373 100.262 38.2001 99.9826 37.9722C99.7023 37.7443 99.3484 37.6301 98.9209 37.6301C98.1897 37.6301 97.6054 38.0006 97.1685 38.7414C96.7316 39.4823 96.4941 40.6557 96.456 42.2607L101.03 42.2038ZM126.648 51.0233H118.085V49.9832C118.265 49.9644 118.484 49.9404 118.74 49.9118C118.997 49.8833 119.191 49.8361 119.325 49.7693C119.524 49.6651 119.667 49.5129 119.752 49.3135C119.837 49.1141 119.88 48.8197 119.88 48.4301V41.7621C119.88 40.7931 119.701 40.0643 119.344 39.5748C118.987 39.0857 118.461 38.8411 117.765 38.8411C117.384 38.8411 117.03 38.898 116.701 39.0121C116.373 39.1261 116.051 39.2924 115.737 39.5108C115.46 39.701 115.239 39.8955 115.072 40.0951C114.927 40.2672 114.787 40.4431 114.651 40.6224V48.2735C114.651 48.606 114.698 48.884 114.793 49.1069C114.888 49.3303 115.045 49.4989 115.263 49.6127C115.415 49.6983 115.605 49.7745 115.833 49.8407C116.061 49.9075 116.284 49.9546 116.503 49.9833V51.0233H107.84V49.9832C108.081 49.9639 108.321 49.9378 108.56 49.9047C108.802 49.8715 109.009 49.8264 109.179 49.7693C109.483 49.6651 109.692 49.5035 109.807 49.2849C109.92 49.0666 109.978 48.7816 109.978 48.43V40.1372C109.978 39.843 109.901 39.5531 109.749 39.2683C109.598 38.9833 109.398 38.7507 109.151 38.5701C108.98 38.4561 108.764 38.3613 108.503 38.2851C108.241 38.2092 107.954 38.157 107.641 38.1285V37.0883L114.437 36.7179L114.651 36.9317V38.9976H114.708C115.03 38.7111 115.353 38.4262 115.677 38.1427C116.057 37.8104 116.408 37.5397 116.731 37.3305C117.082 37.1025 117.543 36.9079 118.113 36.7463C118.683 36.5848 119.291 36.5041 119.937 36.5041C121.485 36.5041 122.646 36.9436 123.421 37.8221C124.195 38.7007 124.582 39.8668 124.582 41.3202V48.3019C124.582 48.6535 124.634 48.9338 124.738 49.1424C124.843 49.3516 125.038 49.5177 125.323 49.6411C125.474 49.7079 125.662 49.7744 125.885 49.8405C126.108 49.9073 126.363 49.9545 126.648 49.9832V51.0231L126.648 51.0233ZM146.254 51.0233H139.538C138.712 49.574 137.958 48.3444 137.275 47.3355C136.638 46.3941 135.992 45.4584 135.338 44.5285L134.499 45.2386V48.3447C134.499 48.6867 134.549 48.9669 134.648 49.1852C134.748 49.4038 134.941 49.5654 135.226 49.6696C135.397 49.7458 135.596 49.8123 135.824 49.869C136.052 49.9258 136.28 49.9644 136.508 49.983V51.0231H127.66V49.983C127.9 49.9641 128.139 49.9379 128.377 49.9045C128.616 49.8713 128.826 49.8261 129.008 49.7692C129.314 49.6648 129.522 49.5033 129.632 49.2846C129.742 49.0664 129.797 48.7813 129.797 48.4298V32.543C129.797 32.2295 129.728 31.9043 129.59 31.5671C129.453 31.2301 129.251 30.9759 128.985 30.8048C128.804 30.6909 128.534 30.596 128.173 30.5198C127.812 30.4438 127.484 30.3965 127.189 30.3773V29.3372L134.285 28.9668L134.499 29.1947V43.8984C135.201 43.2713 135.99 42.5448 136.868 41.7185C137.745 40.8923 138.45 40.2084 138.981 39.6669C139.295 39.3442 139.468 39.0995 139.501 38.9334C139.534 38.7672 139.551 38.6651 139.551 38.627C139.551 38.4559 139.401 38.3134 139.101 38.1996C138.801 38.0857 138.35 37.9856 137.747 37.9002V36.8886H144.986V37.8718C144.037 38.138 143.314 38.3874 142.816 38.6198C142.318 38.8526 141.775 39.1637 141.187 39.553C140.801 39.8079 140.424 40.0769 140.057 40.3593C139.692 40.6404 139.273 40.9906 138.8 41.4098C139.729 42.7583 140.587 44.0062 141.374 45.1551C142.161 46.304 142.986 47.519 143.849 48.8007C144.143 49.247 144.508 49.5461 144.944 49.6978C145.381 49.8501 145.817 49.9451 146.254 49.9828V51.0233H146.254ZM155.416 51.0233H146.41V49.9832C146.657 49.9644 146.9 49.9404 147.137 49.9118C147.374 49.8833 147.579 49.8361 147.75 49.7693C148.054 49.6555 148.267 49.4916 148.391 49.2778C148.514 49.064 148.576 48.7817 148.576 48.43V40.1372C148.576 39.8049 148.5 39.5128 148.348 39.261C148.196 39.0097 148.006 38.8076 147.778 38.6555C147.607 38.5417 147.348 38.4324 147.002 38.328C146.655 38.2235 146.339 38.1568 146.054 38.1286V37.0883L153.036 36.7179L153.25 36.9317V48.2448C153.25 48.5772 153.321 48.8597 153.463 49.0927C153.606 49.3255 153.81 49.4988 154.076 49.6126C154.266 49.6982 154.475 49.7744 154.703 49.8405C154.931 49.9073 155.168 49.9545 155.416 49.9832V51.0231V51.0233ZM153.335 31.589C153.335 32.311 153.057 32.9259 152.502 33.434C151.946 33.9422 151.288 34.1964 150.528 34.1964C149.759 34.1964 149.096 33.9422 148.54 33.434C147.985 32.9259 147.707 32.3107 147.707 31.589C147.707 30.8671 147.985 30.2498 148.54 29.7367C149.096 29.2236 149.759 28.9671 150.528 28.9671C151.298 28.9671 151.958 29.2237 152.509 29.7367C153.059 30.2498 153.335 30.8671 153.335 31.589ZM175.534 51.0233H166.971V49.9832C167.151 49.9644 167.37 49.9404 167.626 49.9118C167.882 49.8833 168.077 49.8361 168.21 49.7693C168.41 49.6651 168.552 49.5129 168.638 49.3135C168.723 49.1141 168.766 48.8197 168.766 48.4301V41.7621C168.766 40.7931 168.587 40.0643 168.23 39.5748C167.873 39.0857 167.347 38.8411 166.651 38.8411C166.27 38.8411 165.916 38.898 165.587 39.0121C165.258 39.1261 164.937 39.2924 164.622 39.5108C164.346 39.701 164.125 39.8955 163.958 40.0951C163.813 40.2672 163.673 40.4431 163.537 40.6224V48.2735C163.537 48.606 163.584 48.884 163.679 49.1069C163.774 49.3303 163.931 49.4989 164.149 49.6127C164.301 49.6983 164.491 49.7745 164.719 49.8407C164.947 49.9075 165.17 49.9546 165.389 49.9833V51.0233H156.726V49.9832C156.966 49.964 157.206 49.9378 157.445 49.9047C157.688 49.8715 157.894 49.8264 158.065 49.7693C158.369 49.6651 158.578 49.5035 158.692 49.2849C158.806 49.0666 158.863 48.7816 158.863 48.43V40.1372C158.863 39.843 158.787 39.5531 158.635 39.2683C158.483 38.9833 158.284 38.7507 158.037 38.5701C157.866 38.4561 157.65 38.3613 157.389 38.2851C157.127 38.2092 156.84 38.157 156.527 38.1285V37.0883L163.323 36.7179L163.537 36.9317V38.9976H163.594C163.915 38.7111 164.238 38.4262 164.563 38.1427C164.942 37.8104 165.294 37.5397 165.617 37.3305C165.968 37.1025 166.429 36.9079 166.999 36.7463C167.569 36.5848 168.177 36.5041 168.823 36.5041C170.371 36.5041 171.532 36.9436 172.306 37.8221C173.08 38.7007 173.467 39.8668 173.467 41.3202V48.3019C173.467 48.6535 173.519 48.9338 173.624 49.1424C173.729 49.3516 173.923 49.5177 174.208 49.6411C174.36 49.7079 174.548 49.7744 174.771 49.8405C174.994 49.9073 175.248 49.9545 175.533 49.9832V51.0231L175.534 51.0233ZM183.456 51.5078C182.541 51.5088 181.63 51.3719 180.756 51.1017C179.877 50.831 179.196 50.5439 178.711 50.2398L178.284 51.2086H177.173L176.987 45.8939H178.028C178.17 46.3212 178.407 46.8035 178.74 47.3401C179.073 47.8767 179.453 48.3588 179.88 48.7864C180.326 49.2138 180.837 49.5748 181.412 49.8694C181.986 50.1639 182.602 50.3111 183.257 50.3111C184.121 50.3111 184.765 50.1425 185.187 49.8053C185.61 49.4681 185.821 48.9481 185.821 48.2451C185.821 47.8653 185.726 47.5519 185.536 47.3047C185.347 47.0578 185.085 46.844 184.753 46.6636C184.382 46.4736 183.976 46.3121 183.535 46.1789C183.093 46.0462 182.549 45.8848 181.903 45.6945C181.257 45.5046 180.704 45.312 180.243 45.1173C179.782 44.9228 179.305 44.6164 178.812 44.1983C178.384 43.8279 178.042 43.3817 177.786 42.8593C177.529 42.3369 177.401 41.7147 177.401 40.9925C177.401 39.6535 177.964 38.5706 179.09 37.7441C180.215 36.9176 181.69 36.5044 183.514 36.5044C184.378 36.5044 185.173 36.5924 185.9 36.7682C186.627 36.9441 187.237 37.1362 187.731 37.3453L188.03 36.5047H189.113L189.341 41.3633H188.344C188.011 40.3757 187.441 39.5233 186.634 38.8059C185.827 38.0888 184.957 37.73 184.026 37.73C183.295 37.73 182.72 37.8821 182.302 38.186C181.884 38.4901 181.675 38.9126 181.675 39.4541C181.675 40.1761 181.981 40.6986 182.593 41.0214C183.204 41.3446 184.06 41.6483 185.16 41.9333C186.857 42.3703 188.1 42.9663 188.887 43.7214C189.674 44.4767 190.067 45.4383 190.067 46.6065C190.067 48.1644 189.457 49.3709 188.236 50.2255C187.016 51.0803 185.422 51.5078 183.456 51.5078H183.456Z" fill="white"/>
</g>
<defs>
<clipPath id="clip0_1708_2956">
<rect width="165" height="50.556" fill="white" transform="translate(26 15)"/>
</clipPath>
</defs>
</svg>
