<svg width="216" height="80" viewBox="0 0 216 80" fill="none" xmlns="http://www.w3.org/2000/svg">
<rect width="216" height="80" rx="7" fill="#343642" fill-opacity="0.6"/>
<g clip-path="url(#clip0_1708_3000)">
<path d="M49.6254 35.9119C47.5194 26.6208 43.1285 24.1432 41.9998 22.3951C41.5318 21.6242 41.1326 20.8259 40.7748 20C40.7197 20.8259 40.6096 21.3489 39.9076 21.9683C38.5036 23.2209 32.516 28.1074 32.0205 38.6648C31.5525 48.5203 39.2607 54.5905 40.2792 55.2099C41.0638 55.5953 42.0136 55.2237 42.4816 54.8658C46.198 52.3194 51.2772 45.5196 49.6254 35.9119Z" fill="white"/>
<path d="M41.1052 49.9795C40.9125 52.4158 40.7748 53.8336 40.2793 55.2238C40.2793 55.2238 40.5959 57.55 40.8299 60.0001H41.6282C41.8209 58.2658 42.11 56.5452 42.5091 54.8521C41.4768 54.3428 41.1465 52.113 41.1052 49.9795Z" fill="#868686"/>
<path d="M42.509 54.8517C41.4629 54.37 41.1601 52.085 41.105 49.9653C41.3665 46.4691 41.4353 42.9591 41.339 39.4491C41.2839 37.6046 41.3665 22.4222 40.8848 20.1924C41.2151 20.9494 41.5868 21.679 42.0135 22.381C43.1284 24.1291 47.5331 26.6067 49.6391 35.8978C51.2771 45.5055 46.2255 52.2915 42.509 54.8517Z" fill="#C8C8D2"/>
<path d="M181.119 51.4937C179.853 51.4937 178.834 50.4751 178.834 49.2087C178.834 47.9424 179.853 46.9238 181.119 46.9238C182.371 46.9238 183.39 47.9286 183.404 49.1812C183.431 50.42 182.454 51.4661 181.215 51.4937C181.174 51.4937 181.146 51.4937 181.119 51.4937ZM181.119 47.1303C179.976 47.1165 179.04 48.0525 179.027 49.195C179.013 50.3374 179.949 51.2734 181.091 51.2872C182.234 51.301 183.17 50.365 183.184 49.2225C183.184 49.2225 183.184 49.2225 183.184 49.2087C183.211 48.08 182.303 47.144 181.174 47.1303C181.16 47.1303 181.133 47.1303 181.119 47.1303ZM181.669 50.654L181.078 49.3877H180.61V50.654H180.266V47.7634H181.119C181.752 47.7634 182.014 48.0387 182.014 48.5756C182.014 49.0023 181.821 49.2638 181.436 49.3464L182.041 50.654H181.669ZM180.623 49.0849H181.119C181.518 49.0849 181.683 48.9472 181.683 48.5756C181.683 48.2039 181.532 48.08 181.078 48.08H180.623V49.0849Z" fill="white"/>
<path d="M147.134 49.4146C147.753 49.9101 148.992 50.1166 150.08 50.1166C151.484 50.1166 152.874 49.8551 154.223 48.63C155.599 47.3774 156.549 45.4641 156.549 42.4084C156.549 39.4765 155.434 37.0815 153.135 35.6913C151.842 34.8792 150.162 34.5626 148.249 34.5626C147.698 34.5626 147.134 34.5901 146.804 34.7415C146.666 34.8516 146.583 34.9893 146.542 35.1544C146.487 35.6775 146.487 39.6555 146.487 42.0092C146.487 44.418 146.487 47.7904 146.542 48.2033C146.57 48.5474 146.749 49.1531 147.134 49.4146ZM141.27 33.2412C141.766 33.2412 143.665 33.3238 144.546 33.3238C146.198 33.3238 147.341 33.2412 150.424 33.2412C153.012 33.2412 155.186 33.9432 156.742 35.2783C158.628 36.9026 159.632 39.1737 159.632 41.9404C159.632 45.8633 157.843 48.1345 156.04 49.4146C154.25 50.7498 151.924 51.5068 148.607 51.5068C146.845 51.5068 143.817 51.4518 141.284 51.4242H141.243C141.119 51.1902 141.463 50.2818 141.67 50.268C142.358 50.1854 142.537 50.1579 142.853 50.034C143.39 49.8138 143.514 49.5385 143.569 48.5887C143.652 46.7856 143.624 44.6383 143.624 42.1882C143.624 40.4401 143.652 37.0402 143.597 35.9666C143.5 35.0719 143.129 34.8379 142.358 34.6589C141.807 34.5488 141.257 34.4525 140.706 34.3974C140.651 34.2047 141.105 33.4201 141.27 33.2412Z" fill="white"/>
<path d="M166.928 34.7284C166.817 34.756 166.666 35.045 166.666 35.1964C166.639 36.2425 166.611 38.9817 166.611 40.8675C166.625 40.9363 166.68 41.0051 166.762 41.0189C167.148 41.0464 168.084 41.0739 168.882 41.0739C169.997 41.0739 170.644 40.9225 171.002 40.7573C171.938 40.2894 172.378 39.2708 172.378 38.1696C172.378 35.6369 170.617 34.6871 168.001 34.6871C167.63 34.6596 167.272 34.6734 166.928 34.7284ZM173.603 46.3458C173.603 43.7856 171.718 42.3403 168.277 42.3403C168.125 42.3403 167.038 42.3128 166.776 42.3678C166.694 42.3953 166.597 42.4504 166.597 42.5192C166.597 44.3499 166.57 47.2818 166.652 48.4518C166.707 48.9473 167.065 49.6493 167.506 49.842C167.974 50.1035 169.034 50.1586 169.777 50.1586C171.8 50.1586 173.603 49.0299 173.603 46.3458ZM161.614 33.2969C161.876 33.2969 162.661 33.3795 164.656 33.3795C166.542 33.3795 168.07 33.3244 169.887 33.3244C172.144 33.3244 175.269 34.1366 175.269 37.5089C175.269 39.1606 174.099 40.5096 172.557 41.1428C172.475 41.1703 172.475 41.2253 172.557 41.2529C174.732 41.8035 176.645 43.1386 176.645 45.6988C176.645 48.204 175.09 49.7732 172.819 50.7642C171.442 51.3699 169.736 51.5763 168.001 51.5763C166.68 51.5763 163.129 51.4387 161.16 51.4662C160.954 51.3836 161.353 50.4476 161.532 50.31C161.986 50.2962 162.427 50.2274 162.867 50.1035C163.569 49.9246 163.652 49.7044 163.748 48.6582C163.803 47.7498 163.803 44.5289 163.803 42.2302C163.803 39.0918 163.831 36.9721 163.803 35.926C163.775 35.1138 163.486 34.8523 162.922 34.7009C162.482 34.6183 161.752 34.522 161.16 34.4394C161.023 34.288 161.463 33.407 161.614 33.2969Z" fill="white"/>
<path d="M56.1503 51.4939C56.0677 51.3012 56.0402 51.1085 56.0677 50.902C56.0677 50.7644 56.0953 50.6267 56.1503 50.5028C56.5357 50.4478 56.9074 50.3652 57.279 50.2688C57.8021 50.1449 57.9948 49.8559 58.0223 49.1952C58.1049 47.626 58.1187 44.6804 58.0774 42.6157V42.5606C58.0774 42.3404 58.0774 42.0376 57.8021 41.8173C57.3203 41.5145 56.7973 41.2805 56.2467 41.1291C55.9989 41.0603 55.8613 40.9226 55.875 40.7712C55.8888 40.6198 56.0402 40.4409 56.3568 40.372C57.2102 40.2895 59.4401 39.7526 60.321 39.3535C60.4174 39.4773 60.4586 39.615 60.4449 39.7664C60.4449 39.8628 60.4311 39.9591 60.4174 40.0555C60.3898 40.3445 60.3623 40.6749 60.3623 41.0052C60.3761 41.1291 60.4862 41.2117 60.6101 41.1979C60.6513 41.1979 60.7064 41.1704 60.7339 41.1429C62.3995 39.8352 63.8998 39.3672 64.6706 39.3672C65.937 39.3672 66.9143 39.9729 67.6713 41.2117C67.7126 41.2667 67.7677 41.308 67.8365 41.308C67.9053 41.308 67.9604 41.2805 68.0017 41.2255C69.5295 40.0555 71.0574 39.3672 72.076 39.3672C74.4848 39.3672 75.9163 41.1704 75.9163 44.1849C75.9163 45.052 75.9026 46.1532 75.9026 47.1718C75.9026 48.0665 75.8888 48.9199 75.8888 49.498C75.8888 49.6357 76.0815 50.0348 76.3706 50.1036C76.7284 50.2688 77.224 50.3652 77.8709 50.4753H77.8984C77.9535 50.6542 77.8434 51.3149 77.747 51.4526C77.5818 51.4526 77.3616 51.4388 77.0863 51.4251C76.5908 51.3975 75.9026 51.37 75.1042 51.37C73.5075 51.37 72.6679 51.3975 71.8695 51.4526C71.8145 51.2599 71.7869 50.6129 71.8558 50.4753C72.1861 50.4202 72.5165 50.3514 72.833 50.2551C73.3423 50.0899 73.4937 49.8559 73.5213 49.1814C73.535 48.6997 73.6314 44.4739 73.4662 43.4691C73.3148 42.423 72.5302 41.2117 70.8096 41.2117C70.1765 41.2117 69.1441 41.4732 68.1668 42.2165C68.1118 42.2853 68.0705 42.3679 68.0705 42.4643V42.478C68.1806 43.0149 68.1806 43.648 68.1806 44.6116C68.1806 45.1621 68.1806 45.7403 68.1806 46.3046C68.1806 47.4746 68.1668 48.5758 68.1806 49.4017C68.1806 49.966 68.5247 50.1036 68.8 50.2138C68.9514 50.2413 69.0753 50.2688 69.1854 50.2964C69.4194 50.3514 69.6534 50.4065 70.0113 50.4615C70.0664 50.7093 70.0526 50.9571 69.9975 51.1911C69.9838 51.2874 69.9425 51.37 69.8874 51.4388C68.9927 51.4113 68.0842 51.3838 66.7628 51.3838C66.3637 51.3838 65.7167 51.3975 65.1386 51.4113C64.6706 51.4251 64.2302 51.4388 63.9824 51.4388C63.9136 51.2736 63.886 51.1085 63.8998 50.9295C63.886 50.7644 63.9136 50.5992 63.9962 50.4615L64.354 50.3927C64.6569 50.3376 64.9321 50.2964 65.1799 50.2275C65.6204 50.0899 65.7856 49.8559 65.8131 49.2915C65.8957 47.9977 65.9645 44.2674 65.7856 43.3314C65.469 41.8311 64.6293 41.074 63.2529 41.074C62.4545 41.074 61.4359 41.4595 60.6101 42.0789C60.4449 42.2303 60.3623 42.4505 60.3623 42.6845C60.3623 43.125 60.3623 43.6618 60.3623 44.2261C60.3623 46.0981 60.3485 48.4244 60.3898 49.4429C60.4174 49.7595 60.5275 50.1174 61.1056 50.2551C61.2295 50.2964 61.4497 50.3239 61.7112 50.3652C61.8626 50.3927 62.014 50.4202 62.1792 50.4478C62.2343 50.7781 62.2068 51.1085 62.0966 51.4251C61.8351 51.4251 61.5323 51.4113 61.1606 51.3975C60.6101 51.37 59.9218 51.3425 59.151 51.3425C58.2288 51.3425 57.5956 51.37 57.0725 51.3975C56.7422 51.4801 56.4394 51.4939 56.1503 51.4939Z" fill="white"/>
<path d="M85.6612 40.6197C85.1657 40.6059 84.6702 40.7436 84.2572 41.0189C83.2387 41.6383 82.7156 42.8771 82.7156 44.7078C82.7156 48.1214 84.4224 50.5027 86.8725 50.5027C87.5332 50.5302 88.1664 50.2962 88.6619 49.8695C89.419 49.2639 89.8182 47.9975 89.8182 46.2494C89.8182 42.8771 88.1389 40.6197 85.6612 40.6197ZM86.1292 51.7553C81.7108 51.7553 80.1416 48.5068 80.1416 45.4786C80.1416 43.3589 81.0088 41.7071 82.7156 40.5509C83.9131 39.8076 85.2896 39.4084 86.6936 39.3809C90.0659 39.3809 92.4197 41.8035 92.4197 45.2722C92.4197 47.6259 91.4837 49.4979 89.6943 50.6541C88.8409 51.1909 87.3543 51.7553 86.1292 51.7553Z" fill="white"/>
<path d="M130.644 40.6197C130.148 40.6059 129.653 40.7436 129.24 41.0189C128.221 41.6383 127.698 42.8771 127.698 44.7078C127.698 48.1214 129.405 50.5027 131.855 50.5027C132.516 50.5302 133.149 50.2962 133.659 49.8695C134.416 49.2639 134.801 47.9975 134.801 46.2494C134.801 42.8771 133.122 40.6197 130.644 40.6197ZM131.112 51.7553C126.693 51.7553 125.124 48.5068 125.124 45.4786C125.124 43.3589 125.991 41.7071 127.698 40.5509C128.896 39.8076 130.272 39.4084 131.676 39.3809C135.049 39.3809 137.402 41.8035 137.402 45.2722C137.402 47.6397 136.466 49.4979 134.677 50.6541C133.824 51.1909 132.337 51.7553 131.112 51.7553Z" fill="white"/>
<path d="M115.765 40.4959C114.402 40.4959 113.521 41.5696 113.521 43.2351C113.521 44.9006 114.278 46.8827 116.412 46.8827C116.783 46.8827 117.444 46.7175 117.774 46.3597C118.27 45.9054 118.6 44.9694 118.6 43.9646C118.6 41.8036 117.54 40.4959 115.765 40.4959ZM115.599 51.9894C115.214 51.9894 114.842 52.0857 114.498 52.2647C113.425 52.9529 112.915 53.6411 112.915 54.4395C112.915 55.1828 113.204 55.7884 113.838 56.3115C114.595 56.9584 115.613 57.2612 116.962 57.2612C119.605 57.2612 120.789 55.8435 120.789 54.4395C120.789 53.4622 120.293 52.8015 119.288 52.4299C118.504 52.1408 117.196 51.9894 115.599 51.9894ZM115.778 58.7341C114.195 58.7341 113.053 58.4037 112.076 57.6466C111.126 56.9171 110.699 55.8297 110.699 55.0727C110.713 54.5909 110.892 54.1229 111.222 53.765C111.498 53.4484 112.145 52.8566 113.617 51.8517C113.659 51.838 113.7 51.7829 113.7 51.7279C113.7 51.6728 113.659 51.6177 113.604 51.604C112.392 51.136 112.021 50.3652 111.911 49.9522C111.911 49.9385 111.911 49.9109 111.897 49.8834C111.869 49.7182 111.828 49.5668 112.048 49.4154C112.213 49.2915 112.489 49.1263 112.778 48.9612C113.191 48.7272 113.59 48.4794 113.961 48.1903C114.03 48.1078 114.03 47.9839 113.948 47.9151C113.934 47.9013 113.92 47.8875 113.906 47.8875C112.103 47.2819 111.195 45.9467 111.195 43.8958C111.181 42.6019 111.8 41.3769 112.86 40.6336C113.59 40.0555 115.407 39.3672 116.591 39.3672H116.659C117.871 39.3948 118.559 39.6563 119.509 40.0004C120.045 40.1931 120.624 40.2895 121.188 40.2619C122.193 40.2619 122.633 39.9453 123.005 39.5737C123.06 39.7389 123.101 39.9178 123.101 40.0967C123.129 40.5235 123.005 40.9364 122.771 41.2943C122.564 41.5833 122.083 41.7898 121.642 41.7898C121.601 41.7898 121.546 41.7898 121.504 41.776C121.27 41.7623 121.036 41.721 120.816 41.6659L120.706 41.7072C120.665 41.7623 120.692 41.8173 120.72 41.8862C120.734 41.8999 120.734 41.9137 120.734 41.9274C120.816 42.2991 120.871 42.6707 120.899 43.0424C120.899 45.1897 120.059 46.1119 119.137 46.8001C118.256 47.4608 117.21 47.8738 116.109 47.9701C116.081 47.9701 115.971 47.9839 115.751 47.9976C115.613 48.0114 115.434 48.0252 115.407 48.0252H115.379C115.187 48.0802 114.663 48.328 114.663 48.7822C114.663 49.1676 114.897 49.6356 116.012 49.7182L116.742 49.7733C118.215 49.8834 120.059 50.0073 120.926 50.2963C122.11 50.7093 122.881 51.838 122.867 53.0906C122.867 55.0038 121.505 56.8208 119.22 57.9219C118.146 58.4312 116.962 58.7065 115.765 58.6928" fill="white"/>
<path d="M109.02 50.4756C108.373 50.393 107.905 50.2966 107.341 50.0351C107.231 49.925 107.162 49.7736 107.134 49.6222C107.079 48.7137 107.079 46.0984 107.079 44.3916C107.079 43.0014 106.845 41.7763 106.254 40.8954C105.552 39.9043 104.547 39.3262 103.253 39.3262C102.11 39.3262 100.582 40.1108 99.3162 41.1845C99.2887 41.212 99.096 41.4047 99.096 41.1156C99.096 40.8266 99.151 40.2485 99.1648 39.8768C99.1923 39.6703 99.1235 39.4776 98.9721 39.34C98.1462 39.7529 95.8337 40.3035 94.9666 40.3861C94.3472 40.51 94.182 41.1019 94.8565 41.3221H94.8702C95.407 41.4735 95.9163 41.6937 96.3843 41.9828C96.6459 42.1893 96.6183 42.4783 96.6183 42.7123C96.6459 44.6531 96.6459 47.6538 96.5633 49.278C96.5357 49.9112 96.3568 50.1452 95.8888 50.2691L95.9301 50.2553C95.5722 50.3517 95.2143 50.4067 94.8427 50.4618C94.6913 50.6132 94.6913 51.4528 94.8427 51.618C95.1317 51.618 96.6321 51.5354 97.8709 51.5354C99.5777 51.5354 100.459 51.618 100.899 51.618C101.078 51.4116 101.133 50.627 101.023 50.4618C100.61 50.448 100.211 50.3792 99.8117 50.2829C99.3437 50.1727 99.2198 49.9387 99.1923 49.4157C99.1373 48.053 99.1373 45.1349 99.1373 43.1666C99.1373 42.616 99.2887 42.3544 99.4538 42.203C100.046 41.68 101.009 41.3359 101.863 41.3359C102.688 41.3359 103.239 41.5974 103.652 41.9415C104.134 42.3544 104.437 42.9463 104.492 43.5795C104.602 44.6807 104.574 46.8968 104.574 48.81C104.574 49.8562 104.492 50.1177 104.106 50.2416C103.927 50.3242 103.459 50.4205 102.895 50.4756C102.716 50.6545 102.771 51.4666 102.895 51.6318C103.652 51.6318 104.547 51.5492 105.841 51.5492C107.465 51.5492 108.483 51.6318 108.896 51.6318C109.075 51.4253 109.144 50.6683 109.02 50.4756Z" fill="white"/>
</g>
<defs>
<clipPath id="clip0_1708_3000">
<rect width="152" height="40" fill="white" transform="translate(32 20)"/>
</clipPath>
</defs>
</svg>
